<?xml version="1.0" encoding="utf-8"?>
<!-- Generator: Adobe Illustrator 17.1.0, SVG Export Plug-In . SVG Version: 6.00 Build 0)  -->
<!DOCTYPE svg PUBLIC "-//W3C//DTD SVG 1.1//EN" "http://www.w3.org/Graphics/SVG/1.1/DTD/svg11.dtd">
<svg version="1.1" id="Layer_1" xmlns="http://www.w3.org/2000/svg" xmlns:xlink="http://www.w3.org/1999/xlink" x="0px" y="0px"
	 viewBox="201 0 97 500" enable-background="new 201 0 97 500" xml:space="preserve">
<g>
	<g>
		<path fill="#F2358D" d="M256.7,7.5c-3,3.6-3.1,10-2.1,14.2c0.6,2.8,3.2,7.6,6.2,3.9c0-0.1,0-0.1,0-0.2c-1.8-2.5-3.6-4.9-5.4-7.4
			c0,0.1,0,0.1,0,0.2c0.5-3.3,1-6.8,1.5-10.1c-6.5,17.3-13.8,34-19.5,51.4c-5.9,17.8-11.1,35.6-15.3,53.8
			C213.6,149.9,208,187.4,208,225c0,38.1,4.7,76.2,13.6,113.3c7.8,32.8,17.9,65.7,38.8,92.7c2.8,3.7,5.5-0.7,6.3-3.6
			c1.2-4.1,1.6-10.7-1.2-14.3c-20.3-26-29.7-58-36.9-89.8c-8-35.3-12.5-71.4-11.5-107.6c1-35.6,6.8-70.9,15.8-105.3
			c4.6-17.1,9.7-34.3,15.7-51c3-8.6,6.2-17.1,9.7-25.6c2.8-6.8,6.9-13.4,6-21.1c-0.1-1.5-2-10.2-5.4-7.4
			C258.1,5.9,257.4,6.7,256.7,7.5L256.7,7.5z"/>
	</g>
</g>
<g>
	<path fill="#F2358D" d="M247,429.5c17.1,14.7,27.9,35.3,41.8,49.4c-1.7-22.2-11.3-47.6-11-70.4L247,429.5z"/>
	<g>
		<path fill="#F2358D" d="M277.9,398.3c-2.5,0-2.3,9.2-2.3,10.5c-0.1,12.9,1.7,25.9,4.4,38.6c2.3,11.3,5.5,22.8,6.5,34.5
			c1-4.3,1.8-8.6,2.8-12.9c-15-15.7-25.4-35-41.8-49.4c0,6.8,0,13.4,0,20.2c10.2-6.9,20.6-13.9,30.8-21c2.6-1.8,1.7-10.5,1.6-12.9
			c0-1-0.5-8.9-2.8-7.3c-10.2,6.9-20.6,13.9-30.8,21c-3.1,2.1-2.7,17.9,0,20.2c16.4,14.4,26.8,33.9,41.8,49.4c2.2,2.2,3-12,2.8-12.9
			c-1-12-3.3-23.7-5.9-35.4c-2.3-10.6-5.1-21.5-4.9-32.3C280.1,407.3,280.3,398,277.9,398.3z"/>
	</g>
</g>
</svg>
