<?xml version="1.0" encoding="utf-8"?>
<!-- Generator: Adobe Illustrator 17.1.0, SVG Export Plug-In . SVG Version: 6.00 Build 0)  -->
<!DOCTYPE svg PUBLIC "-//W3C//DTD SVG 1.1//EN" "http://www.w3.org/Graphics/SVG/1.1/DTD/svg11.dtd">
<svg version="1.1" id="Layer_1" xmlns="http://www.w3.org/2000/svg" xmlns:xlink="http://www.w3.org/1999/xlink" x="0px" y="0px"
	 viewBox="0 0 177 110" enable-background="new 0 0 177 110" xml:space="preserve">
<g>
	<g>
		<path d="M22.9,42.7L22.9,42.7c-0.1,0.5-0.3,1.1-0.4,1.5L22,46h1.8l-0.5-1.7C23.1,43.8,23,43.2,22.9,42.7L22.9,42.7z M22.9,42.7"/>
		<path d="M28.1,39.9H17.7v10.9h10.4V39.9z M24.7,49.4L24,47.3h-2.3l-0.6,2.1h-1.9l2.5-8h2.4l2.5,8H24.7z M24.7,49.4"/>
		<path d="M174.1,108.4v-7.2h2.9V68.3h-2.9V1.6c0-0.9-0.7-1.6-1.6-1.6H5.1C4.2,0,3.4,0.7,3.4,1.6v66.7H0v32.9h3.4v7.2
			c0,0.9,0.7,1.6,1.6,1.6h167.4C173.4,110,174.1,109.3,174.1,108.4L174.1,108.4z M159.3,10.1l7.3,6.7v63.7H13.1V16.9l7.1-6.7H159.3z
			 M10.9,2.4c1.9,0,3.5,1.6,3.5,3.5c0,1.9-1.6,3.5-3.5,3.5c-2,0-3.5-1.6-3.5-3.5C7.3,4,8.9,2.4,10.9,2.4L10.9,2.4z M10.9,106
			c-2,0-3.5-1.6-3.5-3.5c0-1.9,1.6-3.5,3.5-3.5c1.9,0,3.5,1.6,3.5,3.5C14.4,104.5,12.8,106,10.9,106L10.9,106z M47.7,107.3
			c-2.5,0-4.6-2-4.6-4.5c0-2.5,2-4.5,4.6-4.5c2.5,0,4.6,2,4.6,4.5C52.3,105.3,50.3,107.3,47.7,107.3L47.7,107.3z M68.5,101.2
			c0,0.9-0.7,1.6-1.6,1.6h-2.7c-0.9,0-1.6-0.7-1.6-1.6v-2.7c0-0.9,0.7-1.6,1.6-1.6h2.7c0.9,0,1.6,0.7,1.6,1.6V101.2z M89.7,94.8
			c-1.7,0-3.1-1.3-3.1-3c0-1.7,1.4-3,3.1-3s3.1,1.3,3.1,3C92.8,93.4,91.4,94.8,89.7,94.8L89.7,94.8z M117.7,101.2
			c0,0.9-0.7,1.6-1.6,1.6h-2.7c-0.9,0-1.6-0.7-1.6-1.6v-2.7c0-0.9,0.7-1.6,1.6-1.6h2.7c0.9,0,1.6,0.7,1.6,1.6V101.2z M131.5,107.3
			c-2.5,0-4.6-2-4.6-4.5c0-2.5,2.1-4.5,4.6-4.5c2.5,0,4.6,2,4.6,4.5C136,105.3,134,107.3,131.5,107.3L131.5,107.3z M166.7,106.8
			c-2,0-3.5-1.6-3.5-3.5c0-1.9,1.6-3.5,3.5-3.5c1.9,0,3.5,1.6,3.5,3.5C170.2,105.2,168.6,106.8,166.7,106.8L166.7,106.8z
			 M166.7,10.1c-2,0-3.5-1.5-3.5-3.5c0-1.9,1.6-3.5,3.5-3.5c1.9,0,3.5,1.6,3.5,3.5C170.2,8.6,168.6,10.1,166.7,10.1L166.7,10.1z
			 M166.7,10.1"/>
	</g>
	<g>
		<path fill="#5F63AA" d="M62.9,17.4c0-0.2,0-0.5,0-0.8v-0.5c0,0,0-0.1,0-0.2c0-0.1,0-0.2,0-0.2c0-0.1,0-0.2,0-0.2s0-0.1,0-0.2
			c0,0,0-0.1,0.1-0.2c0-0.1,0.1-0.1,0.1-0.2c0,0,0,0,0,0l0.2,0.3c0,0,0,0.1,0,0.2c0,0.1,0,0.2,0.1,0.3c0,0.1,0.1,0.2,0.1,0.3
			c0,0.1,0,0.2,0.1,0.2c0,0,0,0.1,0,0.1l0.6-1.2c0,0,0.1-0.1,0.1-0.2c0.1-0.1,0.1-0.1,0.1-0.1c0,0.1,0.1,0.2,0.1,0.2
			c0,0.1,0,0.2,0,0.2v0.1L64,18.3l1.5,6.5l7.4-9.9c0.1-0.1,0.1-0.1,0.2-0.2s0.2-0.1,0.2-0.1h0h0c0,0,0.1,0,0.2,0c0.1,0,0.2,0,0.2,0
			c0,0,0,0,0,0c0,0,0.1,0.1,0.1,0.1c0,0.1,0.1,0.1,0.1,0.1v0c0,0.1,0,0.3-0.1,0.4c-0.1,0.1-0.1,0.2-0.2,0.4L73,17.1l-1.2,4.7
			L71.4,26l0,0.1c-0.1-0.1-0.1-0.2-0.2-0.3s-0.1-0.2-0.1-0.3c0-0.1,0-0.2,0-0.3c0-0.1,0-0.3-0.1-0.5c0-0.2,0-0.3-0.1-0.5
			s0-0.3,0-0.3c0,0,0,0,0-0.1s0-0.1,0-0.2c0-0.1,0-0.1,0-0.2c0-0.1,0-0.1,0-0.2c0-0.1,0-0.2,0-0.3s0-0.2,0-0.3l0.6-4.5l-6,7.3
			c0,0.1,0,0.1,0,0.2c0,0.1,0,0.2-0.1,0.2l-0.2-0.2h0c0,0-0.1,0.1-0.2,0.1c-0.1,0.1-0.1,0.1-0.2,0.1c-0.1,0-0.1,0.1-0.2,0.1
			s-0.1,0.1-0.2,0.1h0c0.1-0.2,0.1-0.3,0.2-0.4c0.1-0.1,0.2-0.3,0.3-0.4c0,0,0-0.1,0-0.1v0l-1.5-4.5l-0.1-0.5l0,0l-1.9,4l-1,1.5
			c-0.1,0.1-0.2,0.2-0.3,0.3c-0.1,0.1-0.2,0.2-0.3,0.2v-0.1c0-0.1,0-0.1,0-0.2c0-0.1,0-0.1,0-0.2l3-7.7v-0.1
			C63,17.9,63,17.7,62.9,17.4z"/>
		<path fill="#5F63AA" d="M74.4,24.5l0.2-1.5l0.8-2.6c0,0,0-0.1,0.1-0.2s0.1-0.2,0.2-0.3s0.1-0.3,0.2-0.4c0.1-0.1,0.1-0.2,0.1-0.3
			c0.1-0.1,0.1-0.2,0.2-0.3c0.1-0.1,0.2-0.2,0.3-0.3h0c0.1,0,0.1,0,0.1,0.1c0,0.1,0,0.1,0,0.2c0,0,0,0.1,0,0.1l-1.5,5.9
			c0,0,0,0.1,0,0.2s0,0.3,0,0.3v0c0,0.1,0,0.2,0,0.3c0,0.1,0,0.2,0,0.3c0,0.1,0,0.1-0.1,0.1c-0.2,0-0.3-0.1-0.4-0.2
			c-0.1-0.1-0.2-0.3-0.2-0.4c0-0.2-0.1-0.3-0.1-0.5c0-0.2,0-0.3,0-0.4V24.5z M76.6,16.3c0.1,0,0.2-0.1,0.3-0.1
			c0.2,0,0.4,0.1,0.5,0.2s0.3,0.3,0.3,0.5c0,0.1-0.1,0.2-0.2,0.3c-0.1,0-0.2,0.1-0.3,0.1c-0.2,0-0.4-0.1-0.6-0.2
			c-0.2-0.1-0.3-0.3-0.3-0.5C76.4,16.4,76.5,16.3,76.6,16.3z"/>
		<path fill="#5F63AA" d="M78.5,23.7l-0.4-1.3c0,0,0-0.1,0-0.2c0-0.1,0-0.3,0-0.4c0-0.2,0-0.3,0-0.5s0-0.3,0-0.4v-0.6v-0.6
			c0,0,0-0.1,0-0.2c0-0.1,0-0.2,0-0.3s0-0.2,0-0.3c0-0.1,0-0.2,0-0.2c0-0.1,0-0.1,0.1-0.2c0-0.1,0.1-0.2,0.1-0.2c0,0,0,0.1,0.1,0.2
			c0,0.1,0.1,0.1,0.1,0.2c0,0,0,0,0,0.1l0.7,4.1l0.1,0.3l4.6-4c0,0,0,0,0,0c0,0,0,0,0,0c0,0,0.1,0,0.1-0.1c0.1,0,0.1-0.1,0.2-0.1
			c0.1,0,0.1-0.1,0.2-0.1s0.1-0.1,0.1-0.1l-0.3,0.7l-4.6,4.6v0.1c0.1,0.1,0.1,0.2,0.1,0.3c0.4,0.6,1,0.9,1.8,0.9
			c0.2,0,0.4,0,0.6-0.1c0.2,0,0.4-0.1,0.6-0.1c0,0,0,0,0.1,0c0,0,0.1,0,0.1,0c0,0,0,0,0,0c0,0.1,0,0.1-0.1,0.2
			c-0.1,0.1-0.1,0.1-0.2,0.1c-0.2,0.2-0.5,0.3-0.7,0.3c-0.3,0.1-0.5,0.1-0.8,0.1c-0.5,0-0.9-0.1-1.3-0.4c-0.4-0.2-0.7-0.6-1-0.9h0
			l-2,1.5l-0.7,0.3l0.4-0.7L78.5,23.7z"/>
		<path fill="#5F63AA" d="M93.3,25.2l0.8-2.9l2.5-5.5c0,0,0,0,0.1-0.1s0.1-0.1,0.1-0.1l0,0c0,0,0,0,0,0c0,0,0,0,0,0
			c-0.4,0-0.7,0-1.1,0c-0.4,0-0.7,0-1.1,0h-0.7c0,0-0.1,0-0.1,0s-0.1,0-0.2,0c-0.1,0-0.2,0-0.3,0s-0.2,0-0.2,0c-0.1,0-0.2,0-0.2-0.1
			c-0.1,0-0.1-0.1-0.2-0.1l0.3-0.2l9-1.3h0.3h0.3c0.1,0,0.2,0,0.5,0.1v0l-0.6,0.3l-5.2,1.1c0,0,0,0,0,0c0,0,0,0,0,0l-0.1,0.5
			l-3.5,8.1c0,0.1-0.1,0.2-0.2,0.3c-0.1,0.1-0.1,0.2-0.2,0.2c0,0-0.1-0.1-0.1-0.2s0-0.2,0-0.2V25.2z"/>
		<path fill="#5F63AA" d="M102.4,25.3c0-0.1,0-0.1,0-0.2c0-0.1,0-0.1,0-0.2v-0.1l0.2-2.4l-1.3,2l-1.4,1.4c0,0,0,0-0.1,0.1
			c0,0-0.1,0.1-0.2,0.1c-0.1,0-0.1,0.1-0.2,0.1c-0.1,0-0.1,0.1-0.1,0.1c-0.2,0.1-0.3,0.2-0.5,0.2c-0.2,0-0.4,0.1-0.6,0.1
			c-0.4,0-0.8-0.1-1-0.4c-0.3-0.3-0.4-0.6-0.4-1c0-0.1,0-0.3,0-0.5c0-0.2,0.1-0.3,0.1-0.4l0.6-1.2l1.3-1.7l1.2-1.1l1-0.6
			c0,0,0,0,0.1,0c0,0,0.1,0,0.2-0.1c0.1,0,0.1-0.1,0.2-0.1c0.1,0,0.1,0,0.1-0.1c0.2-0.1,0.3-0.1,0.5-0.1c0.2,0,0.3,0,0.5,0
			c0.1,0,0.3,0,0.4,0c0.1,0,0.3,0.1,0.4,0.2c0,0,0,0,0.1,0.1l0,0c-0.4,0-0.8,0.1-1.1,0.2c-0.3,0.1-0.7,0.3-1,0.5
			c0,0-0.1,0.1-0.2,0.1c-0.1,0.1-0.1,0.1-0.2,0.2c-0.1,0.1-0.1,0.1-0.2,0.2s-0.1,0.1-0.1,0.1l-1.3,1.4l-1.2,1.7c0,0,0,0-0.1,0.1
			c0,0.1-0.1,0.1-0.1,0.2c0,0.1-0.1,0.1-0.1,0.2c0,0.1-0.1,0.1-0.1,0.2c-0.1,0.1-0.1,0.2-0.1,0.3c0,0.1,0,0.1,0,0.3c0,0,0,0.1,0,0.1
			c0,0,0,0.1,0,0.1c0.1,0.2,0.2,0.4,0.5,0.4c0.2,0,0.4,0,0.5-0.1c0.2-0.1,0.3-0.2,0.5-0.3l1.5-1.4L103,21l0.3-0.7c0,0,0-0.1,0.1-0.1
			c0.1,0,0.1-0.1,0.1-0.1h0c0.1,0.1,0.1,0.2,0.1,0.4c0,0.1,0,0.2,0,0.4v0.3l-0.4,4.1c0,0.2-0.1,0.4-0.1,0.5c0,0.1-0.1,0.3-0.1,0.4
			s-0.1,0.2-0.1,0.3c0,0.1-0.1,0.2-0.1,0.2s-0.1,0.1-0.2,0.2c0,0,0,0,0,0h0c-0.1-0.3-0.2-0.5-0.2-0.8s0-0.5,0-0.8
			C102.4,25.4,102.4,25.3,102.4,25.3z M102.7,22.4L102.7,22.4C102.7,22.4,102.7,22.4,102.7,22.4L102.7,22.4z"/>
		<path fill="#5F63AA" d="M103,30.6l2.8-11.6l0,0c0,0-0.1-0.1-0.2-0.1c-0.1,0-0.2-0.1-0.2-0.2c-0.1-0.1-0.2-0.1-0.2-0.2
			c-0.1,0-0.1-0.1-0.2-0.1c-0.1-0.1-0.2-0.1-0.2-0.2c-0.1-0.1-0.1-0.1-0.2-0.2h0.2l1.2,0.4l0,0c0,0,0,0,0,0c0,0,0,0,0,0
			c0,0,0,0.1,0,0.1c0,0,0,0.1,0,0.1l1.5,0.7c0,0,0,0,0.1,0c0.1,0,0.1,0.1,0.2,0.1c0.1,0,0.1,0.1,0.2,0.1s0.1,0.1,0.1,0.1
			c0.3,0.2,0.5,0.4,0.8,0.6c0.2,0.2,0.4,0.5,0.6,0.7s0.3,0.5,0.4,0.8c0.1,0.3,0.2,0.6,0.2,0.9c0,0.5-0.1,1-0.4,1.4
			c-0.3,0.4-0.6,0.7-1.1,1s-0.9,0.5-1.4,0.6c-0.5,0.1-1,0.2-1.5,0.2c-0.2,0-0.3,0-0.5,0c-0.2,0-0.3,0-0.5,0c0,0,0,0-0.1,0l-1.7,5
			c-0.1,0.2-0.2,0.2-0.2,0.3c0,0,0,0,0,0l0,0c0,0,0,0,0-0.1C103,30.8,103,30.7,103,30.6L103,30.6L103,30.6z M105.2,25.4
			c0,0,0.1,0,0.2,0c0.1,0,0.2,0,0.4-0.1c0.1,0,0.3-0.1,0.4-0.1c0.1,0,0.2-0.1,0.3-0.1c0,0,0.1,0,0.2-0.1c0.1,0,0.2-0.1,0.3-0.1
			c0.1,0,0.2-0.1,0.3-0.1c0.1,0,0.2-0.1,0.2-0.1c0.2-0.1,0.4-0.2,0.6-0.3c0.2-0.1,0.4-0.3,0.6-0.5c0.2-0.2,0.3-0.4,0.4-0.6
			c0.1-0.2,0.2-0.4,0.2-0.7c0-0.2,0-0.4-0.1-0.7c-0.1-0.2-0.2-0.4-0.3-0.6c-0.1-0.2-0.3-0.3-0.4-0.5c-0.2-0.2-0.3-0.3-0.5-0.5
			c0,0-0.1-0.1-0.2-0.2c-0.1-0.1-0.2-0.1-0.2-0.2l-1.3-0.8h0l-0.2,1.5l-1,4.6H105.2z"/>
		<path fill="#5F63AA" d="M110.3,26l0.1-0.8l0.9-2.5l0.9-1.7l0.8-1.1c0.1-0.2,0.3-0.3,0.5-0.5s0.4-0.3,0.6-0.4
			c0.2-0.1,0.4-0.2,0.7-0.3c0.2-0.1,0.5-0.1,0.7-0.1c0.2,0,0.4,0,0.6,0.1c0.2,0.1,0.4,0.1,0.5,0.2c0.1,0.1,0.3,0.2,0.4,0.4
			c0.1,0.2,0.1,0.3,0.1,0.5c0,0.3-0.1,0.6-0.3,0.9c-0.2,0.3-0.4,0.6-0.6,0.8c-0.2,0.2-0.4,0.4-0.6,0.7c-0.2,0.2-0.5,0.4-0.7,0.6
			c-0.3,0.2-0.5,0.3-0.8,0.4s-0.6,0.2-0.9,0.2c-0.1,0-0.2,0-0.2,0c-0.1,0-0.1,0-0.2,0c0,0-0.1,0-0.2,0c-0.1,0-0.2-0.1-0.2-0.1h0h0
			l-0.8,2l-0.2,0.9v0c0,0.1,0,0.1,0.1,0.1c0,0,0.1,0,0.2,0.1c0.1,0,0.1,0,0.2,0c0.1,0,0.1,0,0.2,0c0.1,0,0.3,0,0.4,0
			c0.1,0,0.3,0,0.4-0.1l1.1-0.6l3-2.2l0.3-0.1l-0.2,0.3l-1.9,2c0,0-0.1,0.1-0.1,0.1c-0.1,0.1-0.2,0.1-0.3,0.2
			c-0.1,0.1-0.2,0.1-0.3,0.2c-0.1,0.1-0.2,0.1-0.2,0.2c-0.4,0.2-0.7,0.5-1.1,0.6c-0.4,0.2-0.8,0.2-1.2,0.2c-0.2,0-0.3,0-0.5-0.1
			c-0.2,0-0.3-0.1-0.4-0.2c-0.1-0.1-0.2-0.2-0.3-0.3S110.3,26.3,110.3,26L110.3,26z M112.4,22.9c0.1,0,0.3,0,0.4,0
			c0.1,0,0.3,0,0.4,0c0.3-0.1,0.6-0.2,0.8-0.3s0.5-0.3,0.7-0.5c0.2-0.2,0.4-0.4,0.6-0.6s0.4-0.4,0.5-0.7c0.1-0.2,0.2-0.3,0.3-0.5
			s0.1-0.3,0.1-0.5c0-0.2-0.1-0.3-0.2-0.3c-0.2-0.1-0.3-0.1-0.4-0.1c-0.2,0-0.3,0-0.5,0.1c-0.2,0.1-0.3,0.1-0.4,0.3
			s-0.3,0.2-0.4,0.3c-0.1,0.1-0.2,0.2-0.3,0.3c0,0-0.1,0.1-0.1,0.2c-0.1,0.1-0.1,0.2-0.2,0.2c-0.1,0.1-0.1,0.1-0.2,0.2
			s-0.1,0.1-0.1,0.1L112.4,22.9L112.4,22.9z"/>
	</g>
</g>
<line fill="none" stroke="#1E1E1C" stroke-miterlimit="10" x1="19" y1="28.6" x2="163.7" y2="28.6"/>
</svg>
