<?xml version="1.0" encoding="utf-8"?>
<!-- Generator: Adobe Illustrator 17.1.0, SVG Export Plug-In . SVG Version: 6.00 Build 0)  -->
<!DOCTYPE svg PUBLIC "-//W3C//DTD SVG 1.1//EN" "http://www.w3.org/Graphics/SVG/1.1/DTD/svg11.dtd">
<svg version="1.1" id="Layer_1" xmlns="http://www.w3.org/2000/svg" xmlns:xlink="http://www.w3.org/1999/xlink" x="0px" y="0px"
	 viewBox="0 0 74.5 405.5" enable-background="new 0 0 74.5 405.5" xml:space="preserve">
<g>
	<g>
		<path fill="#F2358D" d="M31,6.1c-0.6-0.7-1.1-1.3-1.8-1.8c-2.8-2.3-4.3,4.8-4.4,6c-0.7,6.2,2.6,11.6,4.9,17.1
			c2.9,6.9,5.5,13.8,7.9,20.8c4.8,13.6,9,27.5,12.7,41.4c7.3,27.9,12,56.5,12.8,85.4c0.8,29.4-2.8,58.7-9.3,87.3
			C48,288.1,40.4,314,23.9,335.1c-2.3,2.9-2,8.3-1,11.6c0.6,2.3,2.8,5.9,5.1,2.9c17-21.9,25.2-48.6,31.5-75.2
			c7.2-30.1,11-61,11-91.9c0-30.5-4.5-60.9-11.4-90.6c-3.4-14.7-7.6-29.2-12.4-43.6C42.1,34.2,36.2,20.6,30.9,6.6
			c0.4,2.7,0.8,5.5,1.2,8.2c0-0.1,0-0.1,0-0.2c-1.5,2-2.9,4-4.4,6c0,0.1,0,0.1,0,0.2c2.4,3,4.5-0.9,5-3.2C33.5,14.2,33.4,9,31,6.1
			L31,6.1z"/>
	</g>
</g>
<g>
	<path fill="#F2358D" d="M13.9,331.3c0.3,18.5-7.5,39.1-8.9,57.1c11.3-11.5,20-28.2,33.9-40.1L13.9,331.3z"/>
	<g>
		<path fill="#F2358D" d="M12,331.3c0.1,8.8-2.1,17.6-4,26.2c-2.1,9.5-4,19-4.8,28.7c-0.1,0.8,0.5,12.3,2.3,10.5
			c12.2-12.6,20.6-28.4,33.9-40.1c2.2-1.9,2.5-14.7,0-16.4c-8.3-5.7-16.7-11.4-25-17c-1.9-1.3-2.3,5.1-2.3,5.9
			c-0.1,2-0.8,9,1.3,10.5c8.3,5.7,16.7,11.4,25,17c0-5.5,0-10.9,0-16.4c-13.3,11.7-21.7,27.4-33.9,40.1c0.8,3.5,1.5,7,2.3,10.5
			c0.8-9.5,3.4-18.8,5.3-28c2.2-10.3,3.7-20.8,3.6-31.3c0-1,0.1-8.5-1.9-8.5C11.9,322.8,12,330.3,12,331.3z"/>
	</g>
</g>
</svg>
