<?xml version="1.0" encoding="utf-8"?>
<!-- Generator: Adobe Illustrator 17.1.0, SVG Export Plug-In . SVG Version: 6.00 Build 0)  -->
<!DOCTYPE svg PUBLIC "-//W3C//DTD SVG 1.1//EN" "http://www.w3.org/Graphics/SVG/1.1/DTD/svg11.dtd">
<svg version="1.1" id="Layer_1" xmlns="http://www.w3.org/2000/svg" xmlns:xlink="http://www.w3.org/1999/xlink" x="0px" y="0px"
	 viewBox="0 0 494.7 305.4" enable-background="new 0 0 494.7 305.4" xml:space="preserve">
<g>
	<path fill="none" stroke="#231F20" stroke-width="0.5084" d="M375.2,148.2l-0.1,0.2l-7.7-4.4l-3.8,6.6l7.8,4.6
		c-4.3,5.9-10.7,10.2-18.2,11.4l0.1-9.1l-7.6,0l0,9.1c-7.4-0.8-14.2-4.6-18.7-10l-0.1-0.2l7.7-4.4l-3.8-6.6l-7.9,4.5
		c-1.5-3.4-2.4-7.5-2.4-11.4c0-3.5,0.6-6.8,1.8-9.8l7.7,4.4l3.8-6.6l-7.9-4.6c4.2-5.8,10.6-9.9,18-11.2l0.2,0v8.9h7.6l0-9.1
		c7.5,0.7,14,4.4,18.6,9.8l0.3,0.4l-7.7,4.4l3.8,6.6l7.9-4.6c1.6,3.5,2.4,7.4,2.4,11.5C376.9,142,376.3,145.2,375.2,148.2z"/>
	<path fill="#303030" d="M489.9,220.4h-5.4V13.2c0-6.4-5.2-11.6-11.6-11.6H21c-6.4,0-11.6,5.2-11.6,11.6v207.2H4.8
		c-1.8,0-3.3,1.5-3.3,3.3v55.6c0,1.8,1.5,3.3,3.3,3.3h4.6v10.6c0,6.4,7.7,10.6,14.1,10.6h449.3c6.4,0,11.6-5.2,11.6-11.6l-0.2-9.5
		h5.6c1.8,0,3.3-1.5,3.3-3.3v-55.6C493.2,221.9,491.7,220.4,489.9,220.4z M172.6,148.2l-0.1,0.2l-7.7-4.4l-3.8,6.6l7.8,4.6
		c-4.3,5.9-10.7,10.2-18.2,11.4l0.1-9.1l-7.6,0l0,9.1c-7.4-0.8-14.2-4.6-18.7-10l-0.1-0.2l7.7-4.4l-3.8-6.6l-7.9,4.5
		c-1.5-3.4-2.4-7.5-2.4-11.4c0-3.5,0.6-6.8,1.8-9.8l7.7,4.4l3.8-6.6l-7.9-4.6c4.2-5.8,10.6-9.9,18-11.2l0.2,0v8.9h7.6l0-9.1
		c7.5,0.7,14,4.4,18.6,9.8l0.3,0.4l-7.7,4.4l3.8,6.6l7.9-4.6c1.6,3.5,2.4,7.4,2.4,11.5C174.3,142,173.7,145.2,172.6,148.2z
		 M375.2,148.2l-0.1,0.2l-7.7-4.4l-3.8,6.6l7.8,4.6c-4.3,5.9-10.7,10.2-18.2,11.4l0.1-9.1l-7.6,0l0,9.1c-7.4-0.8-14.2-4.6-18.7-10
		l-0.1-0.2l7.7-4.4l-3.8-6.6l-7.9,4.5c-1.5-3.4-2.4-7.5-2.4-11.4c0-3.5,0.6-6.8,1.8-9.8l7.7,4.4l3.8-6.6l-7.9-4.6
		c4.2-5.8,10.6-9.9,18-11.2l0.2,0v8.9h7.6l0-9.1c7.5,0.7,14,4.4,18.6,9.8l0.3,0.4l-7.7,4.4l3.8,6.6l7.9-4.6
		c1.6,3.5,2.4,7.4,2.4,11.5C376.9,142,376.3,145.2,375.2,148.2z"/>
	<path fill="#F9F9F9" stroke="#231F20" stroke-width="0.5084" d="M443.7,21.9H256h-16.2H52L32.9,41.4V222h212.8h4.4h212.8V41.4
		L443.7,21.9z M172.6,148.2l-0.1,0.2l-7.7-4.4l-3.8,6.6l7.8,4.6c-4.3,5.9-10.7,10.2-18.2,11.4l0.1-9.1l-7.6,0l0,9.1
		c-7.4-0.8-14.2-4.6-18.7-10l-0.1-0.2l7.7-4.4l-3.8-6.6l-7.9,4.5c-1.5-3.4-2.4-7.5-2.4-11.4c0-3.5,0.6-6.8,1.8-9.8l7.7,4.4l3.8-6.6
		l-7.9-4.6c4.2-5.8,10.6-9.9,18-11.2l0.2,0v8.9h7.6l0-9.1c7.5,0.7,14,4.4,18.6,9.8l0.3,0.4l-7.7,4.4l3.8,6.6l7.9-4.6
		c1.6,3.5,2.4,7.4,2.4,11.5C174.3,142,173.7,145.2,172.6,148.2z M375.2,148.2l-0.1,0.2l-7.7-4.4l-3.8,6.6l7.8,4.6
		c-4.3,5.9-10.7,10.2-18.2,11.4l0.1-9.1l-7.6,0l0,9.1c-7.4-0.8-14.2-4.6-18.7-10l-0.1-0.2l7.7-4.4l-3.8-6.6l-7.9,4.5
		c-1.5-3.4-2.4-7.5-2.4-11.4c0-3.5,0.6-6.8,1.8-9.8l7.7,4.4l3.8-6.6l-7.9-4.6c4.2-5.8,10.6-9.9,18-11.2l0.2,0v8.9h7.6l0-9.1
		c7.5,0.7,14,4.4,18.6,9.8l0.3,0.4l-7.7,4.4l3.8,6.6l7.9-4.6c1.6,3.5,2.4,7.4,2.4,11.5C376.9,142,376.3,145.2,375.2,148.2z"/>
	<path fill="#4FB3DB" stroke="#231F20" stroke-width="0.5084" d="M47.2,88.7v120h402.4v-120H47.2z M172.6,148.2l-0.1,0.2l-7.7-4.4
		l-3.8,6.6l7.8,4.6c-4.3,5.9-10.7,10.2-18.2,11.4l0.1-9.1l-7.6,0l0,9.1c-7.4-0.8-14.2-4.6-18.7-10l-0.1-0.2l7.7-4.4l-3.8-6.6
		l-7.9,4.5c-1.5-3.4-2.4-7.5-2.4-11.4c0-3.5,0.6-6.8,1.8-9.8l7.7,4.4l3.8-6.6l-7.9-4.6c4.2-5.8,10.6-9.9,18-11.2l0.2,0v8.9h7.6
		l0-9.1c7.5,0.7,14,4.4,18.6,9.8l0.3,0.4l-7.7,4.4l3.8,6.6l7.9-4.6c1.6,3.5,2.4,7.4,2.4,11.5C174.3,142,173.7,145.2,172.6,148.2z
		 M375.2,148.2l-0.1,0.2l-7.7-4.4l-3.8,6.6l7.8,4.6c-4.3,5.9-10.7,10.2-18.2,11.4l0.1-9.1l-7.6,0l0,9.1c-7.4-0.8-14.2-4.6-18.7-10
		l-0.1-0.2l7.7-4.4l-3.8-6.6l-7.9,4.5c-1.5-3.4-2.4-7.5-2.4-11.4c0-3.5,0.6-6.8,1.8-9.8l7.7,4.4l3.8-6.6l-7.9-4.6
		c4.2-5.8,10.6-9.9,18-11.2l0.2,0v8.9h7.6l0-9.1c7.5,0.7,14,4.4,18.6,9.8l0.3,0.4l-7.7,4.4l3.8,6.6l7.9-4.6
		c1.6,3.5,2.4,7.4,2.4,11.5C376.9,142,376.3,145.2,375.2,148.2z"/>
	<path fill="#F1F1F2" stroke="#231F20" stroke-width="0.5084" d="M351.6,98.7H141.1c-22.2,0-40.3,18-40.3,40.3
		c0,22.2,18,40.3,40.3,40.3h210.5c22.2,0,40.3-18,40.3-40.3C391.9,116.7,373.8,98.7,351.6,98.7z M172.6,148.2l-0.1,0.2l-7.7-4.4
		l-3.8,6.6l7.8,4.6c-4.3,5.9-10.7,10.2-18.2,11.4l0.1-9.1l-7.6,0l0,9.1c-7.4-0.8-14.2-4.6-18.7-10l-0.1-0.2l7.7-4.4l-3.8-6.6
		l-7.9,4.5c-1.5-3.4-2.4-7.5-2.4-11.4c0-3.5,0.6-6.8,1.8-9.8l7.7,4.4l3.8-6.6l-7.9-4.6c4.2-5.8,10.6-9.9,18-11.2l0.2,0v8.9h7.6
		l0-9.1c7.5,0.7,14,4.4,18.6,9.8l0.3,0.4l-7.7,4.4l3.8,6.6l7.9-4.6c1.6,3.5,2.4,7.4,2.4,11.5C174.3,142,173.7,145.2,172.6,148.2z
		 M375.2,148.2l-0.1,0.2l-7.7-4.4l-3.8,6.6l7.8,4.6c-4.3,5.9-10.7,10.2-18.2,11.4l0.1-9.1l-7.6,0l0,9.1c-7.4-0.8-14.2-4.6-18.7-10
		l-0.1-0.2l7.7-4.4l-3.8-6.6l-7.9,4.5c-1.5-3.4-2.4-7.5-2.4-11.4c0-3.5,0.6-6.8,1.8-9.8l7.7,4.4l3.8-6.6l-7.9-4.6
		c4.2-5.8,10.6-9.9,18-11.2l0.2,0v8.9h7.6l0-9.1c7.5,0.7,14,4.4,18.6,9.8l0.3,0.4l-7.7,4.4l3.8,6.6l7.9-4.6
		c1.6,3.5,2.4,7.4,2.4,11.5C376.9,142,376.3,145.2,375.2,148.2z"/>
	<path fill="none" stroke="#231F20" stroke-width="3.0507" d="M489.9,220.4h-5.4V13.2c0-6.4-5.2-11.6-11.6-11.6H21
		c-6.4,0-11.6,5.2-11.6,11.6v207.2H4.8c-1.8,0-3.3,1.5-3.3,3.3v55.6c0,1.8,1.5,3.3,3.3,3.3h4.6v10.6c0,6.4,7.7,10.6,14.1,10.6h449.3
		c6.4,0,11.6-5.2,11.6-11.6l-0.2-9.5h5.6c1.8,0,3.3-1.5,3.3-3.3v-55.6C493.2,221.9,491.7,220.4,489.9,220.4z"/>
	<polyline fill="none" stroke="#231F20" stroke-width="1.5253" points="413.5,303 396.4,230.7 253.2,230.7 242.8,230.7 99.5,230.7 
		82.5,303 	"/>
	<polygon fill="none" stroke="#231F20" stroke-width="0.5084" points="250.1,218.7 460,218.7 460,44.1 441.1,25.2 255.9,25.2 
		239.9,25.2 54.7,25.2 35.8,44.1 35.8,218.7 245.7,218.7 	"/>
	<line fill="none" stroke="#231F20" stroke-width="0.5084" x1="9" y1="219.5" x2="9" y2="281.8"/>
	<line fill="none" stroke="#231F20" stroke-width="0.5084" x1="13.6" y1="219.5" x2="13.6" y2="281.8"/>
	<line fill="none" stroke="#231F20" stroke-width="0.5084" x1="480.3" y1="219.5" x2="480.3" y2="281.8"/>
	<line fill="none" stroke="#231F20" stroke-width="0.5084" x1="484.9" y1="219.5" x2="484.9" y2="281.8"/>
	<g>
		<path fill="#D0D2D3" stroke="#231F20" stroke-width="0.5084" d="M146,105.8c-18.1,0-32.8,14.7-32.8,32.8
			c0,18.1,14.7,32.8,32.8,32.8c18.1,0,32.8-14.7,32.8-32.8C178.8,120.4,164.2,105.8,146,105.8z M174.3,138.6c0,3.4-0.6,6.6-1.7,9.6
			l-0.1,0.2l-7.7-4.4l-3.8,6.6l7.8,4.6c-4.3,5.9-10.7,10.2-18.2,11.4l0.1-9.1l-7.6,0l0,9.1c-7.4-0.8-14.2-4.6-18.7-10l-0.1-0.2
			l7.7-4.4l-3.8-6.6l-7.9,4.5c-1.5-3.4-2.4-7.5-2.4-11.4c0-3.5,0.6-6.8,1.8-9.8l7.7,4.4l3.8-6.6l-7.9-4.6c4.2-5.8,10.6-9.9,18-11.2
			l0.2,0v8.9h7.6l0-9.1c7.5,0.7,14,4.4,18.6,9.8l0.3,0.4l-7.7,4.4l3.8,6.6l7.9-4.6C173.4,130.6,174.3,134.5,174.3,138.6z"/>
		<path fill="#D0D2D3" stroke="#231F20" stroke-width="0.5084" d="M348.7,105.8c-18.1,0-32.8,14.7-32.8,32.8
			c0,18.1,14.7,32.8,32.8,32.8c18.1,0,32.8-14.7,32.8-32.8C381.5,120.4,366.8,105.8,348.7,105.8z M375.1,148.5l-7.7-4.4l-3.8,6.6
			l7.8,4.6c-4.3,5.9-10.7,10.2-18.2,11.4l0.1-9.1l-7.6,0l0,9.1c-7.4-0.8-14.2-4.6-18.7-10l-0.1-0.2l7.7-4.4l-3.8-6.6l-7.9,4.5
			c-1.5-3.4-2.4-7.5-2.4-11.4c0-3.5,0.6-6.8,1.8-9.8l7.7,4.4l3.8-6.6l-7.9-4.6c4.2-5.8,10.6-9.9,18-11.2l0.2,0v8.9h7.6l0-9.1
			c7.5,0.7,14,4.4,18.6,9.8l0.3,0.4l-7.7,4.4l3.8,6.6l7.9-4.6c1.6,3.5,2.4,7.4,2.4,11.5c0,3.4-0.6,6.6-1.7,9.6L375.1,148.5z"/>
	</g>
	<g>
		<defs>
			<polygon id="SVGID_1_" points="413.5,303 396.4,230.7 253.2,230.7 242.8,230.7 99.5,230.7 82.5,303 			"/>
		</defs>
		<clipPath id="SVGID_2_">
			<use xlink:href="#SVGID_1_"  overflow="visible"/>
		</clipPath>
		<g clip-path="url(#SVGID_2_)">
			<line fill="none" stroke="#231F20" stroke-width="0.5084" x1="80.8" y1="235.7" x2="418" y2="235.7"/>
			<line fill="none" stroke="#231F20" stroke-width="0.5084" x1="80.8" y1="239.1" x2="418" y2="239.1"/>
			<line fill="none" stroke="#231F20" stroke-width="0.5084" x1="80.8" y1="242.4" x2="418" y2="242.4"/>
			<line fill="none" stroke="#231F20" stroke-width="0.5084" x1="80.8" y1="245.7" x2="418" y2="245.7"/>
			<line fill="none" stroke="#231F20" stroke-width="0.5084" x1="80.8" y1="249" x2="418" y2="249"/>
			<line fill="none" stroke="#231F20" stroke-width="0.5084" x1="80.8" y1="252.3" x2="418" y2="252.3"/>
			<line fill="none" stroke="#231F20" stroke-width="0.5084" x1="80.8" y1="255.7" x2="418" y2="255.7"/>
			<line fill="none" stroke="#231F20" stroke-width="0.5084" x1="80.8" y1="259" x2="418" y2="259"/>
			<line fill="none" stroke="#231F20" stroke-width="0.5084" x1="80.8" y1="262.3" x2="418" y2="262.3"/>
			<line fill="none" stroke="#231F20" stroke-width="0.5084" x1="80.8" y1="265.6" x2="418" y2="265.6"/>
			<line fill="none" stroke="#231F20" stroke-width="0.5084" x1="80.8" y1="269" x2="418" y2="269"/>
			<line fill="none" stroke="#231F20" stroke-width="0.5084" x1="80.8" y1="272.3" x2="418" y2="272.3"/>
			<line fill="none" stroke="#231F20" stroke-width="0.5084" x1="80.8" y1="275.6" x2="418" y2="275.6"/>
			<line fill="none" stroke="#231F20" stroke-width="0.5084" x1="80.8" y1="278.9" x2="418" y2="278.9"/>
			<line fill="none" stroke="#231F20" stroke-width="0.5084" x1="80.8" y1="282.2" x2="418" y2="282.2"/>
			<line fill="none" stroke="#231F20" stroke-width="0.5084" x1="80.8" y1="285.6" x2="418" y2="285.6"/>
			<line fill="none" stroke="#231F20" stroke-width="0.5084" x1="80.8" y1="288.9" x2="418" y2="288.9"/>
			<line fill="none" stroke="#231F20" stroke-width="0.5084" x1="80.8" y1="292.2" x2="418" y2="292.2"/>
			<line fill="none" stroke="#231F20" stroke-width="0.5084" x1="80.8" y1="295.5" x2="418" y2="295.5"/>
		</g>
	</g>
	<rect x="192.7" y="108.4" fill="#D0D2D3" stroke="#231F20" stroke-width="0.5084" width="108.5" height="57.6"/>
	<rect x="196" y="112.3" fill="none" stroke="#231F20" stroke-width="0.5084" width="101.9" height="49.8"/>
	<path fill="none" stroke="#231F20" stroke-width="0.5084" d="M273.5,138.3c0,8.7,1.8,16.8,5.1,23.8h19.3v-49.8h-18.2
		C275.8,119.7,273.5,128.7,273.5,138.3z"/>
	<path fill="none" stroke="#231F20" stroke-width="0.5084" d="M196,162.1h55.9c3.2-7,5.1-15.1,5.1-23.8c0-9.6-2.3-18.5-6.1-26H196
		V162.1z"/>
	<line fill="none" stroke="#231F20" stroke-width="0.5084" x1="60.4" y1="76.3" x2="435.2" y2="76.3"/>
	<line fill="none" stroke="#231F20" stroke-width="0.5084" x1="80.8" y1="298.8" x2="418" y2="298.8"/>
	<path fill="#D0D2D3" stroke="#231F20" stroke-width="0.5084" d="M143.1,285.6c0,5.5-4.5,10-10,10c-5.5,0-10-4.5-10-10
		c0-5.5,4.5-10,10-10C138.7,275.6,143.1,280.1,143.1,285.6z"/>
	<circle fill="#D0D2D3" stroke="#231F20" stroke-width="0.5084" cx="181.3" cy="278.1" r="10"/>
	<path fill="#D0D2D3" stroke="#231F20" stroke-width="0.5084" d="M352.8,285.6c0,5.5,4.5,10,10,10c5.5,0,10-4.5,10-10
		c0-5.5-4.5-10-10-10C357.3,275.6,352.8,280.1,352.8,285.6z"/>
	<path fill="#D0D2D3" stroke="#231F20" stroke-width="0.5084" d="M304.7,278.1c0,5.5,4.5,10,10,10c5.5,0,10-4.5,10-10
		c0-5.5-4.5-10-10-10C309.1,268.1,304.7,272.6,304.7,278.1z"/>
</g>
</svg>
