<?xml version="1.0" encoding="utf-8"?>
<!-- Generator: Adobe Illustrator 17.1.0, SVG Export Plug-In . SVG Version: 6.00 Build 0)  -->
<!DOCTYPE svg PUBLIC "-//W3C//DTD SVG 1.1//EN" "http://www.w3.org/Graphics/SVG/1.1/DTD/svg11.dtd">
<svg version="1.1" id="Layer_1" xmlns="http://www.w3.org/2000/svg" xmlns:xlink="http://www.w3.org/1999/xlink" x="0px" y="0px"
	 viewBox="0 0 494.7 305.4" enable-background="new 0 0 494.7 305.4" xml:space="preserve">
<path fill="none" stroke="#231F20" stroke-width="0.5084" d="M116.7,156.1l0.1-0.3l4-7.5c4.8-6.5,11.8-11.3,20.1-12.6l8.3-0.1
	c8.2,0.9,15.7,5,20.7,11l0.1,0.2l4.4,7.2c1.6,3.8,2.7,8.2,2.7,12.6c0,3.8-0.7,7.5-2,10.9l-4,7.5c-4.7,6.4-11.7,11-19.9,12.4l-0.2,0
	l-8.3,0.3c-8.3-0.8-15.4-4.8-20.6-10.8l-0.3-0.4l-4.4-7.1c-1.7-3.9-2.7-8.2-2.7-12.7C114.9,163.1,115.5,159.5,116.7,156.1z"/>
<path fill="#303030" d="M4.8,85h5.4v207.2c0,6.4,5.2,11.6,11.6,11.6h451.8c6.4,0,11.6-5.2,11.6-11.6V85h4.6c1.8,0,3.3-1.5,3.3-3.3
	V26c0-1.8-1.5-3.3-3.3-3.3h-4.6V12.1c0-6.4-7.7-10.6-14.1-10.6H21.9c-6.4,0-11.6,5.2-11.6,11.6l0.2,9.5H4.8c-1.8,0-3.3,1.5-3.3,3.3
	v55.6C1.5,83.5,3,85,4.8,85z M319.4,156.1l0.1-0.3l4-7.5c4.8-6.5,11.8-11.3,20.1-12.6l8.3-0.1c8.2,0.9,15.7,5,20.7,11l0.1,0.2
	l4.4,7.2c1.6,3.8,2.7,8.2,2.7,12.6c0,3.8-0.7,7.5-1.9,10.9l-4,7.5c-4.7,6.4-11.7,11-19.9,12.4l-0.2,0l-8.3,0.3
	c-8.3-0.8-15.4-4.8-20.5-10.8l-0.3-0.4l-4.4-7.1c-1.7-3.9-2.7-8.2-2.7-12.7C317.5,163.1,318.2,159.5,319.4,156.1z M116.7,156.1
	l0.1-0.3l4-7.5c4.8-6.5,11.8-11.3,20.1-12.6l8.3-0.1c8.2,0.9,15.7,5,20.7,11l0.1,0.2l4.4,7.2c1.6,3.8,2.7,8.2,2.7,12.6
	c0,3.8-0.7,7.5-2,10.9l-4,7.5c-4.7,6.4-11.7,11-19.9,12.4l-0.2,0l-8.3,0.3c-8.3-0.8-15.4-4.8-20.6-10.8l-0.3-0.4l-4.4-7.1
	c-1.7-3.9-2.7-8.2-2.7-12.7C114.9,163.1,115.5,159.5,116.7,156.1z"/>
<path fill="#F9F9F9" stroke="#231F20" stroke-width="0.5084" d="M51,283.5h187.7h16.2h187.7l19.2-19.5V83.3H249h-4.4H31.8v180.6
	L51,283.5z M319.4,156.1l0.1-0.3l4-7.5c4.8-6.5,11.8-11.3,20.1-12.6l8.3-0.1c8.2,0.9,15.7,5,20.7,11l0.1,0.2l4.4,7.2
	c1.6,3.8,2.7,8.2,2.7,12.6c0,3.8-0.7,7.5-1.9,10.9l-4,7.5c-4.7,6.4-11.7,11-19.9,12.4l-0.2,0l-8.3,0.3c-8.3-0.8-15.4-4.8-20.5-10.8
	l-0.3-0.4l-4.4-7.1c-1.7-3.9-2.7-8.2-2.7-12.7C317.5,163.1,318.2,159.5,319.4,156.1z M116.7,156.1l0.1-0.3l4-7.5
	c4.8-6.5,11.8-11.3,20.1-12.6l8.3-0.1c8.2,0.9,15.7,5,20.7,11l0.1,0.2l4.4,7.2c1.6,3.8,2.7,8.2,2.7,12.6c0,3.8-0.7,7.5-2,10.9
	l-4,7.5c-4.7,6.4-11.7,11-19.9,12.4l-0.2,0l-8.3,0.3c-8.3-0.8-15.4-4.8-20.6-10.8l-0.3-0.4l-4.4-7.1c-1.7-3.9-2.7-8.2-2.7-12.7
	C114.9,163.1,115.5,159.5,116.7,156.1z"/>
<path fill="#4FB3DB" stroke="#231F20" stroke-width="0.5084" d="M447.5,216.6v-120H45.1v120H447.5z M319.4,156.1l0.1-0.3l4-7.5
	c4.8-6.5,11.8-11.3,20.1-12.6l8.3-0.1c8.2,0.9,15.7,5,20.7,11l0.1,0.2l4.4,7.2c1.6,3.8,2.7,8.2,2.7,12.6c0,3.8-0.7,7.5-1.9,10.9
	l-4,7.5c-4.7,6.4-11.7,11-19.9,12.4l-0.2,0l-8.3,0.3c-8.3-0.8-15.4-4.8-20.5-10.8l-0.3-0.4l-4.4-7.1c-1.7-3.9-2.7-8.2-2.7-12.7
	C317.5,163.1,318.2,159.5,319.4,156.1z M116.7,156.1l0.1-0.3l4-7.5c4.8-6.5,11.8-11.3,20.1-12.6l8.3-0.1c8.2,0.9,15.7,5,20.7,11
	l0.1,0.2l4.4,7.2c1.6,3.8,2.7,8.2,2.7,12.6c0,3.8-0.7,7.5-2,10.9l-4,7.5c-4.7,6.4-11.7,11-19.9,12.4l-0.2,0l-8.3,0.3
	c-8.3-0.8-15.4-4.8-20.6-10.8l-0.3-0.4l-4.4-7.1c-1.7-3.9-2.7-8.2-2.7-12.7C114.9,163.1,115.5,159.5,116.7,156.1z"/>
<path fill="#F1F1F2" stroke="#231F20" stroke-width="0.5084" d="M143.1,206.7h210.5c22.2,0,40.3-18,40.3-40.3
	c0-22.2-18-40.3-40.3-40.3H143.1c-22.2,0-40.3,18-40.3,40.3C102.9,188.6,120.9,206.7,143.1,206.7z M319.4,156.1l0.1-0.3l4-7.5
	c4.8-6.5,11.8-11.3,20.1-12.6l8.3-0.1c8.2,0.9,15.7,5,20.7,11l0.1,0.2l4.4,7.2c1.6,3.8,2.7,8.2,2.7,12.6c0,3.8-0.7,7.5-1.9,10.9
	l-4,7.5c-4.7,6.4-11.7,11-19.9,12.4l-0.2,0l-8.3,0.3c-8.3-0.8-15.4-4.8-20.5-10.8l-0.3-0.4l-4.4-7.1c-1.7-3.9-2.7-8.2-2.7-12.7
	C317.5,163.1,318.2,159.5,319.4,156.1z M116.7,156.1l0.1-0.3l4-7.5c4.8-6.5,11.8-11.3,20.1-12.6l8.3-0.1c8.2,0.9,15.7,5,20.7,11
	l0.1,0.2l4.4,7.2c1.6,3.8,2.7,8.2,2.7,12.6c0,3.8-0.7,7.5-2,10.9l-4,7.5c-4.7,6.4-11.7,11-19.9,12.4l-0.2,0l-8.3,0.3
	c-8.3-0.8-15.4-4.8-20.6-10.8l-0.3-0.4l-4.4-7.1c-1.7-3.9-2.7-8.2-2.7-12.7C114.9,163.1,115.5,159.5,116.7,156.1z"/>
<path fill="none" stroke="#231F20" stroke-width="3.0507" d="M4.8,85h5.4v207.2c0,6.4,5.2,11.6,11.6,11.6h451.8
	c6.4,0,11.6-5.2,11.6-11.6V85h4.6c1.8,0,3.3-1.5,3.3-3.3V26c0-1.8-1.5-3.3-3.3-3.3h-4.6V12.1c0-6.4-7.7-10.6-14.1-10.6H21.9
	c-6.4,0-11.6,5.2-11.6,11.6l0.2,9.5H4.8c-1.8,0-3.3,1.5-3.3,3.3v55.6C1.5,83.5,3,85,4.8,85z"/>
<polyline fill="none" stroke="#231F20" stroke-width="1.5253" points="81.3,2.4 98.3,74.6 241.5,74.6 251.9,74.6 395.2,74.6 
	412.2,2.4 "/>
<polygon fill="none" stroke="#231F20" stroke-width="0.5084" points="244.6,86.7 34.7,86.7 34.7,261.3 53.6,280.2 238.8,280.2 
	254.8,280.2 440,280.2 458.9,261.3 458.9,86.7 249,86.7 "/>
<line fill="none" stroke="#231F20" stroke-width="0.5084" x1="485.7" y1="85.8" x2="485.7" y2="23.5"/>
<line fill="none" stroke="#231F20" stroke-width="0.5084" x1="481.1" y1="85.8" x2="481.1" y2="23.5"/>
<line fill="none" stroke="#231F20" stroke-width="0.5084" x1="14.4" y1="85.8" x2="14.4" y2="23.5"/>
<line fill="none" stroke="#231F20" stroke-width="0.5084" x1="9.8" y1="85.8" x2="9.8" y2="23.5"/>
<path id="rightGear" fill="#D0D2D3" stroke="#231F20" stroke-width="0.5084" d="M348.7,199.6c18.1,0,32.8-14.7,32.8-32.8
	c0-18.1-14.7-32.8-32.8-32.8c-18.1,0-32.8,14.7-32.8,32.8C315.9,184.9,330.6,199.6,348.7,199.6z M320.4,166.8c0-3.4,0.6-6.6,1.7-9.6
	l0.1-0.2l7.7,4.4l3.8-6.6l-7.8-4.6c4.3-5.9,10.7-10.2,18.2-11.4l-0.1,9.1l7.6,0l0-9.1c7.4,0.8,14.2,4.6,18.7,10l0.1,0.2l-7.7,4.4
	l3.8,6.6l7.9-4.5c1.5,3.4,2.4,7.5,2.4,11.4c0,3.5-0.6,6.8-1.8,9.8l-7.7-4.4l-3.8,6.6l7.9,4.6c-4.2,5.8-10.6,9.9-18,11.2l-0.2,0v-8.9
	h-7.6l0,9.1c-7.5-0.7-14-4.4-18.6-9.8l-0.3-0.4l7.7-4.4l-3.8-6.6l-7.9,4.6C321.3,174.8,320.4,170.9,320.4,166.8z"/>
<path id="leftGear" fill="#D0D2D3" stroke="#231F20" stroke-width="0.5084" d="M146,199.6c18.1,0,32.8-14.7,32.8-32.8
	c0-18.1-14.7-32.8-32.8-32.8c-18.1,0-32.8,14.7-32.8,32.8C113.2,184.9,127.9,199.6,146,199.6z M119.6,156.9l7.7,4.4l3.8-6.6
	l-7.8-4.6c4.3-5.9,10.7-10.2,18.2-11.4l-0.1,9.1l7.6,0l0-9.1c7.4,0.8,14.2,4.6,18.7,10l0.1,0.2l-7.7,4.4l3.8,6.6l7.9-4.5
	c1.5,3.4,2.4,7.5,2.4,11.4c0,3.5-0.6,6.8-1.8,9.8l-7.7-4.4l-3.8,6.6l7.9,4.6c-4.2,5.8-10.6,9.9-18,11.2l-0.2,0v-8.9h-7.6l0,9.1
	c-7.5-0.7-14-4.4-18.6-9.8l-0.3-0.4l7.7-4.4l-3.8-6.6l-7.9,4.6c-1.6-3.5-2.4-7.4-2.4-11.5c0-3.4,0.6-6.6,1.7-9.6L119.6,156.9z"/>
<g>
	<defs>
		<polygon id="SVGID_1_" points="81.3,2.4 98.3,74.6 241.5,74.6 251.9,74.6 395.2,74.6 412.2,2.4 		"/>
	</defs>
	<clipPath id="SVGID_2_">
		<use xlink:href="#SVGID_1_"  overflow="visible"/>
	</clipPath>
	<g clip-path="url(#SVGID_2_)">
		<line fill="none" stroke="#231F20" stroke-width="0.5084" x1="413.9" y1="69.6" x2="76.7" y2="69.6"/>
		<line fill="none" stroke="#231F20" stroke-width="0.5084" x1="413.9" y1="66.3" x2="76.7" y2="66.3"/>
		<line fill="none" stroke="#231F20" stroke-width="0.5084" x1="413.9" y1="63" x2="76.7" y2="63"/>
		<line fill="none" stroke="#231F20" stroke-width="0.5084" x1="413.9" y1="59.7" x2="76.7" y2="59.7"/>
		<line fill="none" stroke="#231F20" stroke-width="0.5084" x1="413.9" y1="56.3" x2="76.7" y2="56.3"/>
		<line fill="none" stroke="#231F20" stroke-width="0.5084" x1="413.9" y1="53" x2="76.7" y2="53"/>
		<line fill="none" stroke="#231F20" stroke-width="0.5084" x1="413.9" y1="49.7" x2="76.7" y2="49.7"/>
		<line fill="none" stroke="#231F20" stroke-width="0.5084" x1="413.9" y1="46.4" x2="76.7" y2="46.4"/>
		<line fill="none" stroke="#231F20" stroke-width="0.5084" x1="413.9" y1="43.1" x2="76.7" y2="43.1"/>
		<line fill="none" stroke="#231F20" stroke-width="0.5084" x1="413.9" y1="39.7" x2="76.7" y2="39.7"/>
		<line fill="none" stroke="#231F20" stroke-width="0.5084" x1="413.9" y1="36.4" x2="76.7" y2="36.4"/>
		<line fill="none" stroke="#231F20" stroke-width="0.5084" x1="413.9" y1="33.1" x2="76.7" y2="33.1"/>
		<line fill="none" stroke="#231F20" stroke-width="0.5084" x1="413.9" y1="29.8" x2="76.7" y2="29.8"/>
		<line fill="none" stroke="#231F20" stroke-width="0.5084" x1="413.9" y1="26.4" x2="76.7" y2="26.4"/>
		<line fill="none" stroke="#231F20" stroke-width="0.5084" x1="413.9" y1="23.1" x2="76.7" y2="23.1"/>
		<line fill="none" stroke="#231F20" stroke-width="0.5084" x1="413.9" y1="19.8" x2="76.7" y2="19.8"/>
		<line fill="none" stroke="#231F20" stroke-width="0.5084" x1="413.9" y1="16.5" x2="76.7" y2="16.5"/>
		<line fill="none" stroke="#231F20" stroke-width="0.5084" x1="413.9" y1="13.2" x2="76.7" y2="13.2"/>
		<line fill="none" stroke="#231F20" stroke-width="0.5084" x1="413.9" y1="9.8" x2="76.7" y2="9.8"/>
	</g>
</g>
<rect x="193.5" y="139.4" fill="#D0D2D3" stroke="#231F20" stroke-width="0.5084" width="108.5" height="57.6"/>
<rect x="196.8" y="143.3" fill="none" stroke="#231F20" stroke-width="0.5084" width="101.9" height="49.8"/>
<path id="leftTape" fill="none" stroke="#231F20" stroke-width="0.5084" d="M196.8,143.3c0,0,12.7,23.5,0.2,49.8"/>
<line fill="none" stroke="#231F20" stroke-width="0.5084" x1="434.4" y1="229.1" x2="59.5" y2="229.1"/>
<line fill="none" stroke="#231F20" stroke-width="0.5084" x1="434.4" y1="247.1" x2="59.5" y2="247.1"/>
<line fill="none" stroke="#231F20" stroke-width="0.5084" x1="434.4" y1="265.1" x2="59.5" y2="265.1"/>
<line fill="none" stroke="#231F20" stroke-width="0.5084" x1="413.9" y1="6.5" x2="76.7" y2="6.5"/>
<path fill="#D0D2D3" stroke="#231F20" stroke-width="0.5084" d="M351.6,19.8c0-5.5,4.5-10,10-10c5.5,0,10,4.5,10,10
	c0,5.5-4.5,10-10,10C356.1,29.8,351.6,25.3,351.6,19.8z"/>
<circle fill="#D0D2D3" stroke="#231F20" stroke-width="0.5084" cx="313.4" cy="27.3" r="10"/>
<path fill="#D0D2D3" stroke="#231F20" stroke-width="0.5084" d="M141.9,19.8c0-5.5-4.5-10-10-10c-5.5,0-10,4.5-10,10
	c0,5.5,4.5,10,10,10C137.4,29.8,141.9,25.3,141.9,19.8z"/>
<path fill="#D0D2D3" stroke="#231F20" stroke-width="0.5084" d="M190.1,27.3c0-5.5-4.5-10-10-10c-5.5,0-10,4.5-10,10s4.5,10,10,10
	C185.6,37.2,190.1,32.8,190.1,27.3z"/>
<path id="rightTape" fill="none" stroke="#231F20" stroke-width="0.5084" d="M258.7,193.1c0,0-12.5-23.5,0-49.8"/>
<text transform="matrix(1 0 0 1 126.0394 264.3034)" fill="#6666CC" font-family="'Notethis'" font-size="24">Scroll to rewind the tape</text>
</svg>
