<?xml version="1.0" encoding="utf-8"?>
<!-- Generator: Adobe Illustrator 17.1.0, SVG Export Plug-In . SVG Version: 6.00 Build 0)  -->
<!DOCTYPE svg PUBLIC "-//W3C//DTD SVG 1.1//EN" "http://www.w3.org/Graphics/SVG/1.1/DTD/svg11.dtd">
<svg version="1.1" id="Recorder" xmlns="http://www.w3.org/2000/svg" xmlns:xlink="http://www.w3.org/1999/xlink" x="0px" y="0px"
	 viewBox="0 0 325.2 488.3" enable-background="new 0 0 325.2 488.3" xml:space="preserve">
<path fill="#323232" d="M325.2,463.5c0,8.6-7,15.6-15.6,15.6H15.6c-8.6,0-15.6-7-15.6-15.6V15.6C0,7,7,0,15.6,0h293.8
	C318,0,325,7,325,15.6C325.2,15.6,325.2,463.5,325.2,463.5z"/>
<linearGradient id="SVGID_1_" gradientUnits="userSpaceOnUse" x1="-683.3292" y1="419.0446" x2="1027.1348" y2="419.0446" gradientTransform="matrix(0.1681 0 0 0.1681 133.606 -1.2937)">
	<stop  offset="0" style="stop-color:#000000"/>
	<stop  offset="0.1224" style="stop-color:#FFFFFF"/>
	<stop  offset="0.2152" style="stop-color:#CCCCCC"/>
	<stop  offset="0.2966" style="stop-color:#A6A6A6"/>
	<stop  offset="0.3619" style="stop-color:#8F8F8F"/>
	<stop  offset="0.4031" style="stop-color:#878787"/>
	<stop  offset="0.4449" style="stop-color:#A7A7A7"/>
	<stop  offset="0.4909" style="stop-color:#C3C3C3"/>
	<stop  offset="0.5313" style="stop-color:#D4D4D4"/>
	<stop  offset="0.5612" style="stop-color:#DADADA"/>
	<stop  offset="0.5935" style="stop-color:#D6D6D6;stop-opacity:0.892"/>
	<stop  offset="0.6259" style="stop-color:#CACACA;stop-opacity:0.7834"/>
	<stop  offset="0.6585" style="stop-color:#B6B6B6;stop-opacity:0.6746"/>
	<stop  offset="0.6911" style="stop-color:#999999;stop-opacity:0.5655"/>
	<stop  offset="0.7237" style="stop-color:#757575;stop-opacity:0.4563"/>
	<stop  offset="0.756" style="stop-color:#494949;stop-opacity:0.3483"/>
	<stop  offset="0.7704" style="stop-color:#333333;stop-opacity:0.3"/>
	<stop  offset="0.7716" style="stop-color:#363636;stop-opacity:0.3049"/>
	<stop  offset="0.7884" style="stop-color:#5C5C5C;stop-opacity:0.3726"/>
	<stop  offset="0.8064" style="stop-color:#7D7D7D;stop-opacity:0.4452"/>
	<stop  offset="0.8257" style="stop-color:#989898;stop-opacity:0.5231"/>
	<stop  offset="0.8467" style="stop-color:#ACACAC;stop-opacity:0.608"/>
	<stop  offset="0.8703" style="stop-color:#BBBBBB;stop-opacity:0.7032"/>
	<stop  offset="0.8986" style="stop-color:#C3C3C3;stop-opacity:0.8172"/>
	<stop  offset="0.9439" style="stop-color:#C6C6C6"/>
</linearGradient>
<path fill="url(#SVGID_1_)" d="M306.3,124.4V29.7c0-8.8-7-15.8-15.8-15.8H34.6c-8.8,0-15.8,7-15.8,15.8v94.7H306.3z"/>
<g id="recorderPlaceholder">
	<path d="M34.4,306.6c-7.4,0-13.5-6.1-13.5-13.5V153.9c0-7.4,6.1-13.5,13.5-13.5h256.3c7.4,0,13.5,6.1,13.5,13.5v139.5
		c0,7.4-6.1,13.5-13.5,13.5H34.4V306.6z"/>
	<path fill="#C8C8C8" d="M290.6,142.6c6.3,0,11.3,5.1,11.3,11.3v139.5c0,6.3-5.1,11.3-11.3,11.3H34.4c-6.3,0-11.3-5.1-11.3-11.3
		V153.7c0-6.3,5.1-11.3,11.3-11.3h256.3 M290.6,138.3H34.4c-8.6,0-15.6,7-15.6,15.6v139.5c0,8.6,7,15.6,15.6,15.6h256.3
		c8.6,0,15.6-7,15.6-15.6V153.7C306.3,145.1,299.2,138.3,290.6,138.3L290.6,138.3z"/>
</g>
<linearGradient id="SVGID_2_" gradientUnits="userSpaceOnUse" x1="-683.3292" y1="2583.8506" x2="1028.2968" y2="2583.8506" gradientTransform="matrix(0.1681 0 0 0.1681 133.606 -1.2937)">
	<stop  offset="0" style="stop-color:#000000"/>
	<stop  offset="0.1224" style="stop-color:#FFFFFF"/>
	<stop  offset="0.2152" style="stop-color:#CCCCCC"/>
	<stop  offset="0.2966" style="stop-color:#A6A6A6"/>
	<stop  offset="0.3619" style="stop-color:#8F8F8F"/>
	<stop  offset="0.4031" style="stop-color:#878787"/>
	<stop  offset="0.4449" style="stop-color:#A7A7A7"/>
	<stop  offset="0.4909" style="stop-color:#C3C3C3"/>
	<stop  offset="0.5313" style="stop-color:#D4D4D4"/>
	<stop  offset="0.5612" style="stop-color:#DADADA"/>
	<stop  offset="0.5935" style="stop-color:#D6D6D6;stop-opacity:0.892"/>
	<stop  offset="0.6259" style="stop-color:#CACACA;stop-opacity:0.7834"/>
	<stop  offset="0.6585" style="stop-color:#B6B6B6;stop-opacity:0.6746"/>
	<stop  offset="0.6911" style="stop-color:#999999;stop-opacity:0.5655"/>
	<stop  offset="0.7237" style="stop-color:#757575;stop-opacity:0.4563"/>
	<stop  offset="0.756" style="stop-color:#494949;stop-opacity:0.3483"/>
	<stop  offset="0.7704" style="stop-color:#333333;stop-opacity:0.3"/>
	<stop  offset="0.7716" style="stop-color:#363636;stop-opacity:0.3049"/>
	<stop  offset="0.7884" style="stop-color:#5C5C5C;stop-opacity:0.3726"/>
	<stop  offset="0.8064" style="stop-color:#7D7D7D;stop-opacity:0.4452"/>
	<stop  offset="0.8257" style="stop-color:#989898;stop-opacity:0.5231"/>
	<stop  offset="0.8467" style="stop-color:#ACACAC;stop-opacity:0.608"/>
	<stop  offset="0.8703" style="stop-color:#BBBBBB;stop-opacity:0.7032"/>
	<stop  offset="0.8986" style="stop-color:#C3C3C3;stop-opacity:0.8172"/>
	<stop  offset="0.9439" style="stop-color:#C6C6C6"/>
</linearGradient>
<path fill="url(#SVGID_2_)" d="M18.8,398.4v55.7c0,7.4,7,13.5,15.8,13.5h256.1c8.8,0,15.8-6.1,15.8-13.5v-55.7
	C306.3,398.4,18.8,398.4,18.8,398.4z"/>
<g id="groupRec">
	<rect x="29.5" y="418.6" fill="#8A0602" stroke="#0C0C0C" stroke-miterlimit="10" width="43.6" height="69.7"/>
	<circle fill="#FFFFFF" cx="51.4" cy="453.5" r="10.5"/>
</g>
<g id="groupStop">
	<rect x="160.2" y="418.6" fill="#2D2D2D" stroke="#0C0C0C" stroke-miterlimit="10" width="43.6" height="69.7"/>
	<rect x="171.5" y="443" fill="#FFFFFF" width="20.9" height="20.9"/>
</g>
<g id="groupPlay">
	<rect x="116.6" y="418.6" fill="#2D2D2D" stroke="#0C0C0C" stroke-miterlimit="10" width="43.6" height="69.7"/>
	<polygon fill="#FFFFFF" points="129.5,443 129.5,453.5 129.5,463.9 147.5,453.5 	"/>
</g>
<g id="groupForward">
	<rect x="203.7" y="418.6" fill="#2D2D2D" stroke="#0C0C0C" stroke-miterlimit="10" width="43.6" height="69.7"/>
	<g>
		<polygon fill="#FFFFFF" points="212.3,443 212.3,453.5 212.3,463.9 230.3,453.5 		"/>
		<polygon fill="#FFFFFF" points="220.9,443 220.9,453.5 220.9,463.9 238.9,453.5 		"/>
	</g>
</g>
<g id="groupBack">
	<rect x="73" y="418.6" fill="#2D2D2D" stroke="#0C0C0C" stroke-miterlimit="10" width="43.6" height="69.7"/>
	<g>
		<polygon fill="#FFFFFF" points="108.2,463.9 108.2,453.5 108.2,443 90.2,453.5 		"/>
		<polygon fill="#FFFFFF" points="99.6,463.9 99.6,453.5 99.6,443 81.6,453.5 		"/>
	</g>
</g>
<g id="groupEject">
	<rect x="247.3" y="418.6" fill="#2D2D2D" stroke="#0C0C0C" stroke-miterlimit="10" width="43.6" height="69.7"/>
	<g>
		<polygon fill="#FFFFFF" points="258.6,455.5 269.1,455.5 279.5,455.5 269.1,442.4 		"/>
		<rect x="258.6" y="458" fill="#FFFFFF" width="20.9" height="3.5"/>
	</g>
</g>
<circle id="RecordingLight" fill="#CC0000" cx="221.3" cy="334" r="8.8"/>
<g>
	<g>
		<circle fill="#040404" cx="37.3" cy="25.6" r="3.5"/>
		<circle fill="#040404" cx="50.6" cy="25.6" r="3.5"/>
		<circle fill="#040404" cx="63.7" cy="25.6" r="3.5"/>
		<circle fill="#040404" cx="77" cy="25.6" r="3.5"/>
		<circle fill="#040404" cx="90" cy="25.6" r="3.5"/>
		<circle fill="#040404" cx="103.3" cy="25.6" r="3.5"/>
		<circle fill="#040404" cx="116.4" cy="25.6" r="3.5"/>
		<circle fill="#040404" cx="129.5" cy="25.6" r="3.5"/>
		<circle fill="#040404" cx="142.8" cy="25.6" r="3.5"/>
		<circle fill="#040404" cx="156.1" cy="25.6" r="3.5"/>
		<circle fill="#040404" cx="169.1" cy="25.6" r="3.5"/>
		<circle fill="#040404" cx="182.2" cy="25.6" r="3.5"/>
		<circle fill="#040404" cx="195.5" cy="25.6" r="3.5"/>
		<circle fill="#040404" cx="208.6" cy="25.6" r="3.5"/>
		<circle fill="#040404" cx="221.9" cy="25.6" r="3.5"/>
		<circle fill="#040404" cx="235" cy="25.6" r="3.5"/>
		<circle fill="#040404" cx="248.2" cy="25.6" r="3.5"/>
		<circle fill="#040404" cx="261.3" cy="25.6" r="3.5"/>
		<circle fill="#040404" cx="274.6" cy="25.6" r="3.5"/>
		<circle fill="#040404" cx="43.6" cy="34.4" r="3.5"/>
		<circle fill="#040404" cx="56.6" cy="34.4" r="3.5"/>
		<circle fill="#040404" cx="69.7" cy="34.4" r="3.5"/>
		<circle fill="#040404" cx="83" cy="34.4" r="3.5"/>
		<circle fill="#040404" cx="96.3" cy="34.4" r="3.5"/>
		<circle fill="#040404" cx="109.4" cy="34.4" r="3.5"/>
		<circle fill="#040404" cx="122.5" cy="34.4" r="3.5"/>
		<circle fill="#040404" cx="135.7" cy="34.4" r="3.5"/>
		<circle fill="#040404" cx="148.8" cy="34.4" r="3.5"/>
		<circle fill="#040404" cx="162.1" cy="34.4" r="3.5"/>
		<circle fill="#040404" cx="175.2" cy="34.4" r="3.5"/>
		<circle fill="#040404" cx="188.3" cy="34.4" r="3.5"/>
		<circle fill="#040404" cx="201.6" cy="34.4" r="3.5"/>
		<circle fill="#040404" cx="214.8" cy="34.4" r="3.5"/>
		<circle fill="#040404" cx="227.9" cy="34.4" r="3.5"/>
		<circle fill="#040404" cx="241" cy="34.4" r="3.5"/>
		<circle fill="#040404" cx="254.3" cy="34.4" r="3.5"/>
		<circle fill="#040404" cx="267.4" cy="34.4" r="3.5"/>
		<circle fill="#040404" cx="280.7" cy="34.4" r="3.5"/>
		<circle fill="#040404" cx="287.7" cy="25.6" r="3.5"/>
	</g>
	<g>
		<circle fill="#040404" cx="37.3" cy="43" r="3.5"/>
		<circle fill="#040404" cx="50.6" cy="43" r="3.5"/>
		<circle fill="#040404" cx="63.7" cy="43" r="3.5"/>
		<circle fill="#040404" cx="77" cy="43" r="3.5"/>
		<circle fill="#040404" cx="90" cy="43" r="3.5"/>
		<circle fill="#040404" cx="103.3" cy="43" r="3.5"/>
		<circle fill="#040404" cx="116.4" cy="43" r="3.5"/>
		<circle fill="#040404" cx="129.5" cy="43" r="3.5"/>
		<circle fill="#040404" cx="142.8" cy="43" r="3.5"/>
		<circle fill="#040404" cx="156.1" cy="43" r="3.5"/>
		<circle fill="#040404" cx="169.1" cy="43" r="3.5"/>
		<circle fill="#040404" cx="182.2" cy="43" r="3.5"/>
		<circle fill="#040404" cx="195.5" cy="43" r="3.5"/>
		<circle fill="#040404" cx="208.6" cy="43" r="3.5"/>
		<circle fill="#040404" cx="221.9" cy="43" r="3.5"/>
		<circle fill="#040404" cx="235" cy="43" r="3.5"/>
		<circle fill="#040404" cx="248.2" cy="43" r="3.5"/>
		<circle fill="#040404" cx="261.3" cy="43" r="3.5"/>
		<circle fill="#040404" cx="274.6" cy="43" r="3.5"/>
		<circle fill="#040404" cx="43.6" cy="51.8" r="3.5"/>
		<circle fill="#040404" cx="56.6" cy="51.8" r="3.5"/>
		<circle fill="#040404" cx="69.7" cy="51.8" r="3.5"/>
		<circle fill="#040404" cx="83" cy="51.8" r="3.5"/>
		<circle fill="#040404" cx="96.3" cy="51.8" r="3.5"/>
		<circle fill="#040404" cx="109.4" cy="51.8" r="3.5"/>
		<circle fill="#040404" cx="122.5" cy="51.8" r="3.5"/>
		<circle fill="#040404" cx="135.7" cy="51.8" r="3.5"/>
		<circle fill="#040404" cx="148.8" cy="51.8" r="3.5"/>
		<circle fill="#040404" cx="162.1" cy="51.8" r="3.5"/>
		<circle fill="#040404" cx="175.2" cy="51.8" r="3.5"/>
		<circle fill="#040404" cx="188.3" cy="51.8" r="3.5"/>
		<circle fill="#040404" cx="201.6" cy="51.8" r="3.5"/>
		<circle fill="#040404" cx="214.8" cy="51.8" r="3.5"/>
		<circle fill="#040404" cx="227.9" cy="51.8" r="3.5"/>
		<circle fill="#040404" cx="241" cy="51.8" r="3.5"/>
		<circle fill="#040404" cx="254.3" cy="51.8" r="3.5"/>
		<circle fill="#040404" cx="267.4" cy="51.8" r="3.5"/>
		<circle fill="#040404" cx="280.7" cy="51.8" r="3.5"/>
		<circle fill="#040404" cx="287.7" cy="43" r="3.5"/>
	</g>
	<g>
		<circle fill="#040404" cx="37.3" cy="60.5" r="3.5"/>
		<circle fill="#040404" cx="50.6" cy="60.5" r="3.5"/>
		<circle fill="#040404" cx="63.7" cy="60.5" r="3.5"/>
		<circle fill="#040404" cx="77" cy="60.5" r="3.5"/>
		<circle fill="#040404" cx="90" cy="60.5" r="3.5"/>
		<circle fill="#040404" cx="103.3" cy="60.5" r="3.5"/>
		<circle fill="#040404" cx="116.4" cy="60.5" r="3.5"/>
		<circle fill="#040404" cx="129.5" cy="60.5" r="3.5"/>
		<circle fill="#040404" cx="142.8" cy="60.5" r="3.5"/>
		<circle fill="#040404" cx="156.1" cy="60.5" r="3.5"/>
		<circle fill="#040404" cx="169.1" cy="60.5" r="3.5"/>
		<circle fill="#040404" cx="182.2" cy="60.5" r="3.5"/>
		<circle fill="#040404" cx="195.5" cy="60.5" r="3.5"/>
		<circle fill="#040404" cx="208.6" cy="60.5" r="3.5"/>
		<circle fill="#040404" cx="221.9" cy="60.5" r="3.5"/>
		<circle fill="#040404" cx="235" cy="60.5" r="3.5"/>
		<circle fill="#040404" cx="248.2" cy="60.5" r="3.5"/>
		<circle fill="#040404" cx="261.3" cy="60.5" r="3.5"/>
		<circle fill="#040404" cx="274.6" cy="60.5" r="3.5"/>
		<circle fill="#040404" cx="43.6" cy="69.1" r="3.5"/>
		<circle fill="#040404" cx="56.6" cy="69.1" r="3.5"/>
		<circle fill="#040404" cx="69.7" cy="69.1" r="3.5"/>
		<circle fill="#040404" cx="83" cy="69.1" r="3.5"/>
		<circle fill="#040404" cx="96.3" cy="69.1" r="3.5"/>
		<circle fill="#040404" cx="109.4" cy="69.1" r="3.5"/>
		<circle fill="#040404" cx="122.5" cy="69.1" r="3.5"/>
		<circle fill="#040404" cx="135.7" cy="69.1" r="3.5"/>
		<circle fill="#040404" cx="148.8" cy="69.1" r="3.5"/>
		<circle fill="#040404" cx="162.1" cy="69.1" r="3.5"/>
		<circle fill="#040404" cx="175.2" cy="69.1" r="3.5"/>
		<circle fill="#040404" cx="188.3" cy="69.1" r="3.5"/>
		<circle fill="#040404" cx="201.6" cy="69.1" r="3.5"/>
		<circle fill="#040404" cx="214.8" cy="69.1" r="3.5"/>
		<circle fill="#040404" cx="227.9" cy="69.1" r="3.5"/>
		<circle fill="#040404" cx="241" cy="69.1" r="3.5"/>
		<circle fill="#040404" cx="254.3" cy="69.1" r="3.5"/>
		<circle fill="#040404" cx="267.4" cy="69.1" r="3.5"/>
		<circle fill="#040404" cx="280.7" cy="69.1" r="3.5"/>
		<circle fill="#040404" cx="287.7" cy="60.5" r="3.5"/>
	</g>
	<g>
		<circle fill="#040404" cx="37.3" cy="77.9" r="3.5"/>
		<circle fill="#040404" cx="50.6" cy="77.9" r="3.5"/>
		<circle fill="#040404" cx="63.7" cy="77.9" r="3.5"/>
		<circle fill="#040404" cx="77" cy="77.9" r="3.5"/>
		<circle fill="#040404" cx="90" cy="77.9" r="3.5"/>
		<circle fill="#040404" cx="103.3" cy="77.9" r="3.5"/>
		<circle fill="#040404" cx="116.4" cy="77.9" r="3.5"/>
		<circle fill="#040404" cx="129.5" cy="77.9" r="3.5"/>
		<circle fill="#040404" cx="142.8" cy="77.9" r="3.5"/>
		<circle fill="#040404" cx="156.1" cy="77.9" r="3.5"/>
		<circle fill="#040404" cx="169.1" cy="77.9" r="3.5"/>
		<circle fill="#040404" cx="182.2" cy="77.9" r="3.5"/>
		<circle fill="#040404" cx="195.5" cy="77.9" r="3.5"/>
		<circle fill="#040404" cx="208.6" cy="77.9" r="3.5"/>
		<circle fill="#040404" cx="221.9" cy="77.9" r="3.5"/>
		<circle fill="#040404" cx="235" cy="77.9" r="3.5"/>
		<circle fill="#040404" cx="248.2" cy="77.9" r="3.5"/>
		<circle fill="#040404" cx="261.3" cy="77.9" r="3.5"/>
		<circle fill="#040404" cx="274.6" cy="77.9" r="3.5"/>
		<circle fill="#040404" cx="43.6" cy="86.5" r="3.5"/>
		<circle fill="#040404" cx="56.6" cy="86.5" r="3.5"/>
		<circle fill="#040404" cx="69.7" cy="86.5" r="3.5"/>
		<circle fill="#040404" cx="83" cy="86.5" r="3.5"/>
		<circle fill="#040404" cx="96.3" cy="86.5" r="3.5"/>
		<circle fill="#040404" cx="109.4" cy="86.5" r="3.5"/>
		<circle fill="#040404" cx="122.5" cy="86.5" r="3.5"/>
		<circle fill="#040404" cx="135.7" cy="86.5" r="3.5"/>
		<circle fill="#040404" cx="148.8" cy="86.5" r="3.5"/>
		<circle fill="#040404" cx="162.1" cy="86.5" r="3.5"/>
		<circle fill="#040404" cx="175.2" cy="86.5" r="3.5"/>
		<circle fill="#040404" cx="188.3" cy="86.5" r="3.5"/>
		<circle fill="#040404" cx="201.6" cy="86.5" r="3.5"/>
		<circle fill="#040404" cx="214.8" cy="86.5" r="3.5"/>
		<circle fill="#040404" cx="227.9" cy="86.5" r="3.5"/>
		<circle fill="#040404" cx="241" cy="86.5" r="3.5"/>
		<circle fill="#040404" cx="254.3" cy="86.5" r="3.5"/>
		<circle fill="#040404" cx="267.4" cy="86.5" r="3.5"/>
		<circle fill="#040404" cx="280.7" cy="86.5" r="3.5"/>
		<circle fill="#040404" cx="287.7" cy="77.9" r="3.5"/>
	</g>
	<g>
		<circle fill="#040404" cx="37.3" cy="95.3" r="3.5"/>
		<circle fill="#040404" cx="50.6" cy="95.3" r="3.5"/>
		<circle fill="#040404" cx="63.7" cy="95.3" r="3.5"/>
		<circle fill="#040404" cx="77" cy="95.3" r="3.5"/>
		<circle fill="#040404" cx="90" cy="95.3" r="3.5"/>
		<circle fill="#040404" cx="103.3" cy="95.3" r="3.5"/>
		<circle fill="#040404" cx="116.4" cy="95.3" r="3.5"/>
		<circle fill="#040404" cx="129.5" cy="95.3" r="3.5"/>
		<circle fill="#040404" cx="142.8" cy="95.3" r="3.5"/>
		<circle fill="#040404" cx="156.1" cy="95.3" r="3.5"/>
		<circle fill="#040404" cx="169.1" cy="95.3" r="3.5"/>
		<circle fill="#040404" cx="182.2" cy="95.3" r="3.5"/>
		<circle fill="#040404" cx="195.5" cy="95.3" r="3.5"/>
		<circle fill="#040404" cx="208.6" cy="95.3" r="3.5"/>
		<circle fill="#040404" cx="221.9" cy="95.3" r="3.5"/>
		<circle fill="#040404" cx="235" cy="95.3" r="3.5"/>
		<circle fill="#040404" cx="248.2" cy="95.3" r="3.5"/>
		<circle fill="#040404" cx="261.3" cy="95.3" r="3.5"/>
		<circle fill="#040404" cx="274.6" cy="95.3" r="3.5"/>
		<circle fill="#040404" cx="43.6" cy="104.1" r="3.5"/>
		<circle fill="#040404" cx="56.6" cy="104.1" r="3.5"/>
		<circle fill="#040404" cx="69.7" cy="104.1" r="3.5"/>
		<circle fill="#040404" cx="83" cy="104.1" r="3.5"/>
		<circle fill="#040404" cx="96.3" cy="104.1" r="3.5"/>
		<circle fill="#040404" cx="109.4" cy="104.1" r="3.5"/>
		<circle fill="#040404" cx="122.5" cy="104.1" r="3.5"/>
		<circle fill="#040404" cx="135.7" cy="104.1" r="3.5"/>
		<circle fill="#040404" cx="148.8" cy="104.1" r="3.5"/>
		<circle fill="#040404" cx="162.1" cy="104.1" r="3.5"/>
		<circle fill="#040404" cx="175.2" cy="104.1" r="3.5"/>
		<circle fill="#040404" cx="188.3" cy="104.1" r="3.5"/>
		<circle fill="#040404" cx="201.6" cy="104.1" r="3.5"/>
		<circle fill="#040404" cx="214.8" cy="104.1" r="3.5"/>
		<circle fill="#040404" cx="227.9" cy="104.1" r="3.5"/>
		<circle fill="#040404" cx="241" cy="104.1" r="3.5"/>
		<circle fill="#040404" cx="254.3" cy="104.1" r="3.5"/>
		<circle fill="#040404" cx="267.4" cy="104.1" r="3.5"/>
		<circle fill="#040404" cx="280.7" cy="104.1" r="3.5"/>
		<circle fill="#040404" cx="287.7" cy="95.3" r="3.5"/>
	</g>
	<g>
		<circle fill="#040404" cx="37.3" cy="112.7" r="3.5"/>
		<circle fill="#040404" cx="50.6" cy="112.7" r="3.5"/>
		<circle fill="#040404" cx="63.7" cy="112.7" r="3.5"/>
		<circle fill="#040404" cx="77" cy="112.7" r="3.5"/>
		<circle fill="#040404" cx="90" cy="112.7" r="3.5"/>
		<circle fill="#040404" cx="103.3" cy="112.7" r="3.5"/>
		<circle fill="#040404" cx="116.4" cy="112.7" r="3.5"/>
		<circle fill="#040404" cx="129.5" cy="112.7" r="3.5"/>
		<circle fill="#040404" cx="142.8" cy="112.7" r="3.5"/>
		<circle fill="#040404" cx="156.1" cy="112.7" r="3.5"/>
		<circle fill="#040404" cx="169.1" cy="112.7" r="3.5"/>
		<circle fill="#040404" cx="182.2" cy="112.7" r="3.5"/>
		<circle fill="#040404" cx="195.5" cy="112.7" r="3.5"/>
		<circle fill="#040404" cx="208.6" cy="112.7" r="3.5"/>
		<circle fill="#040404" cx="221.9" cy="112.7" r="3.5"/>
		<circle fill="#040404" cx="235" cy="112.7" r="3.5"/>
		<circle fill="#040404" cx="248.2" cy="112.7" r="3.5"/>
		<circle fill="#040404" cx="261.3" cy="112.7" r="3.5"/>
		<circle fill="#040404" cx="274.6" cy="112.7" r="3.5"/>
		<circle fill="#040404" cx="287.7" cy="112.7" r="3.5"/>
	</g>
</g>
<g>
	
		<linearGradient id="SVGID_3_" gradientUnits="userSpaceOnUse" x1="1001.5708" y1="1994.7166" x2="641.3508" y2="1994.7166" gradientTransform="matrix(0.1681 0 0 0.1681 133.606 -1.2937)">
		<stop  offset="0" style="stop-color:#000000"/>
		<stop  offset="0.1224" style="stop-color:#FFFFFF"/>
		<stop  offset="0.2152" style="stop-color:#CCCCCC"/>
		<stop  offset="0.2966" style="stop-color:#A6A6A6"/>
		<stop  offset="0.3619" style="stop-color:#8F8F8F"/>
		<stop  offset="0.4031" style="stop-color:#878787"/>
		<stop  offset="0.4449" style="stop-color:#A7A7A7"/>
		<stop  offset="0.4909" style="stop-color:#C3C3C3"/>
		<stop  offset="0.5313" style="stop-color:#D4D4D4"/>
		<stop  offset="0.5612" style="stop-color:#DADADA"/>
		<stop  offset="0.5935" style="stop-color:#D6D6D6;stop-opacity:0.892"/>
		<stop  offset="0.6259" style="stop-color:#CACACA;stop-opacity:0.7834"/>
		<stop  offset="0.6585" style="stop-color:#B6B6B6;stop-opacity:0.6746"/>
		<stop  offset="0.6911" style="stop-color:#999999;stop-opacity:0.5655"/>
		<stop  offset="0.7237" style="stop-color:#757575;stop-opacity:0.4563"/>
		<stop  offset="0.756" style="stop-color:#494949;stop-opacity:0.3483"/>
		<stop  offset="0.7704" style="stop-color:#333333;stop-opacity:0.3"/>
		<stop  offset="0.7716" style="stop-color:#363636;stop-opacity:0.3049"/>
		<stop  offset="0.7884" style="stop-color:#5C5C5C;stop-opacity:0.3726"/>
		<stop  offset="0.8064" style="stop-color:#7D7D7D;stop-opacity:0.4452"/>
		<stop  offset="0.8257" style="stop-color:#989898;stop-opacity:0.5231"/>
		<stop  offset="0.8467" style="stop-color:#ACACAC;stop-opacity:0.608"/>
		<stop  offset="0.8703" style="stop-color:#BBBBBB;stop-opacity:0.7032"/>
		<stop  offset="0.8986" style="stop-color:#C3C3C3;stop-opacity:0.8172"/>
		<stop  offset="0.9439" style="stop-color:#C6C6C6"/>
	</linearGradient>
	<path fill="url(#SVGID_3_)" d="M302,344.3c0,1.6-1.2,2.5-2.5,2.5h-55.5c-1.6,0-2.5-1.2-2.5-2.5v-20.7c0-1.6,1.2-2.5,2.5-2.5h55.3
		c1.6,0,2.5,1.2,2.5,2.5v20.7H302z"/>
	<rect x="245.7" y="324.8" fill="#020202" width="2.1" height="18.9"/>
	<rect x="249.2" y="324.8" fill="#020202" width="2.1" height="18.9"/>
	<rect x="252.9" y="324.8" fill="#020202" width="2.1" height="18.9"/>
	<rect x="256.4" y="324.8" fill="#020202" width="2.1" height="18.9"/>
	<rect x="260" y="324.8" fill="#020202" width="2.1" height="18.9"/>
	<rect x="263.5" y="324.8" fill="#020202" width="2.1" height="18.9"/>
	<rect x="267" y="324.8" fill="#020202" width="2.1" height="18.9"/>
	<rect x="270.7" y="324.8" fill="#020202" width="2.1" height="18.9"/>
	<rect x="274.2" y="324.8" fill="#020202" width="2.1" height="18.9"/>
	<rect x="277.7" y="324.8" fill="#020202" width="2.1" height="18.9"/>
	<rect x="281.3" y="324.8" fill="#020202" width="2.1" height="18.9"/>
	<rect x="285" y="324.8" fill="#020202" width="2.1" height="18.9"/>
	<rect x="288.5" y="324.8" fill="#020202" width="2.1" height="18.9"/>
	<rect x="292" y="324.8" fill="#020202" width="2.1" height="18.9"/>
	<rect x="295.5" y="324.8" fill="#020202" width="2.1" height="18.9"/>
</g>
<g id="groupCounter">
	
		<linearGradient id="SVGID_4_" gradientUnits="userSpaceOnUse" x1="-698.8217" y1="1994.7166" x2="-331.8744" y2="1994.7166" gradientTransform="matrix(0.1681 0 0 0.1681 133.606 -1.2937)">
		<stop  offset="0" style="stop-color:#000000"/>
		<stop  offset="0.1224" style="stop-color:#FFFFFF"/>
		<stop  offset="0.2152" style="stop-color:#CCCCCC"/>
		<stop  offset="0.2966" style="stop-color:#A6A6A6"/>
		<stop  offset="0.3619" style="stop-color:#8F8F8F"/>
		<stop  offset="0.4031" style="stop-color:#878787"/>
		<stop  offset="0.4449" style="stop-color:#A7A7A7"/>
		<stop  offset="0.4909" style="stop-color:#C3C3C3"/>
		<stop  offset="0.5313" style="stop-color:#D4D4D4"/>
		<stop  offset="0.5612" style="stop-color:#DADADA"/>
		<stop  offset="0.5935" style="stop-color:#D6D6D6;stop-opacity:0.892"/>
		<stop  offset="0.6259" style="stop-color:#CACACA;stop-opacity:0.7834"/>
		<stop  offset="0.6585" style="stop-color:#B6B6B6;stop-opacity:0.6746"/>
		<stop  offset="0.6911" style="stop-color:#999999;stop-opacity:0.5655"/>
		<stop  offset="0.7237" style="stop-color:#757575;stop-opacity:0.4563"/>
		<stop  offset="0.756" style="stop-color:#494949;stop-opacity:0.3483"/>
		<stop  offset="0.7704" style="stop-color:#333333;stop-opacity:0.3"/>
		<stop  offset="0.7716" style="stop-color:#363636;stop-opacity:0.3049"/>
		<stop  offset="0.7884" style="stop-color:#5C5C5C;stop-opacity:0.3726"/>
		<stop  offset="0.8064" style="stop-color:#7D7D7D;stop-opacity:0.4452"/>
		<stop  offset="0.8257" style="stop-color:#989898;stop-opacity:0.5231"/>
		<stop  offset="0.8467" style="stop-color:#ACACAC;stop-opacity:0.608"/>
		<stop  offset="0.8703" style="stop-color:#BBBBBB;stop-opacity:0.7032"/>
		<stop  offset="0.8986" style="stop-color:#C3C3C3;stop-opacity:0.8172"/>
		<stop  offset="0.9439" style="stop-color:#C6C6C6"/>
	</linearGradient>
	<path fill="url(#SVGID_4_)" d="M77.7,343.6c0,1.6-1.2,2.5-2.5,2.5H18.8c-1.6,0-2.5-1.2-2.5-2.5v-19.1c0-1.6,1.2-2.5,2.5-2.5h56.4
		c1.6,0,2.5,1.2,2.5,2.5C77.7,324.4,77.7,343.6,77.7,343.6z"/>
	<rect x="20.3" y="324.6" width="53.3" height="18.7"/>
	<rect x="22.7" y="325.2" fill="#222222" width="13.9" height="17.4"/>
	<rect x="40" y="325.2" fill="#222222" width="13.9" height="17.4"/>
	<rect x="57.4" y="325.2" fill="#222222" width="13.9" height="17.4"/>
	<g>
		
			<text id="txtCounter1" transform="matrix(1 0 0 1 24.8966 339.0343)" fill="#FFFFFF" font-family="'MyriadPro-Regular'" font-size="17.423">0</text>
		
			<text id="txtCounter2" transform="matrix(1 0 0 1 42.3196 339.0343)" fill="#FFFFFF" font-family="'MyriadPro-Regular'" font-size="17.423">0</text>
		
			<text id="txtCounter3" transform="matrix(1 0 0 1 59.7417 339.0343)" fill="#FFFFFF" font-family="'MyriadPro-Regular'" font-size="17.423">0</text>
	</g>
</g>
<text id="txtRec" transform="matrix(1 0 0 1 174.3597 339.0343)" fill="#FFFFFF" font-family="'MyriadPro-Regular'" font-size="17.423">Rec.</text>
<g id="groupLCD">
	<rect id="rectLCD" x="126.6" y="356.6" width="72.1" height="33"/>
	<text id="txtLCD" transform="matrix(1 0 0 1 134.3136 380.7354)" fill="#FF0000" font-family="'LCDReg'" font-size="26.1346">00:00</text>
</g>
</svg>
