<?xml version="1.0" encoding="utf-8"?>
<!-- Generator: Adobe Illustrator 17.1.0, SVG Export Plug-In . SVG Version: 6.00 Build 0)  -->
<!DOCTYPE svg PUBLIC "-//W3C//DTD SVG 1.1//EN" "http://www.w3.org/Graphics/SVG/1.1/DTD/svg11.dtd">
<svg version="1.1" id="Recorder" xmlns="http://www.w3.org/2000/svg" xmlns:xlink="http://www.w3.org/1999/xlink" x="0px" y="0px"
	 viewBox="267.3 0 532.7 800" enable-background="new 267.3 0 532.7 800" xml:space="preserve">
<path fill="#323232" d="M800,759.3c0,14.1-11.5,25.6-25.6,25.6H292.8c-14.1,0-25.6-11.5-25.6-25.6V25.6c0-14.1,11.5-25.6,25.6-25.6
	h481.3c14.1,0,25.6,11.5,25.6,25.6C800,25.6,800,759.3,800,759.3z"/>
<linearGradient id="SVGID_1_" gradientUnits="userSpaceOnUse" x1="-2377.5212" y1="139.2192" x2="-667.4619" y2="139.2192" gradientTransform="matrix(0.2754 0 0 0.2754 952.861 74.9913)">
	<stop  offset="0" style="stop-color:#000000"/>
	<stop  offset="0.1224" style="stop-color:#FFFFFF"/>
	<stop  offset="0.2152" style="stop-color:#CCCCCC"/>
	<stop  offset="0.2966" style="stop-color:#A6A6A6"/>
	<stop  offset="0.3619" style="stop-color:#8F8F8F"/>
	<stop  offset="0.4031" style="stop-color:#878787"/>
	<stop  offset="0.4449" style="stop-color:#A7A7A7"/>
	<stop  offset="0.4909" style="stop-color:#C3C3C3"/>
	<stop  offset="0.5313" style="stop-color:#D4D4D4"/>
	<stop  offset="0.5612" style="stop-color:#DADADA"/>
	<stop  offset="0.5935" style="stop-color:#D6D6D6;stop-opacity:0.892"/>
	<stop  offset="0.6259" style="stop-color:#CACACA;stop-opacity:0.7834"/>
	<stop  offset="0.6585" style="stop-color:#B6B6B6;stop-opacity:0.6746"/>
	<stop  offset="0.6911" style="stop-color:#999999;stop-opacity:0.5655"/>
	<stop  offset="0.7237" style="stop-color:#757575;stop-opacity:0.4563"/>
	<stop  offset="0.756" style="stop-color:#494949;stop-opacity:0.3483"/>
	<stop  offset="0.7704" style="stop-color:#333333;stop-opacity:0.3"/>
	<stop  offset="0.7716" style="stop-color:#363636;stop-opacity:0.3049"/>
	<stop  offset="0.7884" style="stop-color:#5C5C5C;stop-opacity:0.3726"/>
	<stop  offset="0.8064" style="stop-color:#7D7D7D;stop-opacity:0.4452"/>
	<stop  offset="0.8257" style="stop-color:#989898;stop-opacity:0.5231"/>
	<stop  offset="0.8467" style="stop-color:#ACACAC;stop-opacity:0.608"/>
	<stop  offset="0.8703" style="stop-color:#BBBBBB;stop-opacity:0.7032"/>
	<stop  offset="0.8986" style="stop-color:#C3C3C3;stop-opacity:0.8172"/>
	<stop  offset="0.9439" style="stop-color:#C6C6C6"/>
</linearGradient>
<path fill="url(#SVGID_1_)" d="M769,203.8V48.7c0-14.4-11.5-25.9-25.9-25.9H323.9c-14.4,0-25.9,11.5-25.9,25.9v155.2L769,203.8
	L769,203.8z"/>
<g id="recorderPlaceholder">
	<path d="M323.6,502.3c-12.1,0-22.1-10-22.1-22.1v-228c0-12.1,10-22.1,22.1-22.1h419.9c12.1,0,22.1,10,22.1,22.1v228.5
		c0,12.1-10,22.1-22.1,22.1H323.6V502.3z"/>
	<path fill="#C8C8C8" d="M743.3,233.6c10.3,0,18.5,8.4,18.5,18.5v228.5c0,10.3-8.4,18.5-18.5,18.5H323.6c-10.3,0-18.5-8.4-18.5-18.5
		V251.8c0-10.3,8.4-18.5,18.5-18.5h419.9 M743.3,226.6H323.6c-14.1,0-25.6,11.5-25.6,25.6v228.5c0,14.1,11.5,25.6,25.6,25.6h419.9
		c14.1,0,25.6-11.5,25.6-25.6V251.8C769,237.7,757.4,226.6,743.3,226.6L743.3,226.6z"/>
</g>
<linearGradient id="SVGID_2_" gradientUnits="userSpaceOnUse" x1="-2377.79" y1="2303.6895" x2="-666.6549" y2="2303.6895" gradientTransform="matrix(0.2754 0 0 0.2754 952.861 74.9913)">
	<stop  offset="0" style="stop-color:#000000"/>
	<stop  offset="0.1224" style="stop-color:#FFFFFF"/>
	<stop  offset="0.2152" style="stop-color:#CCCCCC"/>
	<stop  offset="0.2966" style="stop-color:#A6A6A6"/>
	<stop  offset="0.3619" style="stop-color:#8F8F8F"/>
	<stop  offset="0.4031" style="stop-color:#878787"/>
	<stop  offset="0.4449" style="stop-color:#A7A7A7"/>
	<stop  offset="0.4909" style="stop-color:#C3C3C3"/>
	<stop  offset="0.5313" style="stop-color:#D4D4D4"/>
	<stop  offset="0.5612" style="stop-color:#DADADA"/>
	<stop  offset="0.5935" style="stop-color:#D6D6D6;stop-opacity:0.892"/>
	<stop  offset="0.6259" style="stop-color:#CACACA;stop-opacity:0.7834"/>
	<stop  offset="0.6585" style="stop-color:#B6B6B6;stop-opacity:0.6746"/>
	<stop  offset="0.6911" style="stop-color:#999999;stop-opacity:0.5655"/>
	<stop  offset="0.7237" style="stop-color:#757575;stop-opacity:0.4563"/>
	<stop  offset="0.756" style="stop-color:#494949;stop-opacity:0.3483"/>
	<stop  offset="0.7704" style="stop-color:#333333;stop-opacity:0.3"/>
	<stop  offset="0.7716" style="stop-color:#363636;stop-opacity:0.3049"/>
	<stop  offset="0.7884" style="stop-color:#5C5C5C;stop-opacity:0.3726"/>
	<stop  offset="0.8064" style="stop-color:#7D7D7D;stop-opacity:0.4452"/>
	<stop  offset="0.8257" style="stop-color:#989898;stop-opacity:0.5231"/>
	<stop  offset="0.8467" style="stop-color:#ACACAC;stop-opacity:0.608"/>
	<stop  offset="0.8703" style="stop-color:#BBBBBB;stop-opacity:0.7032"/>
	<stop  offset="0.8986" style="stop-color:#C3C3C3;stop-opacity:0.8172"/>
	<stop  offset="0.9439" style="stop-color:#C6C6C6"/>
</linearGradient>
<path fill="url(#SVGID_2_)" d="M298,652.7V744c0,12.1,11.5,22.1,25.9,22.1h419.6c14.4,0,25.9-10,25.9-22.1v-91.3
	C769,652.7,298,652.7,298,652.7z"/>
<g id="groupRec">
	<rect x="315.6" y="685.8" fill="#8A0602" stroke="#0C0C0C" stroke-miterlimit="10" width="71.4" height="114.2"/>
	<circle fill="#FFFFFF" cx="351.5" cy="743" r="17.2"/>
</g>
<g id="groupStop">
	<rect x="529.7" y="685.8" fill="#2D2D2D" stroke="#0C0C0C" stroke-miterlimit="10" width="71.4" height="114.2"/>
	<rect x="548.2" y="725.8" fill="#FFFFFF" width="34.2" height="34.2"/>
</g>
<g id="groupPlayPressed">
	<polygon fill="#2D2D2D" stroke="#0C0C0C" stroke-miterlimit="10" points="458.3,685.8 529.7,685.8 522.9,800 465.1,800 	"/>
	<polygon fill="#FFFFFF" points="480.5,731.5 481,749 481.4,765.3 507.3,749 	"/>
	<g>
		<polygon fill="#161616" stroke="#0C0C0C" stroke-linejoin="bevel" stroke-miterlimit="10" points="458.5,800 464.8,794 
			458.5,685.8 		"/>
		<polygon fill="#161616" stroke="#0C0C0C" stroke-linejoin="bevel" stroke-miterlimit="10" points="529.8,800.1 523.5,794.1 
			529.8,685.9 		"/>
	</g>
</g>
<g id="groupPlay">
	<rect x="458.3" y="685.8" fill="#2D2D2D" stroke="#0C0C0C" stroke-miterlimit="10" width="71.4" height="114.2"/>
	<polygon fill="#FFFFFF" points="479.4,725.8 479.4,743 479.4,760 508.9,743 	"/>
</g>
<g id="groupForwardPressed">
	<polygon fill="#2D2D2D" stroke="#0C0C0C" stroke-miterlimit="10" points="601,685.8 672.4,685.8 665.6,800 607.8,800 	"/>
	<g>
		<polygon fill="#FFFFFF" points="616.7,731.4 617.3,749 617.9,765.3 643.7,749 		"/>
		<polygon fill="#FFFFFF" points="629.7,731.4 629.9,749 630.1,765.3 656.3,749 		"/>
	</g>
	<g>
		<polygon fill="#161616" stroke="#0C0C0C" stroke-linejoin="bevel" stroke-miterlimit="10" points="601,800 607.3,793.9 601,685.7 
					"/>
		<polygon fill="#161616" stroke="#0C0C0C" stroke-linejoin="bevel" stroke-miterlimit="10" points="672.3,800 666,794 672.3,685.8 
					"/>
	</g>
</g>
<g id="groupForward">
	<rect x="601" y="685.8" fill="#2D2D2D" stroke="#0C0C0C" stroke-miterlimit="10" width="71.4" height="114.2"/>
	<g>
		<polygon fill="#FFFFFF" points="615,725.8 615,743 615,760 644.5,743 		"/>
		<polygon fill="#FFFFFF" points="629.1,725.8 629.1,743 629.1,760 658.7,743 		"/>
	</g>
</g>
<g id="groupBackPressed">
	<polygon fill="#2D2D2D" stroke="#0C0C0C" stroke-miterlimit="10" points="386.8,685.8 458.2,685.8 451.4,800 393.7,800 	"/>
	<g>
		<polygon fill="#FFFFFF" points="441.6,765.4 442.2,749 442.8,731.5 415.8,749 		"/>
		<polygon fill="#FFFFFF" points="429.4,765.4 429.6,749 429.8,731.5 403.2,749 		"/>
	</g>
	<g>
		<polygon fill="#161616" stroke="#0C0C0C" stroke-linejoin="bevel" stroke-miterlimit="10" points="387,800 393.3,793.9 387,685.8 
					"/>
		<polygon fill="#161616" stroke="#0C0C0C" stroke-linejoin="bevel" stroke-miterlimit="10" points="458.3,800.1 451.9,794 
			458.3,685.9 		"/>
	</g>
</g>
<g id="groupBack">
	<rect x="386.8" y="685.8" fill="#2D2D2D" stroke="#0C0C0C" stroke-miterlimit="10" width="71.4" height="114.2"/>
	<g>
		<polygon fill="#FFFFFF" points="444.5,760 444.5,743 444.5,725.8 415,743 		"/>
		<polygon fill="#FFFFFF" points="430.4,760 430.4,743 430.4,725.8 400.9,743 		"/>
	</g>
</g>
<g id="groupEject">
	<rect x="672.4" y="685.8" fill="#2D2D2D" stroke="#0C0C0C" stroke-miterlimit="10" width="71.4" height="114.2"/>
	<g>
		<polygon fill="#FFFFFF" points="690.9,746.3 708.1,746.3 725.2,746.3 708.1,724.8 		"/>
		<rect x="690.9" y="750.4" fill="#FFFFFF" width="34.2" height="5.7"/>
	</g>
</g>
<circle id="RecordingLight" fill="#CC0000" cx="629.8" cy="547.2" r="14.4"/>
<g>
	<g>
		<circle fill="#040404" cx="328.4" cy="41.9" r="5.7"/>
		<circle fill="#040404" cx="350.1" cy="41.9" r="5.7"/>
		<circle fill="#040404" cx="371.6" cy="41.9" r="5.7"/>
		<circle fill="#040404" cx="393.4" cy="41.9" r="5.7"/>
		<circle fill="#040404" cx="414.7" cy="41.9" r="5.7"/>
		<circle fill="#040404" cx="436.4" cy="41.9" r="5.7"/>
		<circle fill="#040404" cx="457.9" cy="41.9" r="5.7"/>
		<circle fill="#040404" cx="479.4" cy="41.9" r="5.7"/>
		<circle fill="#040404" cx="501.2" cy="41.9" r="5.7"/>
		<circle fill="#040404" cx="523" cy="41.9" r="5.7"/>
		<circle fill="#040404" cx="544.3" cy="41.9" r="5.7"/>
		<circle fill="#040404" cx="565.8" cy="41.9" r="5.7"/>
		<circle fill="#040404" cx="587.6" cy="41.9" r="5.7"/>
		<circle fill="#040404" cx="609" cy="41.9" r="5.7"/>
		<circle fill="#040404" cx="630.8" cy="41.9" r="5.7"/>
		<circle fill="#040404" cx="652.2" cy="41.9" r="5.7"/>
		<circle fill="#040404" cx="673.9" cy="41.9" r="5.7"/>
		<circle fill="#040404" cx="695.3" cy="41.9" r="5.7"/>
		<circle fill="#040404" cx="717.1" cy="41.9" r="5.7"/>
		<circle fill="#040404" cx="338.7" cy="56.4" r="5.7"/>
		<circle fill="#040404" cx="360" cy="56.4" r="5.7"/>
		<circle fill="#040404" cx="381.4" cy="56.4" r="5.7"/>
		<circle fill="#040404" cx="403.2" cy="56.4" r="5.7"/>
		<circle fill="#040404" cx="425" cy="56.4" r="5.7"/>
		<circle fill="#040404" cx="446.4" cy="56.4" r="5.7"/>
		<circle fill="#040404" cx="467.9" cy="56.4" r="5.7"/>
		<circle fill="#040404" cx="489.6" cy="56.4" r="5.7"/>
		<circle fill="#040404" cx="511" cy="56.4" r="5.7"/>
		<circle fill="#040404" cx="532.8" cy="56.4" r="5.7"/>
		<circle fill="#040404" cx="554.3" cy="56.4" r="5.7"/>
		<circle fill="#040404" cx="575.7" cy="56.4" r="5.7"/>
		<circle fill="#040404" cx="597.6" cy="56.4" r="5.7"/>
		<circle fill="#040404" cx="619.2" cy="56.4" r="5.7"/>
		<circle fill="#040404" cx="640.6" cy="56.4" r="5.7"/>
		<circle fill="#040404" cx="662.1" cy="56.4" r="5.7"/>
		<circle fill="#040404" cx="683.9" cy="56.4" r="5.7"/>
		<circle fill="#040404" cx="705.3" cy="56.4" r="5.7"/>
		<circle fill="#040404" cx="727.1" cy="56.4" r="5.7"/>
		<circle fill="#040404" cx="738.6" cy="41.9" r="5.7"/>
	</g>
	<g>
		<circle fill="#040404" cx="328.4" cy="70.4" r="5.7"/>
		<circle fill="#040404" cx="350.1" cy="70.4" r="5.7"/>
		<circle fill="#040404" cx="371.6" cy="70.4" r="5.7"/>
		<circle fill="#040404" cx="393.4" cy="70.4" r="5.7"/>
		<circle fill="#040404" cx="414.7" cy="70.4" r="5.7"/>
		<circle fill="#040404" cx="436.4" cy="70.4" r="5.7"/>
		<circle fill="#040404" cx="457.9" cy="70.4" r="5.7"/>
		<circle fill="#040404" cx="479.4" cy="70.4" r="5.7"/>
		<circle fill="#040404" cx="501.2" cy="70.4" r="5.7"/>
		<circle fill="#040404" cx="523" cy="70.4" r="5.7"/>
		<circle fill="#040404" cx="544.3" cy="70.4" r="5.7"/>
		<circle fill="#040404" cx="565.8" cy="70.4" r="5.7"/>
		<circle fill="#040404" cx="587.6" cy="70.4" r="5.7"/>
		<circle fill="#040404" cx="609" cy="70.4" r="5.7"/>
		<circle fill="#040404" cx="630.8" cy="70.4" r="5.7"/>
		<circle fill="#040404" cx="652.2" cy="70.4" r="5.7"/>
		<circle fill="#040404" cx="673.9" cy="70.4" r="5.7"/>
		<circle fill="#040404" cx="695.3" cy="70.4" r="5.7"/>
		<circle fill="#040404" cx="717.1" cy="70.4" r="5.7"/>
		<circle fill="#040404" cx="338.7" cy="84.9" r="5.7"/>
		<circle fill="#040404" cx="360" cy="84.9" r="5.7"/>
		<circle fill="#040404" cx="381.4" cy="84.9" r="5.7"/>
		<circle fill="#040404" cx="403.2" cy="84.9" r="5.7"/>
		<circle fill="#040404" cx="425" cy="84.9" r="5.7"/>
		<circle fill="#040404" cx="446.4" cy="84.9" r="5.7"/>
		<circle fill="#040404" cx="467.9" cy="84.9" r="5.7"/>
		<circle fill="#040404" cx="489.6" cy="84.9" r="5.7"/>
		<circle fill="#040404" cx="511" cy="84.9" r="5.7"/>
		<circle fill="#040404" cx="532.8" cy="84.9" r="5.7"/>
		<circle fill="#040404" cx="554.3" cy="84.9" r="5.7"/>
		<circle fill="#040404" cx="575.7" cy="84.9" r="5.7"/>
		<circle fill="#040404" cx="597.6" cy="84.9" r="5.7"/>
		<circle fill="#040404" cx="619.2" cy="84.9" r="5.7"/>
		<circle fill="#040404" cx="640.6" cy="84.9" r="5.7"/>
		<circle fill="#040404" cx="662.1" cy="84.9" r="5.7"/>
		<circle fill="#040404" cx="683.9" cy="84.9" r="5.7"/>
		<circle fill="#040404" cx="705.3" cy="84.9" r="5.7"/>
		<circle fill="#040404" cx="727.1" cy="84.9" r="5.7"/>
		<circle fill="#040404" cx="738.6" cy="70.4" r="5.7"/>
	</g>
	<g>
		<circle fill="#040404" cx="328.4" cy="99.1" r="5.7"/>
		<circle fill="#040404" cx="350.1" cy="99.1" r="5.7"/>
		<circle fill="#040404" cx="371.6" cy="99.1" r="5.7"/>
		<circle fill="#040404" cx="393.4" cy="99.1" r="5.7"/>
		<circle fill="#040404" cx="414.7" cy="99.1" r="5.7"/>
		<circle fill="#040404" cx="436.4" cy="99.1" r="5.7"/>
		<circle fill="#040404" cx="457.9" cy="99.1" r="5.7"/>
		<circle fill="#040404" cx="479.4" cy="99.1" r="5.7"/>
		<circle fill="#040404" cx="501.2" cy="99.1" r="5.7"/>
		<circle fill="#040404" cx="523" cy="99.1" r="5.7"/>
		<circle fill="#040404" cx="544.3" cy="99.1" r="5.7"/>
		<circle fill="#040404" cx="565.8" cy="99.1" r="5.7"/>
		<circle fill="#040404" cx="587.6" cy="99.1" r="5.7"/>
		<circle fill="#040404" cx="609" cy="99.1" r="5.7"/>
		<circle fill="#040404" cx="630.8" cy="99.1" r="5.7"/>
		<circle fill="#040404" cx="652.2" cy="99.1" r="5.7"/>
		<circle fill="#040404" cx="673.9" cy="99.1" r="5.7"/>
		<circle fill="#040404" cx="695.3" cy="99.1" r="5.7"/>
		<circle fill="#040404" cx="717.1" cy="99.1" r="5.7"/>
		<circle fill="#040404" cx="338.7" cy="113.2" r="5.7"/>
		<circle fill="#040404" cx="360" cy="113.2" r="5.7"/>
		<circle fill="#040404" cx="381.4" cy="113.2" r="5.7"/>
		<circle fill="#040404" cx="403.2" cy="113.2" r="5.7"/>
		<circle fill="#040404" cx="425" cy="113.2" r="5.7"/>
		<circle fill="#040404" cx="446.4" cy="113.2" r="5.7"/>
		<circle fill="#040404" cx="467.9" cy="113.2" r="5.7"/>
		<circle fill="#040404" cx="489.6" cy="113.2" r="5.7"/>
		<circle fill="#040404" cx="511" cy="113.2" r="5.7"/>
		<circle fill="#040404" cx="532.8" cy="113.2" r="5.7"/>
		<circle fill="#040404" cx="554.3" cy="113.2" r="5.7"/>
		<circle fill="#040404" cx="575.7" cy="113.2" r="5.7"/>
		<circle fill="#040404" cx="597.6" cy="113.2" r="5.7"/>
		<circle fill="#040404" cx="619.2" cy="113.2" r="5.7"/>
		<circle fill="#040404" cx="640.6" cy="113.2" r="5.7"/>
		<circle fill="#040404" cx="662.1" cy="113.2" r="5.7"/>
		<circle fill="#040404" cx="683.9" cy="113.2" r="5.7"/>
		<circle fill="#040404" cx="705.3" cy="113.2" r="5.7"/>
		<circle fill="#040404" cx="727.1" cy="113.2" r="5.7"/>
		<circle fill="#040404" cx="738.6" cy="99.1" r="5.7"/>
	</g>
	<g>
		<circle fill="#040404" cx="328.4" cy="127.6" r="5.7"/>
		<circle fill="#040404" cx="350.1" cy="127.6" r="5.7"/>
		<circle fill="#040404" cx="371.6" cy="127.6" r="5.7"/>
		<circle fill="#040404" cx="393.4" cy="127.6" r="5.7"/>
		<circle fill="#040404" cx="414.7" cy="127.6" r="5.7"/>
		<circle fill="#040404" cx="436.4" cy="127.6" r="5.7"/>
		<circle fill="#040404" cx="457.9" cy="127.6" r="5.7"/>
		<circle fill="#040404" cx="479.4" cy="127.6" r="5.7"/>
		<circle fill="#040404" cx="501.2" cy="127.6" r="5.7"/>
		<circle fill="#040404" cx="523" cy="127.6" r="5.7"/>
		<circle fill="#040404" cx="544.3" cy="127.6" r="5.7"/>
		<circle fill="#040404" cx="565.8" cy="127.6" r="5.7"/>
		<circle fill="#040404" cx="587.6" cy="127.6" r="5.7"/>
		<circle fill="#040404" cx="609" cy="127.6" r="5.7"/>
		<circle fill="#040404" cx="630.8" cy="127.6" r="5.7"/>
		<circle fill="#040404" cx="652.2" cy="127.6" r="5.7"/>
		<circle fill="#040404" cx="673.9" cy="127.6" r="5.7"/>
		<circle fill="#040404" cx="695.3" cy="127.6" r="5.7"/>
		<circle fill="#040404" cx="717.1" cy="127.6" r="5.7"/>
		<circle fill="#040404" cx="338.7" cy="141.7" r="5.7"/>
		<circle fill="#040404" cx="360" cy="141.7" r="5.7"/>
		<circle fill="#040404" cx="381.4" cy="141.7" r="5.7"/>
		<circle fill="#040404" cx="403.2" cy="141.7" r="5.7"/>
		<circle fill="#040404" cx="425" cy="141.7" r="5.7"/>
		<circle fill="#040404" cx="446.4" cy="141.7" r="5.7"/>
		<circle fill="#040404" cx="467.9" cy="141.7" r="5.7"/>
		<circle fill="#040404" cx="489.6" cy="141.7" r="5.7"/>
		<circle fill="#040404" cx="511" cy="141.7" r="5.7"/>
		<circle fill="#040404" cx="532.8" cy="141.7" r="5.7"/>
		<circle fill="#040404" cx="554.3" cy="141.7" r="5.7"/>
		<circle fill="#040404" cx="575.7" cy="141.7" r="5.7"/>
		<circle fill="#040404" cx="597.6" cy="141.7" r="5.7"/>
		<circle fill="#040404" cx="619.2" cy="141.7" r="5.7"/>
		<circle fill="#040404" cx="640.6" cy="141.7" r="5.7"/>
		<circle fill="#040404" cx="662.1" cy="141.7" r="5.7"/>
		<circle fill="#040404" cx="683.9" cy="141.7" r="5.7"/>
		<circle fill="#040404" cx="705.3" cy="141.7" r="5.7"/>
		<circle fill="#040404" cx="727.1" cy="141.7" r="5.7"/>
		<circle fill="#040404" cx="738.6" cy="127.6" r="5.7"/>
	</g>
	<g>
		<circle fill="#040404" cx="328.4" cy="156.1" r="5.7"/>
		<circle fill="#040404" cx="350.1" cy="156.1" r="5.7"/>
		<circle fill="#040404" cx="371.6" cy="156.1" r="5.7"/>
		<circle fill="#040404" cx="393.4" cy="156.1" r="5.7"/>
		<circle fill="#040404" cx="414.7" cy="156.1" r="5.7"/>
		<circle fill="#040404" cx="436.4" cy="156.1" r="5.7"/>
		<circle fill="#040404" cx="457.9" cy="156.1" r="5.7"/>
		<circle fill="#040404" cx="479.4" cy="156.1" r="5.7"/>
		<circle fill="#040404" cx="501.2" cy="156.1" r="5.7"/>
		<circle fill="#040404" cx="523" cy="156.1" r="5.7"/>
		<circle fill="#040404" cx="544.3" cy="156.1" r="5.7"/>
		<circle fill="#040404" cx="565.8" cy="156.1" r="5.7"/>
		<circle fill="#040404" cx="587.6" cy="156.1" r="5.7"/>
		<circle fill="#040404" cx="609" cy="156.1" r="5.7"/>
		<circle fill="#040404" cx="630.8" cy="156.1" r="5.7"/>
		<circle fill="#040404" cx="652.2" cy="156.1" r="5.7"/>
		<circle fill="#040404" cx="673.9" cy="156.1" r="5.7"/>
		<circle fill="#040404" cx="695.3" cy="156.1" r="5.7"/>
		<circle fill="#040404" cx="717.1" cy="156.1" r="5.7"/>
		<circle fill="#040404" cx="338.7" cy="170.5" r="5.7"/>
		<circle fill="#040404" cx="360" cy="170.5" r="5.7"/>
		<circle fill="#040404" cx="381.4" cy="170.5" r="5.7"/>
		<circle fill="#040404" cx="403.2" cy="170.5" r="5.7"/>
		<circle fill="#040404" cx="425" cy="170.5" r="5.7"/>
		<circle fill="#040404" cx="446.4" cy="170.5" r="5.7"/>
		<circle fill="#040404" cx="467.9" cy="170.5" r="5.7"/>
		<circle fill="#040404" cx="489.6" cy="170.5" r="5.7"/>
		<circle fill="#040404" cx="511" cy="170.5" r="5.7"/>
		<circle fill="#040404" cx="532.8" cy="170.5" r="5.7"/>
		<circle fill="#040404" cx="554.3" cy="170.5" r="5.7"/>
		<circle fill="#040404" cx="575.7" cy="170.5" r="5.7"/>
		<circle fill="#040404" cx="597.6" cy="170.5" r="5.7"/>
		<circle fill="#040404" cx="619.2" cy="170.5" r="5.7"/>
		<circle fill="#040404" cx="640.6" cy="170.5" r="5.7"/>
		<circle fill="#040404" cx="662.1" cy="170.5" r="5.7"/>
		<circle fill="#040404" cx="683.9" cy="170.5" r="5.7"/>
		<circle fill="#040404" cx="705.3" cy="170.5" r="5.7"/>
		<circle fill="#040404" cx="727.1" cy="170.5" r="5.7"/>
		<circle fill="#040404" cx="738.6" cy="156.1" r="5.7"/>
	</g>
	<g>
		<circle fill="#040404" cx="328.4" cy="184.7" r="5.7"/>
		<circle fill="#040404" cx="350.1" cy="184.7" r="5.7"/>
		<circle fill="#040404" cx="371.6" cy="184.7" r="5.7"/>
		<circle fill="#040404" cx="393.4" cy="184.7" r="5.7"/>
		<circle fill="#040404" cx="414.7" cy="184.7" r="5.7"/>
		<circle fill="#040404" cx="436.4" cy="184.7" r="5.7"/>
		<circle fill="#040404" cx="457.9" cy="184.7" r="5.7"/>
		<circle fill="#040404" cx="479.4" cy="184.7" r="5.7"/>
		<circle fill="#040404" cx="501.2" cy="184.7" r="5.7"/>
		<circle fill="#040404" cx="523" cy="184.7" r="5.7"/>
		<circle fill="#040404" cx="544.3" cy="184.7" r="5.7"/>
		<circle fill="#040404" cx="565.8" cy="184.7" r="5.7"/>
		<circle fill="#040404" cx="587.6" cy="184.7" r="5.7"/>
		<circle fill="#040404" cx="609" cy="184.7" r="5.7"/>
		<circle fill="#040404" cx="630.8" cy="184.7" r="5.7"/>
		<circle fill="#040404" cx="652.2" cy="184.7" r="5.7"/>
		<circle fill="#040404" cx="673.9" cy="184.7" r="5.7"/>
		<circle fill="#040404" cx="695.3" cy="184.7" r="5.7"/>
		<circle fill="#040404" cx="717.1" cy="184.7" r="5.7"/>
		<circle fill="#040404" cx="738.6" cy="184.7" r="5.7"/>
	</g>
</g>
<g>
	
		<linearGradient id="SVGID_3_" gradientUnits="userSpaceOnUse" x1="-693.0132" y1="1714.2595" x2="-1052.8843" y2="1714.2595" gradientTransform="matrix(0.2754 0 0 0.2754 952.861 74.9913)">
		<stop  offset="0" style="stop-color:#000000"/>
		<stop  offset="0.1224" style="stop-color:#FFFFFF"/>
		<stop  offset="0.2152" style="stop-color:#CCCCCC"/>
		<stop  offset="0.2966" style="stop-color:#A6A6A6"/>
		<stop  offset="0.3619" style="stop-color:#8F8F8F"/>
		<stop  offset="0.4031" style="stop-color:#878787"/>
		<stop  offset="0.4449" style="stop-color:#A7A7A7"/>
		<stop  offset="0.4909" style="stop-color:#C3C3C3"/>
		<stop  offset="0.5313" style="stop-color:#D4D4D4"/>
		<stop  offset="0.5612" style="stop-color:#DADADA"/>
		<stop  offset="0.5935" style="stop-color:#D6D6D6;stop-opacity:0.892"/>
		<stop  offset="0.6259" style="stop-color:#CACACA;stop-opacity:0.7834"/>
		<stop  offset="0.6585" style="stop-color:#B6B6B6;stop-opacity:0.6746"/>
		<stop  offset="0.6911" style="stop-color:#999999;stop-opacity:0.5655"/>
		<stop  offset="0.7237" style="stop-color:#757575;stop-opacity:0.4563"/>
		<stop  offset="0.756" style="stop-color:#494949;stop-opacity:0.3483"/>
		<stop  offset="0.7704" style="stop-color:#333333;stop-opacity:0.3"/>
		<stop  offset="0.7716" style="stop-color:#363636;stop-opacity:0.3049"/>
		<stop  offset="0.7884" style="stop-color:#5C5C5C;stop-opacity:0.3726"/>
		<stop  offset="0.8064" style="stop-color:#7D7D7D;stop-opacity:0.4452"/>
		<stop  offset="0.8257" style="stop-color:#989898;stop-opacity:0.5231"/>
		<stop  offset="0.8467" style="stop-color:#ACACAC;stop-opacity:0.608"/>
		<stop  offset="0.8703" style="stop-color:#BBBBBB;stop-opacity:0.7032"/>
		<stop  offset="0.8986" style="stop-color:#C3C3C3;stop-opacity:0.8172"/>
		<stop  offset="0.9439" style="stop-color:#C6C6C6"/>
	</linearGradient>
	<path fill="url(#SVGID_3_)" d="M762,564.1c0,2.6-2,4.1-4.1,4.1h-91c-2.6,0-4.1-2-4.1-4.1v-33.9c0-2.6,2-4.1,4.1-4.1h90.6
		c2.6,0,4.1,2,4.1,4.1v33.9H762z"/>
	<rect x="669.8" y="532.1" fill="#020202" width="3.4" height="31"/>
	<rect x="675.5" y="532.1" fill="#020202" width="3.4" height="31"/>
	<rect x="681.6" y="532.1" fill="#020202" width="3.4" height="31"/>
	<rect x="687.3" y="532.1" fill="#020202" width="3.4" height="31"/>
	<rect x="693.2" y="532.1" fill="#020202" width="3.4" height="31"/>
	<rect x="699" y="532.1" fill="#020202" width="3.4" height="31"/>
	<rect x="704.7" y="532.1" fill="#020202" width="3.4" height="31"/>
	<rect x="710.7" y="532.1" fill="#020202" width="3.4" height="31"/>
	<rect x="716.4" y="532.1" fill="#020202" width="3.4" height="31"/>
	<rect x="722.2" y="532.1" fill="#020202" width="3.4" height="31"/>
	<rect x="728.1" y="532.1" fill="#020202" width="3.4" height="31"/>
	<rect x="734.1" y="532.1" fill="#020202" width="3.4" height="31"/>
	<rect x="739.9" y="532.1" fill="#020202" width="3.4" height="31"/>
	<rect x="745.6" y="532.1" fill="#020202" width="3.4" height="31"/>
	<rect x="751.3" y="532.1" fill="#020202" width="3.4" height="31"/>
</g>
<g id="groupCounter">
	
		<linearGradient id="SVGID_4_" gradientUnits="userSpaceOnUse" x1="-2393.5232" y1="1715.0664" x2="-2026.5758" y2="1715.0664" gradientTransform="matrix(0.2754 0 0 0.2754 952.861 74.9913)">
		<stop  offset="0" style="stop-color:#000000"/>
		<stop  offset="0.1224" style="stop-color:#FFFFFF"/>
		<stop  offset="0.2152" style="stop-color:#CCCCCC"/>
		<stop  offset="0.2966" style="stop-color:#A6A6A6"/>
		<stop  offset="0.3619" style="stop-color:#8F8F8F"/>
		<stop  offset="0.4031" style="stop-color:#878787"/>
		<stop  offset="0.4449" style="stop-color:#A7A7A7"/>
		<stop  offset="0.4909" style="stop-color:#C3C3C3"/>
		<stop  offset="0.5313" style="stop-color:#D4D4D4"/>
		<stop  offset="0.5612" style="stop-color:#DADADA"/>
		<stop  offset="0.5935" style="stop-color:#D6D6D6;stop-opacity:0.892"/>
		<stop  offset="0.6259" style="stop-color:#CACACA;stop-opacity:0.7834"/>
		<stop  offset="0.6585" style="stop-color:#B6B6B6;stop-opacity:0.6746"/>
		<stop  offset="0.6911" style="stop-color:#999999;stop-opacity:0.5655"/>
		<stop  offset="0.7237" style="stop-color:#757575;stop-opacity:0.4563"/>
		<stop  offset="0.756" style="stop-color:#494949;stop-opacity:0.3483"/>
		<stop  offset="0.7704" style="stop-color:#333333;stop-opacity:0.3"/>
		<stop  offset="0.7716" style="stop-color:#363636;stop-opacity:0.3049"/>
		<stop  offset="0.7884" style="stop-color:#5C5C5C;stop-opacity:0.3726"/>
		<stop  offset="0.8064" style="stop-color:#7D7D7D;stop-opacity:0.4452"/>
		<stop  offset="0.8257" style="stop-color:#989898;stop-opacity:0.5231"/>
		<stop  offset="0.8467" style="stop-color:#ACACAC;stop-opacity:0.608"/>
		<stop  offset="0.8703" style="stop-color:#BBBBBB;stop-opacity:0.7032"/>
		<stop  offset="0.8986" style="stop-color:#C3C3C3;stop-opacity:0.8172"/>
		<stop  offset="0.9439" style="stop-color:#C6C6C6"/>
	</linearGradient>
	<path fill="url(#SVGID_4_)" d="M394.5,563c0,2.6-2,4.1-4.1,4.1H298c-2.6,0-4.1-2-4.1-4.1v-31.3c0-2.6,2-4.1,4.1-4.1h92.4
		c2.6,0,4.1,2,4.1,4.1L394.5,563L394.5,563z"/>
	<rect x="300.5" y="531.8" width="87.3" height="30.7"/>
	<rect x="304.4" y="532.8" fill="#222222" width="22.7" height="28.5"/>
	<rect x="332.7" y="532.8" fill="#222222" width="22.7" height="28.5"/>
	<rect x="361.3" y="532.8" fill="#222222" width="22.7" height="28.5"/>
	<g>
		
			<text id="txtCounter1" transform="matrix(1 0 0 1 308.0244 555.4521)" fill="#FFFFFF" font-family="'MyriadPro-Regular'" font-size="28.5447">0</text>
		
			<text id="txtCounter2" transform="matrix(1 0 0 1 336.5694 555.4521)" fill="#FFFFFF" font-family="'MyriadPro-Regular'" font-size="28.5447">0</text>
		
			<text id="txtCounter3" transform="matrix(1 0 0 1 365.1124 555.4521)" fill="#FFFFFF" font-family="'MyriadPro-Regular'" font-size="28.5447">0</text>
	</g>
</g>
<text id="txtRec" transform="matrix(1 0 0 1 552.8956 555.4521)" fill="#FFFFFF" font-family="'MyriadPro-Regular'" font-size="28.5447">Rec.</text>
<g id="groupLCD">
	<rect id="rectLCD" x="474.7" y="584.2" width="118.1" height="54.1"/>
	<text id="txtLCD" transform="matrix(1 0 0 1 487.2863 623.7735)" fill="#FF0000" font-family="'LCDReg'" font-size="42.8173">00:00</text>
</g>
<text id="lblDrag" transform="matrix(1 0 0 1 457.1368 373.8057)" fill="#EDEDED" font-family="'MyriadPro-Regular'" font-size="25.1852">Drag and drop</text>
<g id="Cassette">
	<path fill="none" stroke="#231F20" stroke-width="0.5084" d="M623.6,363.2l-0.1,0.1l-5.4-3.1l-2.8,4.7l5.6,3.3
		c-3.1,4.3-7.7,7.2-13.1,8.2v-6.5h-5.4v6.5c-5.3-0.7-10.1-3.3-13.4-7.2v-0.1l5.4-3.1l-2.8-4.7l-5.6,3.3c-1-2.4-1.8-5.4-1.8-8.2
		c0-2.4,0.5-4.9,1.3-7l5.6,3.1l2.8-4.7l-5.6-3.3c3-4.1,7.6-7,13-8h0.1v6.4h5.4v-6.5c5.4,0.5,10,3.1,13.3,7l0.1,0.3l-5.4,3.1l2.8,4.7
		l5.6-3.3c1.1,2.4,1.8,5.3,1.8,8.2C624.7,358.8,624.2,361.1,623.6,363.2z"/>
	<path fill="#484849" d="M705.5,414.8h-3.9V266.7c0-4.6-3.8-8.4-8.4-8.4H370.3c-4.6,0-8.4,3.8-8.4,8.4v148.1h-3.3
		c-1.3,0-2.4,1-2.4,2.3v39.8c0,1.3,1,2.3,2.4,2.3h3.3v7.6c0,4.6,5.6,7.6,10.1,7.6h321.3c4.6,0,8.4-3.8,8.4-8.4l-0.1-6.9h3.9
		c1.3,0,2.3-1,2.3-2.3V417C707.8,415.8,706.8,414.8,705.5,414.8z M478.6,363.2l-0.1,0.1l-5.4-3.1l-2.8,4.7l5.6,3.3
		c-3.1,4.3-7.7,7.2-13.1,8.2v-6.5h-5.4v6.5c-5.3-0.7-10.1-3.3-13.4-7.2v-0.1l5.4-3.1l-2.8-4.7l-5.6,3.3c-1-2.4-1.8-5.4-1.8-8.2
		c0-2.4,0.5-4.9,1.3-7l5.6,3.1l2.8-4.7l-5.6-3.3c3-4.1,7.6-7,13-8h0.1v6.4h5.4v-6.5c5.4,0.5,10,3.1,13.3,7l0.1,0.3l-5.4,3.1l2.8,4.7
		l5.6-3.3c1.1,2.4,1.8,5.3,1.8,8.2C479.9,358.8,479.4,361.1,478.6,363.2z M623.6,363.2l-0.1,0.1l-5.4-3.1l-2.8,4.7l5.6,3.3
		c-3.1,4.3-7.7,7.2-13.1,8.2v-6.5h-5.4v6.5c-5.3-0.7-10.1-3.3-13.4-7.2v-0.1l5.4-3.1l-2.8-4.7l-5.6,3.3c-1-2.4-1.8-5.4-1.8-8.2
		c0-2.4,0.5-4.9,1.3-7l5.6,3.1l2.8-4.7l-5.6-3.3c3-4.1,7.6-7,13-8h0.1v6.4h5.4v-6.5c5.4,0.5,10,3.1,13.3,7l0.1,0.3l-5.4,3.1l2.8,4.7
		l5.6-3.3c1.1,2.4,1.8,5.3,1.8,8.2C624.7,358.8,624.2,361.1,623.6,363.2z"/>
	<path fill="#F9F9F9" stroke="#231F20" stroke-width="0.5084" d="M672.6,272.8H538.4h-11.6H392.4l-13.8,13.9v129.1h152.2h3.1h152.2
		V286.7L672.6,272.8z M478.6,363.2l-0.1,0.1l-5.4-3.1l-2.8,4.7l5.6,3.3c-3.1,4.3-7.7,7.2-13.1,8.2v-6.5h-5.4v6.5
		c-5.3-0.7-10.1-3.3-13.4-7.2v-0.1l5.4-3.1l-2.8-4.7l-5.6,3.3c-1-2.4-1.8-5.4-1.8-8.2c0-2.4,0.5-4.9,1.3-7l5.6,3.1l2.8-4.7l-5.6-3.3
		c3-4.1,7.6-7,13-8h0.1v6.4h5.4v-6.5c5.4,0.5,10,3.1,13.3,7l0.1,0.3l-5.4,3.1l2.8,4.7l5.6-3.3c1.1,2.4,1.8,5.3,1.8,8.2
		C479.9,358.8,479.4,361.1,478.6,363.2z M623.6,363.2l-0.1,0.1l-5.4-3.1l-2.8,4.7l5.6,3.3c-3.1,4.3-7.7,7.2-13.1,8.2v-6.5h-5.4v6.5
		c-5.3-0.7-10.1-3.3-13.4-7.2v-0.1l5.4-3.1l-2.8-4.7l-5.6,3.3c-1-2.4-1.8-5.4-1.8-8.2c0-2.4,0.5-4.9,1.3-7l5.6,3.1l2.8-4.7l-5.6-3.3
		c3-4.1,7.6-7,13-8h0.1v6.4h5.4v-6.5c5.4,0.5,10,3.1,13.3,7l0.1,0.3l-5.4,3.1l2.8,4.7l5.6-3.3c1.1,2.4,1.8,5.3,1.8,8.2
		C624.7,358.8,624.2,361.1,623.6,363.2z"/>
	<path fill="#4FB3DB" stroke="#231F20" stroke-width="0.5084" d="M389,320.6v85.9h287.7v-85.9H389L389,320.6z M478.6,363.2l-0.1,0.1
		l-5.4-3.1l-2.8,4.7l5.6,3.3c-3.1,4.3-7.7,7.2-13.1,8.2v-6.5h-5.4v6.5c-5.3-0.7-10.1-3.3-13.4-7.2v-0.1l5.4-3.1l-2.8-4.7l-5.6,3.3
		c-1-2.4-1.8-5.4-1.8-8.2c0-2.4,0.5-4.9,1.3-7l5.6,3.1l2.8-4.7l-5.6-3.3c3-4.1,7.6-7,13-8h0.1v6.4h5.4v-6.5c5.4,0.5,10,3.1,13.3,7
		l0.1,0.3l-5.4,3.1l2.8,4.7l5.6-3.3c1.1,2.4,1.8,5.3,1.8,8.2C479.9,358.8,479.4,361.1,478.6,363.2z M623.6,363.2l-0.1,0.1l-5.4-3.1
		l-2.8,4.7l5.6,3.3c-3.1,4.3-7.7,7.2-13.1,8.2v-6.5h-5.4v6.5c-5.3-0.7-10.1-3.3-13.4-7.2v-0.1l5.4-3.1l-2.8-4.7l-5.6,3.3
		c-1-2.4-1.8-5.4-1.8-8.2c0-2.4,0.5-4.9,1.3-7l5.6,3.1l2.8-4.7l-5.6-3.3c3-4.1,7.6-7,13-8h0.1v6.4h5.4v-6.5c5.4,0.5,10,3.1,13.3,7
		l0.1,0.3l-5.4,3.1l2.8,4.7l5.6-3.3c1.1,2.4,1.8,5.3,1.8,8.2C624.7,358.8,624.2,361.1,623.6,363.2z"/>
	<path fill="#F1F1F2" stroke="#231F20" stroke-width="0.5084" d="M606.5,327.9H456c-15.9,0-28.8,13-28.8,28.8
		c0,15.9,13,28.8,28.8,28.8h150.6c15.9,0,28.8-13,28.8-28.8C635.3,340.6,622.6,327.9,606.5,327.9z M478.6,363.2l-0.1,0.1l-5.4-3.1
		l-2.8,4.7l5.6,3.3c-3.1,4.3-7.7,7.2-13.1,8.2v-6.5h-5.4v6.5c-5.3-0.7-10.1-3.3-13.4-7.2v-0.1l5.4-3.1l-2.8-4.7l-5.6,3.3
		c-1-2.4-1.8-5.4-1.8-8.2c0-2.4,0.5-4.9,1.3-7l5.6,3.1l2.8-4.7l-5.6-3.3c3-4.1,7.6-7,13-8h0.1v6.4h5.4v-6.5c5.4,0.5,10,3.1,13.3,7
		l0.1,0.3l-5.4,3.1l2.8,4.7l5.6-3.3c1.1,2.4,1.8,5.3,1.8,8.2C479.9,358.8,479.4,361.1,478.6,363.2z M623.6,363.2l-0.1,0.1l-5.4-3.1
		l-2.8,4.7l5.6,3.3c-3.1,4.3-7.7,7.2-13.1,8.2v-6.5h-5.4v6.5c-5.3-0.7-10.1-3.3-13.4-7.2v-0.1l5.4-3.1l-2.8-4.7l-5.6,3.3
		c-1-2.4-1.8-5.4-1.8-8.2c0-2.4,0.5-4.9,1.3-7l5.6,3.1l2.8-4.7l-5.6-3.3c3-4.1,7.6-7,13-8h0.1v6.4h5.4v-6.5c5.4,0.5,10,3.1,13.3,7
		l0.1,0.3l-5.4,3.1l2.8,4.7l5.6-3.3c1.1,2.4,1.8,5.3,1.8,8.2C624.7,358.8,624.2,361.1,623.6,363.2z"/>
	<path fill="none" stroke="#231F20" stroke-width="3.0507" d="M705.5,414.8h-3.9V266.7c0-4.6-3.8-8.4-8.4-8.4H370.3
		c-4.6,0-8.4,3.8-8.4,8.4v148.1h-3.3c-1.3,0-2.4,1-2.4,2.3v39.8c0,1.3,1,2.3,2.4,2.3h3.3v7.6c0,4.6,5.6,7.6,10.1,7.6h321.3
		c4.6,0,8.4-3.8,8.4-8.4l-0.1-6.9h3.9c1.3,0,2.3-1,2.3-2.3V417C707.8,415.8,706.8,414.8,705.5,414.8z"/>
	<polyline fill="none" stroke="#231F20" stroke-width="1.5253" points="650.7,473.8 638.7,422.2 536.2,422.2 528.9,422.2 
		426.3,422.2 414.2,473.8 	"/>
	<polygon fill="none" stroke="#231F20" stroke-width="0.5084" points="533.9,413.5 684.2,413.5 684.2,288.7 670.6,275.3 
		538.2,275.3 526.7,275.3 394.4,275.3 380.7,288.7 380.7,413.5 530.8,413.5 	"/>
	<line fill="none" stroke="#231F20" stroke-width="0.5084" x1="361.6" y1="414.1" x2="361.6" y2="458.7"/>
	<line fill="none" stroke="#231F20" stroke-width="0.5084" x1="364.9" y1="414.1" x2="364.9" y2="458.7"/>
	<line fill="none" stroke="#231F20" stroke-width="0.5084" x1="698.6" y1="414.1" x2="698.6" y2="458.7"/>
	<line fill="none" stroke="#231F20" stroke-width="0.5084" x1="701.9" y1="414.1" x2="701.9" y2="458.7"/>
	<g>
		<path fill="#D0D2D3" stroke="#231F20" stroke-width="0.5084" d="M459.6,332.9c-13,0-23.4,10.5-23.4,23.4c0,13,10.5,23.4,23.4,23.4
			c13,0,23.4-10.5,23.4-23.4C483.2,343.4,472.5,332.9,459.6,332.9z M479.9,356.4c0,2.4-0.5,4.7-1.1,6.9l-0.1,0.1l-5.4-3.1l-2.8,4.7
			l5.6,3.3c-3.1,4.3-7.7,7.2-13.1,8.2V370h-5.4v6.5c-5.3-0.7-10.1-3.3-13.4-7.2v-0.1l5.4-3.1l-2.8-4.7l-5.6,3.3
			c-1-2.4-1.8-5.4-1.8-8.2c0-2.4,0.5-4.9,1.3-7l5.6,3.1l2.8-4.7l-5.6-3.3c3-4.1,7.6-7,13-8h0.1v6.4h5.4v-6.5c5.4,0.5,10,3.1,13.3,7
			l0.1,0.3l-5.5,3l2.8,4.7l5.6-3.3C479.3,350.6,479.9,353.4,479.9,356.4z"/>
		<path fill="#D0D2D3" stroke="#231F20" stroke-width="0.5084" d="M604.6,332.9c-13,0-23.4,10.5-23.4,23.4c0,13,10.5,23.4,23.4,23.4
			c13,0,23.4-10.5,23.4-23.4S617.5,332.9,604.6,332.9z M623.4,363.4l-5.4-3.1l-2.8,4.7l5.6,3.3c-3.1,4.3-7.7,7.2-13.1,8.2V370h-5.4
			v6.5c-5.3-0.7-10.1-3.3-13.4-7.2v-0.1l5.4-3.1l-2.8-4.7l-5.6,3.3c-1-2.4-1.8-5.4-1.8-8.2c0-2.4,0.5-4.9,1.3-7l5.6,3.1l2.8-4.7
			l-5.6-3.3c3-4.1,7.6-7,13-8h0.1v6.4h5.4v-6.5c5.4,0.5,10,3.1,13.3,7l0.1,0.3l-5.4,3.1l2.8,4.7l5.6-3.3c1.1,2.4,1.8,5.3,1.8,8.2
			c0,2.4-0.5,4.7-1.1,6.9L623.4,363.4z"/>
	</g>
	<g>
		<g>
			<g>
				<defs>
					<polygon id="SVGID_5_" points="650.7,473.8 638.7,422.2 536.2,422.2 528.9,422.2 426.3,422.2 414.2,473.8 					"/>
				</defs>
				<clipPath id="SVGID_6_">
					<use xlink:href="#SVGID_5_"  overflow="visible"/>
				</clipPath>
				<g clip-path="url(#SVGID_6_)">
					<line fill="none" stroke="#231F20" stroke-width="0.5084" x1="413" y1="425.8" x2="654.1" y2="425.8"/>
					<line fill="none" stroke="#231F20" stroke-width="0.5084" x1="413" y1="428.1" x2="654.1" y2="428.1"/>
					<line fill="none" stroke="#231F20" stroke-width="0.5084" x1="413" y1="430.5" x2="654.1" y2="430.5"/>
					<line fill="none" stroke="#231F20" stroke-width="0.5084" x1="413" y1="432.8" x2="654.1" y2="432.8"/>
					<line fill="none" stroke="#231F20" stroke-width="0.5084" x1="413" y1="435.3" x2="654.1" y2="435.3"/>
					<line fill="none" stroke="#231F20" stroke-width="0.5084" x1="413" y1="437.6" x2="654.1" y2="437.6"/>
					<line fill="none" stroke="#231F20" stroke-width="0.5084" x1="413" y1="440.1" x2="654.1" y2="440.1"/>
					<line fill="none" stroke="#231F20" stroke-width="0.5084" x1="413" y1="442.4" x2="654.1" y2="442.4"/>
					<line fill="none" stroke="#231F20" stroke-width="0.5084" x1="413" y1="444.8" x2="654.1" y2="444.8"/>
					<line fill="none" stroke="#231F20" stroke-width="0.5084" x1="413" y1="447.1" x2="654.1" y2="447.1"/>
					<line fill="none" stroke="#231F20" stroke-width="0.5084" x1="413" y1="449.6" x2="654.1" y2="449.6"/>
					<line fill="none" stroke="#231F20" stroke-width="0.5084" x1="413" y1="451.9" x2="654.1" y2="451.9"/>
					<line fill="none" stroke="#231F20" stroke-width="0.5084" x1="413" y1="454.3" x2="654.1" y2="454.3"/>
					<line fill="none" stroke="#231F20" stroke-width="0.5084" x1="413" y1="456.6" x2="654.1" y2="456.6"/>
					<line fill="none" stroke="#231F20" stroke-width="0.5084" x1="413" y1="459" x2="654.1" y2="459"/>
					<line fill="none" stroke="#231F20" stroke-width="0.5084" x1="413" y1="461.3" x2="654.1" y2="461.3"/>
					<line fill="none" stroke="#231F20" stroke-width="0.5084" x1="413" y1="463.8" x2="654.1" y2="463.8"/>
					<line fill="none" stroke="#231F20" stroke-width="0.5084" x1="413" y1="466.1" x2="654.1" y2="466.1"/>
					<line fill="none" stroke="#231F20" stroke-width="0.5084" x1="413" y1="468.6" x2="654.1" y2="468.6"/>
				</g>
			</g>
		</g>
	</g>
	<rect x="493" y="334.7" fill="#D0D2D3" stroke="#231F20" stroke-width="0.5084" width="77.6" height="41.1"/>
	<rect x="495.3" y="337.5" fill="none" stroke="#231F20" stroke-width="0.5084" width="72.9" height="35.6"/>
	<path fill="none" stroke="#231F20" stroke-width="0.5084" d="M550.8,356.1c0,6.2,1.3,11.9,3.6,17h13.8v-35.7h-13.1
		C552.4,342.9,550.8,349.3,550.8,356.1z"/>
	<path fill="none" stroke="#231F20" stroke-width="0.5084" d="M495.3,373h40c2.3-5.1,3.6-10.8,3.6-17c0-6.9-1.6-13.3-4.4-18.7h-39.2
		V373z"/>
	<line fill="none" stroke="#231F20" stroke-width="0.5084" x1="398.3" y1="311.8" x2="666.4" y2="311.8"/>
	<line fill="none" stroke="#231F20" stroke-width="0.5084" x1="413" y1="470.9" x2="654.1" y2="470.9"/>
	<circle fill="#D0D2D3" stroke="#231F20" stroke-width="0.5084" cx="450.4" cy="461.3" r="7"/>
	<circle fill="#D0D2D3" stroke="#231F20" stroke-width="0.5084" cx="484.8" cy="456.1" r="7"/>
	<circle fill="#D0D2D3" stroke="#231F20" stroke-width="0.5084" cx="614.6" cy="461.3" r="7.2"/>
	<circle fill="#D0D2D3" stroke="#231F20" stroke-width="0.5084" cx="580.1" cy="456.1" r="7"/>
	<text id="yourNameCassette" transform="matrix(1 0 0 1 405.6007 307.7002)" font-family="'Notethis'" font-size="26.2134">YORAN BROODCOORE</text>
</g>
</svg>
