<?xml version="1.0" encoding="utf-8"?>
<!-- Generator: Adobe Illustrator 17.1.0, SVG Export Plug-In . SVG Version: 6.00 Build 0)  -->
<!DOCTYPE svg PUBLIC "-//W3C//DTD SVG 1.1//EN" "http://www.w3.org/Graphics/SVG/1.1/DTD/svg11.dtd">
<svg version="1.1" id="Layer_1" xmlns="http://www.w3.org/2000/svg" xmlns:xlink="http://www.w3.org/1999/xlink" x="0px" y="0px"
	 viewBox="0 0 333 500" enable-background="new 0 0 333 500" width="333" height="500" preserveAspectRatio="xMidYMid meet" xml:space="preserve">
<path fill="#323232" d="M333,474.6c0,8.8-7.2,16-16,16H16c-8.8,0-16-7.2-16-16V16C0,7.2,7.2,0,16,0h300.8c8.8,0,16,7.2,16,16
	C333,16,333,474.6,333,474.6z"/>
<linearGradient id="SVGID_1_" gradientUnits="userSpaceOnUse" x1="-4022.4404" y1="367.5262" x2="-2312.2007" y2="367.5262" gradientTransform="matrix(0.1721 0 0 -0.1721 711.6126 134.1042)">
	<stop  offset="0" style="stop-color:#000000"/>
	<stop  offset="0.1224" style="stop-color:#FFFFFF"/>
	<stop  offset="0.2152" style="stop-color:#CCCCCC"/>
	<stop  offset="0.2966" style="stop-color:#A6A6A6"/>
	<stop  offset="0.3619" style="stop-color:#8F8F8F"/>
	<stop  offset="0.4031" style="stop-color:#878787"/>
	<stop  offset="0.4449" style="stop-color:#A7A7A7"/>
	<stop  offset="0.4909" style="stop-color:#C3C3C3"/>
	<stop  offset="0.5313" style="stop-color:#D4D4D4"/>
	<stop  offset="0.5612" style="stop-color:#DADADA"/>
	<stop  offset="0.5935" style="stop-color:#D6D6D6;stop-opacity:0.892"/>
	<stop  offset="0.6259" style="stop-color:#CACACA;stop-opacity:0.7834"/>
	<stop  offset="0.6585" style="stop-color:#B6B6B6;stop-opacity:0.6746"/>
	<stop  offset="0.6911" style="stop-color:#999999;stop-opacity:0.5655"/>
	<stop  offset="0.7237" style="stop-color:#757575;stop-opacity:0.4563"/>
	<stop  offset="0.756" style="stop-color:#494949;stop-opacity:0.3483"/>
	<stop  offset="0.7704" style="stop-color:#333333;stop-opacity:0.3"/>
	<stop  offset="0.7716" style="stop-color:#363636;stop-opacity:0.3049"/>
	<stop  offset="0.7884" style="stop-color:#5C5C5C;stop-opacity:0.3726"/>
	<stop  offset="0.8064" style="stop-color:#7D7D7D;stop-opacity:0.4452"/>
	<stop  offset="0.8257" style="stop-color:#989898;stop-opacity:0.5231"/>
	<stop  offset="0.8467" style="stop-color:#ACACAC;stop-opacity:0.608"/>
	<stop  offset="0.8703" style="stop-color:#BBBBBB;stop-opacity:0.7032"/>
	<stop  offset="0.8986" style="stop-color:#C3C3C3;stop-opacity:0.8172"/>
	<stop  offset="0.9439" style="stop-color:#C6C6C6"/>
</linearGradient>
<path fill="url(#SVGID_1_)" d="M313.6,127.4V30.4c0-9-7.2-16.2-16.2-16.2h-262c-9,0-16.2,7.2-16.2,16.2v97L313.6,127.4L313.6,127.4z
	"/>
<g id="recorderPlaceholder">
	<path d="M35.3,313.9c-7.6,0-13.8-6.3-13.8-13.8V157.6c0-7.6,6.3-13.8,13.8-13.8h262.4c7.6,0,13.8,6.3,13.8,13.8v142.8
		c0,7.6-6.3,13.8-13.8,13.8H35.3V313.9z"/>
	<path fill="#C8C8C8" d="M297.6,146c6.4,0,11.6,5.3,11.6,11.6v142.8c0,6.4-5.3,11.6-11.6,11.6H35.3c-6.4,0-11.6-5.3-11.6-11.6v-143
		c0-6.4,5.2-11.6,11.6-11.6h262.4 M297.6,141.6H35.3c-8.8,0-16,7.2-16,16v142.8c0,8.8,7.2,16,16,16h262.4c8.8,0,16-7.2,16-16V157.4
		C313.6,148.6,306.4,141.6,297.6,141.6L297.6,141.6z"/>
</g>
<linearGradient id="SVGID_2_" gradientUnits="userSpaceOnUse" x1="-4022.4404" y1="-1796.7802" x2="-2310.7483" y2="-1796.7802" gradientTransform="matrix(0.1721 0 0 -0.1721 711.6126 134.1042)">
	<stop  offset="0" style="stop-color:#000000"/>
	<stop  offset="0.1224" style="stop-color:#FFFFFF"/>
	<stop  offset="0.2152" style="stop-color:#CCCCCC"/>
	<stop  offset="0.2966" style="stop-color:#A6A6A6"/>
	<stop  offset="0.3619" style="stop-color:#8F8F8F"/>
	<stop  offset="0.4031" style="stop-color:#878787"/>
	<stop  offset="0.4449" style="stop-color:#A7A7A7"/>
	<stop  offset="0.4909" style="stop-color:#C3C3C3"/>
	<stop  offset="0.5313" style="stop-color:#D4D4D4"/>
	<stop  offset="0.5612" style="stop-color:#DADADA"/>
	<stop  offset="0.5935" style="stop-color:#D6D6D6;stop-opacity:0.892"/>
	<stop  offset="0.6259" style="stop-color:#CACACA;stop-opacity:0.7834"/>
	<stop  offset="0.6585" style="stop-color:#B6B6B6;stop-opacity:0.6746"/>
	<stop  offset="0.6911" style="stop-color:#999999;stop-opacity:0.5655"/>
	<stop  offset="0.7237" style="stop-color:#757575;stop-opacity:0.4563"/>
	<stop  offset="0.756" style="stop-color:#494949;stop-opacity:0.3483"/>
	<stop  offset="0.7704" style="stop-color:#333333;stop-opacity:0.3"/>
	<stop  offset="0.7716" style="stop-color:#363636;stop-opacity:0.3049"/>
	<stop  offset="0.7884" style="stop-color:#5C5C5C;stop-opacity:0.3726"/>
	<stop  offset="0.8064" style="stop-color:#7D7D7D;stop-opacity:0.4452"/>
	<stop  offset="0.8257" style="stop-color:#989898;stop-opacity:0.5231"/>
	<stop  offset="0.8467" style="stop-color:#ACACAC;stop-opacity:0.608"/>
	<stop  offset="0.8703" style="stop-color:#BBBBBB;stop-opacity:0.7032"/>
	<stop  offset="0.8986" style="stop-color:#C3C3C3;stop-opacity:0.8172"/>
	<stop  offset="0.9439" style="stop-color:#C6C6C6"/>
</linearGradient>
<path fill="url(#SVGID_2_)" d="M19.3,407.9V465c0,7.6,7.2,13.8,16.2,13.8h262.3c9,0,16.2-6.3,16.2-13.8v-57.1
	C313.6,407.9,19.3,407.9,19.3,407.9z"/>
<g id="groupRec">
	<rect x="30.3" y="428.6" fill="#8A0602" stroke="#0C0C0C" stroke-miterlimit="10" width="44.6" height="71.4"/>
	<circle fill="#FFFFFF" cx="52.7" cy="464.4" r="10.8"/>
</g>
<g id="groupStop">
	<rect x="164.1" y="428.6" fill="#2D2D2D" stroke="#0C0C0C" stroke-miterlimit="10" width="44.6" height="71.4"/>
	<rect x="175.6" y="453.6" fill="#FFFFFF" width="21.4" height="21.4"/>
</g>
<g id="groupPlayPressed">
	<polygon fill="#2D2D2D" stroke="#0C0C0C" stroke-miterlimit="10" points="119.4,428.6 164.1,428.6 159.8,500 123.7,500 	"/>
	<polygon fill="#FFFFFF" points="133.3,457.2 133.6,468.1 133.9,478.3 150.1,468.1 	"/>
	<g>
		<polygon fill="#161616" stroke="#0C0C0C" stroke-linejoin="bevel" stroke-miterlimit="10" points="119.6,500 123.5,496.3 
			119.6,428.6 		"/>
		<polygon fill="#161616" stroke="#0C0C0C" stroke-linejoin="bevel" stroke-miterlimit="10" points="164.1,500.1 160.2,496.3 
			164.1,428.7 		"/>
	</g>
</g>
<g id="groupPlay">
	<rect x="119.4" y="428.6" fill="#2D2D2D" stroke="#0C0C0C" stroke-miterlimit="10" width="44.6" height="71.4"/>
	<polygon fill="#FFFFFF" points="132.6,453.6 132.6,464.4 132.6,475 151.1,464.4 	"/>
</g>
<g id="groupForwardPressed">
	<polygon fill="#2D2D2D" stroke="#0C0C0C" stroke-miterlimit="10" points="208.6,428.6 253.3,428.6 249,500 212.9,500 	"/>
	<g>
		<polygon fill="#FFFFFF" points="218.4,457.1 218.8,468.1 219.2,478.3 235.3,468.1 		"/>
		<polygon fill="#FFFFFF" points="226.6,457.1 226.7,468.1 226.8,478.3 243.2,468.1 		"/>
	</g>
	<g>
		<polygon fill="#161616" stroke="#0C0C0C" stroke-linejoin="bevel" stroke-miterlimit="10" points="208.6,500 212.6,496.2 
			208.6,428.6 		"/>
		<polygon fill="#161616" stroke="#0C0C0C" stroke-linejoin="bevel" stroke-miterlimit="10" points="253.2,500 249.3,496.3 
			253.2,428.6 		"/>
	</g>
</g>
<g id="groupForward">
	<rect x="208.6" y="428.6" fill="#2D2D2D" stroke="#0C0C0C" stroke-miterlimit="10" width="44.6" height="71.4"/>
	<g>
		<polygon fill="#FFFFFF" points="217.4,453.6 217.4,464.4 217.4,475 235.8,464.4 		"/>
		<polygon fill="#FFFFFF" points="226.2,453.6 226.2,464.4 226.2,475 244.7,464.4 		"/>
	</g>
</g>
<g id="groupBackPressed">
	<polygon fill="#2D2D2D" stroke="#0C0C0C" stroke-miterlimit="10" points="74.8,428.6 119.4,428.6 115.1,500 79.1,500 	"/>
	<g>
		<polygon fill="#FFFFFF" points="109,478.4 109.4,468.1 109.8,457.2 92.9,468.1 		"/>
		<polygon fill="#FFFFFF" points="101.4,478.4 101.5,468.1 101.6,457.2 85,468.1 		"/>
	</g>
	<g>
		<polygon fill="#161616" stroke="#0C0C0C" stroke-linejoin="bevel" stroke-miterlimit="10" points="74.9,500 78.8,496.2 
			74.9,428.6 		"/>
		<polygon fill="#161616" stroke="#0C0C0C" stroke-linejoin="bevel" stroke-miterlimit="10" points="119.4,500.1 115.4,496.3 
			119.4,428.7 		"/>
	</g>
</g>
<g id="groupBack">
	<rect x="74.8" y="428.6" fill="#2D2D2D" stroke="#0C0C0C" stroke-miterlimit="10" width="44.6" height="71.4"/>
	<g>
		<polygon fill="#FFFFFF" points="110.8,475 110.8,464.4 110.8,453.6 92.4,464.4 		"/>
		<polygon fill="#FFFFFF" points="102,475 102,464.4 102,453.6 83.6,464.4 		"/>
	</g>
</g>
<g id="groupEject">
	<rect x="253.3" y="428.6" fill="#2D2D2D" stroke="#0C0C0C" stroke-miterlimit="10" width="44.6" height="71.4"/>
	<g>
		<polygon fill="#FFFFFF" points="264.8,466.4 275.6,466.4 286.3,466.4 275.6,453 		"/>
		<rect x="264.8" y="469" fill="#FFFFFF" width="21.4" height="3.6"/>
	</g>
</g>
<circle id="RecordingLight" fill="#CC0000" cx="226.6" cy="342" r="9"/>
<g>
	<g>
		<circle fill="#040404" cx="38.3" cy="26.2" r="3.6"/>
		<circle fill="#040404" cx="51.8" cy="26.2" r="3.6"/>
		<circle fill="#040404" cx="65.3" cy="26.2" r="3.6"/>
		<circle fill="#040404" cx="78.9" cy="26.2" r="3.6"/>
		<circle fill="#040404" cx="92.2" cy="26.2" r="3.6"/>
		<circle fill="#040404" cx="105.8" cy="26.2" r="3.6"/>
		<circle fill="#040404" cx="119.2" cy="26.2" r="3.6"/>
		<circle fill="#040404" cx="132.6" cy="26.2" r="3.6"/>
		<circle fill="#040404" cx="146.3" cy="26.2" r="3.6"/>
		<circle fill="#040404" cx="159.9" cy="26.2" r="3.6"/>
		<circle fill="#040404" cx="173.2" cy="26.2" r="3.6"/>
		<circle fill="#040404" cx="186.6" cy="26.2" r="3.6"/>
		<circle fill="#040404" cx="200.3" cy="26.2" r="3.6"/>
		<circle fill="#040404" cx="213.6" cy="26.2" r="3.6"/>
		<circle fill="#040404" cx="227.3" cy="26.2" r="3.6"/>
		<circle fill="#040404" cx="240.6" cy="26.2" r="3.6"/>
		<circle fill="#040404" cx="254.2" cy="26.2" r="3.6"/>
		<circle fill="#040404" cx="267.6" cy="26.2" r="3.6"/>
		<circle fill="#040404" cx="281.2" cy="26.2" r="3.6"/>
		<circle fill="#040404" cx="44.7" cy="35.3" r="3.6"/>
		<circle fill="#040404" cx="58" cy="35.3" r="3.6"/>
		<circle fill="#040404" cx="71.4" cy="35.3" r="3.6"/>
		<circle fill="#040404" cx="85" cy="35.3" r="3.6"/>
		<circle fill="#040404" cx="98.6" cy="35.3" r="3.6"/>
		<circle fill="#040404" cx="112" cy="35.3" r="3.6"/>
		<circle fill="#040404" cx="125.4" cy="35.3" r="3.6"/>
		<circle fill="#040404" cx="139" cy="35.3" r="3.6"/>
		<circle fill="#040404" cx="152.4" cy="35.3" r="3.6"/>
		<circle fill="#040404" cx="166" cy="35.3" r="3.6"/>
		<circle fill="#040404" cx="179.4" cy="35.3" r="3.6"/>
		<circle fill="#040404" cx="192.8" cy="35.3" r="3.6"/>
		<circle fill="#040404" cx="206.5" cy="35.3" r="3.6"/>
		<circle fill="#040404" cx="220" cy="35.3" r="3.6"/>
		<circle fill="#040404" cx="233.4" cy="35.3" r="3.6"/>
		<circle fill="#040404" cx="246.8" cy="35.3" r="3.6"/>
		<circle fill="#040404" cx="260.4" cy="35.3" r="3.6"/>
		<circle fill="#040404" cx="273.8" cy="35.3" r="3.6"/>
		<circle fill="#040404" cx="287.4" cy="35.3" r="3.6"/>
		<circle fill="#040404" cx="294.6" cy="26.2" r="3.6"/>
	</g>
	<g>
		<circle fill="#040404" cx="38.3" cy="44" r="3.6"/>
		<circle fill="#040404" cx="51.8" cy="44" r="3.6"/>
		<circle fill="#040404" cx="65.3" cy="44" r="3.6"/>
		<circle fill="#040404" cx="78.9" cy="44" r="3.6"/>
		<circle fill="#040404" cx="92.2" cy="44" r="3.6"/>
		<circle fill="#040404" cx="105.8" cy="44" r="3.6"/>
		<circle fill="#040404" cx="119.2" cy="44" r="3.6"/>
		<circle fill="#040404" cx="132.6" cy="44" r="3.6"/>
		<circle fill="#040404" cx="146.3" cy="44" r="3.6"/>
		<circle fill="#040404" cx="159.9" cy="44" r="3.6"/>
		<circle fill="#040404" cx="173.2" cy="44" r="3.6"/>
		<circle fill="#040404" cx="186.6" cy="44" r="3.6"/>
		<circle fill="#040404" cx="200.3" cy="44" r="3.6"/>
		<circle fill="#040404" cx="213.6" cy="44" r="3.6"/>
		<circle fill="#040404" cx="227.3" cy="44" r="3.6"/>
		<circle fill="#040404" cx="240.6" cy="44" r="3.6"/>
		<circle fill="#040404" cx="254.2" cy="44" r="3.6"/>
		<circle fill="#040404" cx="267.6" cy="44" r="3.6"/>
		<circle fill="#040404" cx="281.2" cy="44" r="3.6"/>
		<circle fill="#040404" cx="44.7" cy="53.1" r="3.6"/>
		<circle fill="#040404" cx="58" cy="53.1" r="3.6"/>
		<circle fill="#040404" cx="71.4" cy="53.1" r="3.6"/>
		<circle fill="#040404" cx="85" cy="53.1" r="3.6"/>
		<circle fill="#040404" cx="98.6" cy="53.1" r="3.6"/>
		<circle fill="#040404" cx="112" cy="53.1" r="3.6"/>
		<circle fill="#040404" cx="125.4" cy="53.1" r="3.6"/>
		<circle fill="#040404" cx="139" cy="53.1" r="3.6"/>
		<circle fill="#040404" cx="152.4" cy="53.1" r="3.6"/>
		<circle fill="#040404" cx="166" cy="53.1" r="3.6"/>
		<circle fill="#040404" cx="179.4" cy="53.1" r="3.6"/>
		<circle fill="#040404" cx="192.8" cy="53.1" r="3.6"/>
		<circle fill="#040404" cx="206.5" cy="53.1" r="3.6"/>
		<circle fill="#040404" cx="220" cy="53.1" r="3.6"/>
		<circle fill="#040404" cx="233.4" cy="53.1" r="3.6"/>
		<circle fill="#040404" cx="246.8" cy="53.1" r="3.6"/>
		<circle fill="#040404" cx="260.4" cy="53.1" r="3.6"/>
		<circle fill="#040404" cx="273.8" cy="53.1" r="3.6"/>
		<circle fill="#040404" cx="287.4" cy="53.1" r="3.6"/>
		<circle fill="#040404" cx="294.6" cy="44" r="3.6"/>
	</g>
	<g>
		<circle fill="#040404" cx="38.3" cy="61.9" r="3.6"/>
		<circle fill="#040404" cx="51.8" cy="61.9" r="3.6"/>
		<circle fill="#040404" cx="65.3" cy="61.9" r="3.6"/>
		<circle fill="#040404" cx="78.9" cy="61.9" r="3.6"/>
		<circle fill="#040404" cx="92.2" cy="61.9" r="3.6"/>
		<circle fill="#040404" cx="105.8" cy="61.9" r="3.6"/>
		<circle fill="#040404" cx="119.2" cy="61.9" r="3.6"/>
		<circle fill="#040404" cx="132.6" cy="61.9" r="3.6"/>
		<circle fill="#040404" cx="146.3" cy="61.9" r="3.6"/>
		<circle fill="#040404" cx="159.9" cy="61.9" r="3.6"/>
		<circle fill="#040404" cx="173.2" cy="61.9" r="3.6"/>
		<circle fill="#040404" cx="186.6" cy="61.9" r="3.6"/>
		<circle fill="#040404" cx="200.3" cy="61.9" r="3.6"/>
		<circle fill="#040404" cx="213.6" cy="61.9" r="3.6"/>
		<circle fill="#040404" cx="227.3" cy="61.9" r="3.6"/>
		<circle fill="#040404" cx="240.6" cy="61.9" r="3.6"/>
		<circle fill="#040404" cx="254.2" cy="61.9" r="3.6"/>
		<circle fill="#040404" cx="267.6" cy="61.9" r="3.6"/>
		<circle fill="#040404" cx="281.2" cy="61.9" r="3.6"/>
		<circle fill="#040404" cx="44.7" cy="70.8" r="3.6"/>
		<circle fill="#040404" cx="58" cy="70.8" r="3.6"/>
		<circle fill="#040404" cx="71.4" cy="70.8" r="3.6"/>
		<circle fill="#040404" cx="85" cy="70.8" r="3.6"/>
		<circle fill="#040404" cx="98.6" cy="70.8" r="3.6"/>
		<circle fill="#040404" cx="112" cy="70.8" r="3.6"/>
		<circle fill="#040404" cx="125.4" cy="70.8" r="3.6"/>
		<circle fill="#040404" cx="139" cy="70.8" r="3.6"/>
		<circle fill="#040404" cx="152.4" cy="70.8" r="3.6"/>
		<circle fill="#040404" cx="166" cy="70.8" r="3.6"/>
		<circle fill="#040404" cx="179.4" cy="70.8" r="3.6"/>
		<circle fill="#040404" cx="192.8" cy="70.8" r="3.6"/>
		<circle fill="#040404" cx="206.5" cy="70.8" r="3.6"/>
		<circle fill="#040404" cx="220" cy="70.8" r="3.6"/>
		<circle fill="#040404" cx="233.4" cy="70.8" r="3.6"/>
		<circle fill="#040404" cx="246.8" cy="70.8" r="3.6"/>
		<circle fill="#040404" cx="260.4" cy="70.8" r="3.6"/>
		<circle fill="#040404" cx="273.8" cy="70.8" r="3.6"/>
		<circle fill="#040404" cx="287.4" cy="70.8" r="3.6"/>
		<circle fill="#040404" cx="294.6" cy="61.9" r="3.6"/>
	</g>
	<g>
		<circle fill="#040404" cx="38.3" cy="79.8" r="3.6"/>
		<circle fill="#040404" cx="51.8" cy="79.8" r="3.6"/>
		<circle fill="#040404" cx="65.3" cy="79.8" r="3.6"/>
		<circle fill="#040404" cx="78.9" cy="79.8" r="3.6"/>
		<circle fill="#040404" cx="92.2" cy="79.8" r="3.6"/>
		<circle fill="#040404" cx="105.8" cy="79.8" r="3.6"/>
		<circle fill="#040404" cx="119.2" cy="79.8" r="3.6"/>
		<circle fill="#040404" cx="132.6" cy="79.8" r="3.6"/>
		<circle fill="#040404" cx="146.3" cy="79.8" r="3.6"/>
		<circle fill="#040404" cx="159.9" cy="79.8" r="3.6"/>
		<circle fill="#040404" cx="173.2" cy="79.8" r="3.6"/>
		<circle fill="#040404" cx="186.6" cy="79.8" r="3.6"/>
		<circle fill="#040404" cx="200.3" cy="79.8" r="3.6"/>
		<circle fill="#040404" cx="213.6" cy="79.8" r="3.6"/>
		<circle fill="#040404" cx="227.3" cy="79.8" r="3.6"/>
		<circle fill="#040404" cx="240.6" cy="79.8" r="3.6"/>
		<circle fill="#040404" cx="254.2" cy="79.8" r="3.6"/>
		<circle fill="#040404" cx="267.6" cy="79.8" r="3.6"/>
		<circle fill="#040404" cx="281.2" cy="79.8" r="3.6"/>
		<circle fill="#040404" cx="44.7" cy="88.6" r="3.6"/>
		<circle fill="#040404" cx="58" cy="88.6" r="3.6"/>
		<circle fill="#040404" cx="71.4" cy="88.6" r="3.6"/>
		<circle fill="#040404" cx="85" cy="88.6" r="3.6"/>
		<circle fill="#040404" cx="98.6" cy="88.6" r="3.6"/>
		<circle fill="#040404" cx="112" cy="88.6" r="3.6"/>
		<circle fill="#040404" cx="125.4" cy="88.6" r="3.6"/>
		<circle fill="#040404" cx="139" cy="88.6" r="3.6"/>
		<circle fill="#040404" cx="152.4" cy="88.6" r="3.6"/>
		<circle fill="#040404" cx="166" cy="88.6" r="3.6"/>
		<circle fill="#040404" cx="179.4" cy="88.6" r="3.6"/>
		<circle fill="#040404" cx="192.8" cy="88.6" r="3.6"/>
		<circle fill="#040404" cx="206.5" cy="88.6" r="3.6"/>
		<circle fill="#040404" cx="220" cy="88.6" r="3.6"/>
		<circle fill="#040404" cx="233.4" cy="88.6" r="3.6"/>
		<circle fill="#040404" cx="246.8" cy="88.6" r="3.6"/>
		<circle fill="#040404" cx="260.4" cy="88.6" r="3.6"/>
		<circle fill="#040404" cx="273.8" cy="88.6" r="3.6"/>
		<circle fill="#040404" cx="287.4" cy="88.6" r="3.6"/>
		<circle fill="#040404" cx="294.6" cy="79.8" r="3.6"/>
	</g>
	<g>
		<circle fill="#040404" cx="38.3" cy="97.6" r="3.6"/>
		<circle fill="#040404" cx="51.8" cy="97.6" r="3.6"/>
		<circle fill="#040404" cx="65.3" cy="97.6" r="3.6"/>
		<circle fill="#040404" cx="78.9" cy="97.6" r="3.6"/>
		<circle fill="#040404" cx="92.2" cy="97.6" r="3.6"/>
		<circle fill="#040404" cx="105.8" cy="97.6" r="3.6"/>
		<circle fill="#040404" cx="119.2" cy="97.6" r="3.6"/>
		<circle fill="#040404" cx="132.6" cy="97.6" r="3.6"/>
		<circle fill="#040404" cx="146.3" cy="97.6" r="3.6"/>
		<circle fill="#040404" cx="159.9" cy="97.6" r="3.6"/>
		<circle fill="#040404" cx="173.2" cy="97.6" r="3.6"/>
		<circle fill="#040404" cx="186.6" cy="97.6" r="3.6"/>
		<circle fill="#040404" cx="200.3" cy="97.6" r="3.6"/>
		<circle fill="#040404" cx="213.6" cy="97.6" r="3.6"/>
		<circle fill="#040404" cx="227.3" cy="97.6" r="3.6"/>
		<circle fill="#040404" cx="240.6" cy="97.6" r="3.6"/>
		<circle fill="#040404" cx="254.2" cy="97.6" r="3.6"/>
		<circle fill="#040404" cx="267.6" cy="97.6" r="3.6"/>
		<circle fill="#040404" cx="281.2" cy="97.6" r="3.6"/>
		<circle fill="#040404" cx="44.7" cy="106.6" r="3.6"/>
		<circle fill="#040404" cx="58" cy="106.6" r="3.6"/>
		<circle fill="#040404" cx="71.4" cy="106.6" r="3.6"/>
		<circle fill="#040404" cx="85" cy="106.6" r="3.6"/>
		<circle fill="#040404" cx="98.6" cy="106.6" r="3.6"/>
		<circle fill="#040404" cx="112" cy="106.6" r="3.6"/>
		<circle fill="#040404" cx="125.4" cy="106.6" r="3.6"/>
		<circle fill="#040404" cx="139" cy="106.6" r="3.6"/>
		<circle fill="#040404" cx="152.4" cy="106.6" r="3.6"/>
		<circle fill="#040404" cx="166" cy="106.6" r="3.6"/>
		<circle fill="#040404" cx="179.4" cy="106.6" r="3.6"/>
		<circle fill="#040404" cx="192.8" cy="106.6" r="3.6"/>
		<circle fill="#040404" cx="206.5" cy="106.6" r="3.6"/>
		<circle fill="#040404" cx="220" cy="106.6" r="3.6"/>
		<circle fill="#040404" cx="233.4" cy="106.6" r="3.6"/>
		<circle fill="#040404" cx="246.8" cy="106.6" r="3.6"/>
		<circle fill="#040404" cx="260.4" cy="106.6" r="3.6"/>
		<circle fill="#040404" cx="273.8" cy="106.6" r="3.6"/>
		<circle fill="#040404" cx="287.4" cy="106.6" r="3.6"/>
		<circle fill="#040404" cx="294.6" cy="97.6" r="3.6"/>
	</g>
	<g>
		<circle fill="#040404" cx="38.3" cy="115.4" r="3.6"/>
		<circle fill="#040404" cx="51.8" cy="115.4" r="3.6"/>
		<circle fill="#040404" cx="65.3" cy="115.4" r="3.6"/>
		<circle fill="#040404" cx="78.9" cy="115.4" r="3.6"/>
		<circle fill="#040404" cx="92.2" cy="115.4" r="3.6"/>
		<circle fill="#040404" cx="105.8" cy="115.4" r="3.6"/>
		<circle fill="#040404" cx="119.2" cy="115.4" r="3.6"/>
		<circle fill="#040404" cx="132.6" cy="115.4" r="3.6"/>
		<circle fill="#040404" cx="146.3" cy="115.4" r="3.6"/>
		<circle fill="#040404" cx="159.9" cy="115.4" r="3.6"/>
		<circle fill="#040404" cx="173.2" cy="115.4" r="3.6"/>
		<circle fill="#040404" cx="186.6" cy="115.4" r="3.6"/>
		<circle fill="#040404" cx="200.3" cy="115.4" r="3.6"/>
		<circle fill="#040404" cx="213.6" cy="115.4" r="3.6"/>
		<circle fill="#040404" cx="227.3" cy="115.4" r="3.6"/>
		<circle fill="#040404" cx="240.6" cy="115.4" r="3.6"/>
		<circle fill="#040404" cx="254.2" cy="115.4" r="3.6"/>
		<circle fill="#040404" cx="267.6" cy="115.4" r="3.6"/>
		<circle fill="#040404" cx="281.2" cy="115.4" r="3.6"/>
		<circle fill="#040404" cx="294.6" cy="115.4" r="3.6"/>
	</g>
</g>
<g>
	
		<linearGradient id="SVGID_3_" gradientUnits="userSpaceOnUse" x1="-2337.6184" y1="-1207.6371" x2="-2697.8215" y2="-1207.6371" gradientTransform="matrix(0.1721 0 0 -0.1721 711.6126 134.1042)">
		<stop  offset="0" style="stop-color:#000000"/>
		<stop  offset="0.1224" style="stop-color:#FFFFFF"/>
		<stop  offset="0.2152" style="stop-color:#CCCCCC"/>
		<stop  offset="0.2966" style="stop-color:#A6A6A6"/>
		<stop  offset="0.3619" style="stop-color:#8F8F8F"/>
		<stop  offset="0.4031" style="stop-color:#878787"/>
		<stop  offset="0.4449" style="stop-color:#A7A7A7"/>
		<stop  offset="0.4909" style="stop-color:#C3C3C3"/>
		<stop  offset="0.5313" style="stop-color:#D4D4D4"/>
		<stop  offset="0.5612" style="stop-color:#DADADA"/>
		<stop  offset="0.5935" style="stop-color:#D6D6D6;stop-opacity:0.892"/>
		<stop  offset="0.6259" style="stop-color:#CACACA;stop-opacity:0.7834"/>
		<stop  offset="0.6585" style="stop-color:#B6B6B6;stop-opacity:0.6746"/>
		<stop  offset="0.6911" style="stop-color:#999999;stop-opacity:0.5655"/>
		<stop  offset="0.7237" style="stop-color:#757575;stop-opacity:0.4563"/>
		<stop  offset="0.756" style="stop-color:#494949;stop-opacity:0.3483"/>
		<stop  offset="0.7704" style="stop-color:#333333;stop-opacity:0.3"/>
		<stop  offset="0.7716" style="stop-color:#363636;stop-opacity:0.3049"/>
		<stop  offset="0.7884" style="stop-color:#5C5C5C;stop-opacity:0.3726"/>
		<stop  offset="0.8064" style="stop-color:#7D7D7D;stop-opacity:0.4452"/>
		<stop  offset="0.8257" style="stop-color:#989898;stop-opacity:0.5231"/>
		<stop  offset="0.8467" style="stop-color:#ACACAC;stop-opacity:0.608"/>
		<stop  offset="0.8703" style="stop-color:#BBBBBB;stop-opacity:0.7032"/>
		<stop  offset="0.8986" style="stop-color:#C3C3C3;stop-opacity:0.8172"/>
		<stop  offset="0.9439" style="stop-color:#C6C6C6"/>
	</linearGradient>
	<path fill="url(#SVGID_3_)" d="M309.3,352.6c0,1.6-1.3,2.6-2.6,2.6h-56.9c-1.6,0-2.6-1.3-2.6-2.6v-21.2c0-1.6,1.3-2.6,2.6-2.6h56.6
		c1.6,0,2.6,1.3,2.6,2.6v21.2H309.3z"/>
	<rect x="251.6" y="332.6" fill="#020202" width="2.1" height="19.4"/>
	<rect x="255.2" y="332.6" fill="#020202" width="2.1" height="19.4"/>
	<rect x="259" y="332.6" fill="#020202" width="2.1" height="19.4"/>
	<rect x="262.6" y="332.6" fill="#020202" width="2.1" height="19.4"/>
	<rect x="266.3" y="332.6" fill="#020202" width="2.1" height="19.4"/>
	<rect x="269.9" y="332.6" fill="#020202" width="2.1" height="19.4"/>
	<rect x="273.4" y="332.6" fill="#020202" width="2.1" height="19.4"/>
	<rect x="277.2" y="332.6" fill="#020202" width="2.1" height="19.4"/>
	<rect x="280.8" y="332.6" fill="#020202" width="2.1" height="19.4"/>
	<rect x="284.4" y="332.6" fill="#020202" width="2.1" height="19.4"/>
	<rect x="288.1" y="332.6" fill="#020202" width="2.1" height="19.4"/>
	<rect x="291.8" y="332.6" fill="#020202" width="2.1" height="19.4"/>
	<rect x="295.4" y="332.6" fill="#020202" width="2.1" height="19.4"/>
	<rect x="299" y="332.6" fill="#020202" width="2.1" height="19.4"/>
	<rect x="302.6" y="332.6" fill="#020202" width="2.1" height="19.4"/>
</g>
<g id="groupCounter">
	
		<linearGradient id="SVGID_4_" gradientUnits="userSpaceOnUse" x1="-4038.1096" y1="-1208.3634" x2="-3671.1621" y2="-1208.3634" gradientTransform="matrix(0.1721 0 0 -0.1721 711.6126 134.1042)">
		<stop  offset="0" style="stop-color:#000000"/>
		<stop  offset="0.1224" style="stop-color:#FFFFFF"/>
		<stop  offset="0.2152" style="stop-color:#CCCCCC"/>
		<stop  offset="0.2966" style="stop-color:#A6A6A6"/>
		<stop  offset="0.3619" style="stop-color:#8F8F8F"/>
		<stop  offset="0.4031" style="stop-color:#878787"/>
		<stop  offset="0.4449" style="stop-color:#A7A7A7"/>
		<stop  offset="0.4909" style="stop-color:#C3C3C3"/>
		<stop  offset="0.5313" style="stop-color:#D4D4D4"/>
		<stop  offset="0.5612" style="stop-color:#DADADA"/>
		<stop  offset="0.5935" style="stop-color:#D6D6D6;stop-opacity:0.892"/>
		<stop  offset="0.6259" style="stop-color:#CACACA;stop-opacity:0.7834"/>
		<stop  offset="0.6585" style="stop-color:#B6B6B6;stop-opacity:0.6746"/>
		<stop  offset="0.6911" style="stop-color:#999999;stop-opacity:0.5655"/>
		<stop  offset="0.7237" style="stop-color:#757575;stop-opacity:0.4563"/>
		<stop  offset="0.756" style="stop-color:#494949;stop-opacity:0.3483"/>
		<stop  offset="0.7704" style="stop-color:#333333;stop-opacity:0.3"/>
		<stop  offset="0.7716" style="stop-color:#363636;stop-opacity:0.3049"/>
		<stop  offset="0.7884" style="stop-color:#5C5C5C;stop-opacity:0.3726"/>
		<stop  offset="0.8064" style="stop-color:#7D7D7D;stop-opacity:0.4452"/>
		<stop  offset="0.8257" style="stop-color:#989898;stop-opacity:0.5231"/>
		<stop  offset="0.8467" style="stop-color:#ACACAC;stop-opacity:0.608"/>
		<stop  offset="0.8703" style="stop-color:#BBBBBB;stop-opacity:0.7032"/>
		<stop  offset="0.8986" style="stop-color:#C3C3C3;stop-opacity:0.8172"/>
		<stop  offset="0.9439" style="stop-color:#C6C6C6"/>
	</linearGradient>
	<path fill="url(#SVGID_4_)" d="M79.6,351.9c0,1.6-1.3,2.6-2.6,2.6H19.3c-1.6,0-2.6-1.3-2.6-2.6v-19.6c0-1.6,1.3-2.6,2.6-2.6H77
		c1.6,0,2.6,1.3,2.6,2.6V351.9L79.6,351.9z"/>
	<rect x="20.8" y="332.4" width="54.6" height="19.2"/>
	<rect x="23.3" y="333" fill="#222222" width="14.2" height="17.8"/>
	<rect x="40.9" y="333" fill="#222222" width="14.2" height="17.8"/>
	<rect x="58.8" y="333" fill="#222222" width="14.2" height="17.8"/>
	<g>
		
			<text id="txtCounter1" transform="matrix(1 0 0 1 25.5154 347.1573)" fill="#FFFFFF" font-family="'MyriadPro-Regular'" font-size="17.8404">0</text>
		
			<text id="txtCounter2" transform="matrix(1 0 0 1 43.3562 347.1573)" fill="#FFFFFF" font-family="'MyriadPro-Regular'" font-size="17.8404">0</text>
		
			<text id="txtCounter3" transform="matrix(1 0 0 1 61.1951 347.1573)" fill="#FFFFFF" font-family="'MyriadPro-Regular'" font-size="17.8404">0</text>
	</g>
</g>
<text id="txtRec" transform="matrix(1 0 0 1 178.5593 347.1573)" fill="#FFFFFF" font-family="'MyriadPro-Regular'" font-size="17.8404">Rec.</text>
<g id="groupLCD">
	<rect id="rectLCD" x="129.7" y="365.1" width="73.8" height="33.8"/>
	<text id="txtLCD" transform="matrix(1 0 0 1 137.5534 389.8583)" fill="#FF0000" font-family="'LCDReg'" font-size="26.7608">00:00</text>
</g>
<text id="lblDrag" transform="matrix(1 0 0 1 118.7108 233.6289)" fill="#EDEDED" font-family="'MyriadPro-Regular'" font-size="15.7407">Drag and drop</text>
<g id="Cassette">
	<path fill="none" stroke="#231F20" stroke-width="0.5084" d="M222.8,227L222.8,227l-3.4-1.9l-1.8,2.9l3.5,2.1
		c-1.9,2.7-4.8,4.5-8.2,5.1v-4.1h-3.4v4.1c-3.3-0.4-6.3-2.1-8.4-4.5v-0.1l3.4-1.9l-1.7-2.9l-3.5,2.1c-0.6-1.5-1.1-3.4-1.1-5.1
		c0-1.5,0.3-3.1,0.8-4.4l3.5,1.9l1.7-2.9l-3.5-2.1c1.9-2.6,4.7-4.4,8.1-5h0.1v4h3.4v-4.1c3.4,0.3,6.3,1.9,8.3,4.4l0.1,0.2l-3.4,1.9
		l1.7,2.9l3.5-2.1c0.7,1.5,1.1,3.3,1.1,5.1C223.4,224.3,223.1,225.7,222.8,227z"/>
	<path fill="#484849" d="M273.9,259.3h-2.4v-92.6c0-2.9-2.4-5.2-5.3-5.2H64.4c-2.9,0-5.2,2.4-5.2,5.2v92.6h-2.1
		c-0.8,0-1.5,0.6-1.5,1.4v24.9c0,0.8,0.6,1.4,1.5,1.4h2.1v4.8c0,2.9,3.5,4.8,6.3,4.8h200.8c2.9,0,5.3-2.4,5.3-5.3l-0.1-4.3h2.4
		c0.8,0,1.4-0.6,1.4-1.4v-24.9C275.4,259.9,274.8,259.3,273.9,259.3z M132.1,227L132.1,227l-3.4-1.9l-1.7,2.9l3.5,2.1
		c-1.9,2.7-4.8,4.5-8.2,5.1v-4.1h-3.4v4.1c-3.3-0.4-6.3-2.1-8.4-4.5v-0.1l3.4-1.9l-1.8-2.9l-3.5,2.1c-0.6-1.5-1.1-3.4-1.1-5.1
		c0-1.5,0.3-3.1,0.8-4.4l3.5,1.9l1.8-2.9l-3.5-2.1c1.9-2.6,4.8-4.4,8.1-5h0.1v4h3.4v-4.1c3.4,0.3,6.3,1.9,8.3,4.4l0.1,0.2l-3.4,1.9
		l1.7,2.9l3.5-2.1c0.7,1.5,1.1,3.3,1.1,5.1C132.9,224.3,132.6,225.7,132.1,227z M222.8,227L222.8,227l-3.4-1.9l-1.8,2.9l3.5,2.1
		c-1.9,2.7-4.8,4.5-8.2,5.1v-4.1h-3.4v4.1c-3.3-0.4-6.3-2.1-8.4-4.5v-0.1l3.4-1.9l-1.7-2.9l-3.5,2.1c-0.6-1.5-1.1-3.4-1.1-5.1
		c0-1.5,0.3-3.1,0.8-4.4l3.5,1.9l1.7-2.9l-3.5-2.1c1.9-2.6,4.7-4.4,8.1-5h0.1v4h3.4v-4.1c3.4,0.3,6.3,1.9,8.3,4.4l0.1,0.2l-3.4,1.9
		l1.7,2.9l3.5-2.1c0.7,1.5,1.1,3.3,1.1,5.1C223.4,224.3,223.1,225.7,222.8,227z"/>
	<path fill="#F9F9F9" stroke="#231F20" stroke-width="0.5084" d="M253.4,170.5h-83.9h-7.2h-84l-8.6,8.7v80.7h95.1h1.9h95.1v-80.7
		L253.4,170.5z M132.1,227L132.1,227l-3.4-1.9l-1.7,2.9l3.5,2.1c-1.9,2.7-4.8,4.5-8.2,5.1v-4.1h-3.4v4.1c-3.3-0.4-6.3-2.1-8.4-4.5
		v-0.1l3.4-1.9l-1.8-2.9l-3.5,2.1c-0.6-1.5-1.1-3.4-1.1-5.1c0-1.5,0.3-3.1,0.8-4.4l3.5,1.9l1.8-2.9l-3.5-2.1c1.9-2.6,4.8-4.4,8.1-5
		h0.1v4h3.4v-4.1c3.4,0.3,6.3,1.9,8.3,4.4l0.1,0.2l-3.4,1.9l1.7,2.9l3.5-2.1c0.7,1.5,1.1,3.3,1.1,5.1
		C132.9,224.3,132.6,225.7,132.1,227z M222.8,227L222.8,227l-3.4-1.9l-1.8,2.9l3.5,2.1c-1.9,2.7-4.8,4.5-8.2,5.1v-4.1h-3.4v4.1
		c-3.3-0.4-6.3-2.1-8.4-4.5v-0.1l3.4-1.9l-1.7-2.9l-3.5,2.1c-0.6-1.5-1.1-3.4-1.1-5.1c0-1.5,0.3-3.1,0.8-4.4l3.5,1.9l1.7-2.9
		l-3.5-2.1c1.9-2.6,4.7-4.4,8.1-5h0.1v4h3.4v-4.1c3.4,0.3,6.3,1.9,8.3,4.4l0.1,0.2l-3.4,1.9l1.7,2.9l3.5-2.1
		c0.7,1.5,1.1,3.3,1.1,5.1C223.4,224.3,223.1,225.7,222.8,227z"/>
	<path fill="#4FB3DB" stroke="#231F20" stroke-width="0.5084" d="M76.1,200.4v53.7h179.8v-53.7H76.1L76.1,200.4z M132.1,227
		L132.1,227l-3.4-1.9l-1.7,2.9l3.5,2.1c-1.9,2.7-4.8,4.5-8.2,5.1v-4.1h-3.4v4.1c-3.3-0.4-6.3-2.1-8.4-4.5v-0.1l3.4-1.9l-1.8-2.9
		l-3.5,2.1c-0.6-1.5-1.1-3.4-1.1-5.1c0-1.5,0.3-3.1,0.8-4.4l3.5,1.9l1.8-2.9l-3.5-2.1c1.9-2.6,4.8-4.4,8.1-5h0.1v4h3.4v-4.1
		c3.4,0.3,6.3,1.9,8.3,4.4l0.1,0.2l-3.4,1.9l1.7,2.9l3.5-2.1c0.7,1.5,1.1,3.3,1.1,5.1C132.9,224.3,132.6,225.7,132.1,227z
		 M222.8,227L222.8,227l-3.4-1.9l-1.8,2.9l3.5,2.1c-1.9,2.7-4.8,4.5-8.2,5.1v-4.1h-3.4v4.1c-3.3-0.4-6.3-2.1-8.4-4.5v-0.1l3.4-1.9
		l-1.7-2.9l-3.5,2.1c-0.6-1.5-1.1-3.4-1.1-5.1c0-1.5,0.3-3.1,0.8-4.4l3.5,1.9l1.7-2.9l-3.5-2.1c1.9-2.6,4.7-4.4,8.1-5h0.1v4h3.4
		v-4.1c3.4,0.3,6.3,1.9,8.3,4.4l0.1,0.2l-3.4,1.9l1.7,2.9l3.5-2.1c0.7,1.5,1.1,3.3,1.1,5.1C223.4,224.3,223.1,225.7,222.8,227z"/>
	<path fill="#F1F1F2" stroke="#231F20" stroke-width="0.5084" d="M212.1,204.9H118c-9.9,0-18,8.1-18,18c0,9.9,8.1,18,18,18h94.1
		c9.9,0,18-8.1,18-18C230.1,212.9,222.1,204.9,212.1,204.9z M132.1,227L132.1,227l-3.4-1.9l-1.7,2.9l3.5,2.1
		c-1.9,2.7-4.8,4.5-8.2,5.1v-4.1h-3.4v4.1c-3.3-0.4-6.3-2.1-8.4-4.5v-0.1l3.4-1.9l-1.8-2.9l-3.5,2.1c-0.6-1.5-1.1-3.4-1.1-5.1
		c0-1.5,0.3-3.1,0.8-4.4l3.5,1.9l1.8-2.9l-3.5-2.1c1.9-2.6,4.8-4.4,8.1-5h0.1v4h3.4v-4.1c3.4,0.3,6.3,1.9,8.3,4.4l0.1,0.2l-3.4,1.9
		l1.7,2.9l3.5-2.1c0.7,1.5,1.1,3.3,1.1,5.1C132.9,224.3,132.6,225.7,132.1,227z M222.8,227L222.8,227l-3.4-1.9l-1.8,2.9l3.5,2.1
		c-1.9,2.7-4.8,4.5-8.2,5.1v-4.1h-3.4v4.1c-3.3-0.4-6.3-2.1-8.4-4.5v-0.1l3.4-1.9l-1.7-2.9l-3.5,2.1c-0.6-1.5-1.1-3.4-1.1-5.1
		c0-1.5,0.3-3.1,0.8-4.4l3.5,1.9l1.7-2.9l-3.5-2.1c1.9-2.6,4.7-4.4,8.1-5h0.1v4h3.4v-4.1c3.4,0.3,6.3,1.9,8.3,4.4l0.1,0.2l-3.4,1.9
		l1.7,2.9l3.5-2.1c0.7,1.5,1.1,3.3,1.1,5.1C223.4,224.3,223.1,225.7,222.8,227z"/>
	<path fill="none" stroke="#231F20" stroke-width="3.0507" d="M273.9,259.3h-2.4v-92.6c0-2.9-2.4-5.2-5.3-5.2H64.4
		c-2.9,0-5.2,2.4-5.2,5.2v92.6h-2.1c-0.8,0-1.5,0.6-1.5,1.4v24.9c0,0.8,0.6,1.4,1.5,1.4h2.1v4.8c0,2.9,3.5,4.8,6.3,4.8h200.8
		c2.9,0,5.3-2.4,5.3-5.3l-0.1-4.3h2.4c0.8,0,1.4-0.6,1.4-1.4v-24.9C275.4,259.9,274.8,259.3,273.9,259.3z"/>
	<polyline fill="none" stroke="#231F20" stroke-width="1.5253" points="239.7,296.1 232.2,263.9 168.1,263.9 163.6,263.9 
		99.4,263.9 91.9,296.1 	"/>
	<polygon fill="none" stroke="#231F20" stroke-width="0.5084" points="166.7,258.4 260.6,258.4 260.6,180.4 252.1,172.1 
		169.4,172.1 162.2,172.1 79.5,172.1 70.9,180.4 70.9,258.4 164.8,258.4 	"/>
	<line fill="none" stroke="#231F20" stroke-width="0.5084" x1="59" y1="258.8" x2="59" y2="286.7"/>
	<line fill="none" stroke="#231F20" stroke-width="0.5084" x1="61.1" y1="258.8" x2="61.1" y2="286.7"/>
	<line fill="none" stroke="#231F20" stroke-width="0.5084" x1="269.6" y1="258.8" x2="269.6" y2="286.7"/>
	<line fill="none" stroke="#231F20" stroke-width="0.5084" x1="271.7" y1="258.8" x2="271.7" y2="286.7"/>
	<g>
		<path fill="#D0D2D3" stroke="#231F20" stroke-width="0.5084" d="M120.3,208.1c-8.1,0-14.6,6.6-14.6,14.6c0,8.1,6.6,14.6,14.6,14.6
			c8.1,0,14.6-6.6,14.6-14.6C135,214.6,128.3,208.1,120.3,208.1z M132.9,222.8c0,1.5-0.3,2.9-0.7,4.3l-0.1,0.1l-3.4-1.9l-1.7,2.9
			l3.5,2.1c-1.9,2.7-4.8,4.5-8.2,5.1v-4.1H119v4.1c-3.3-0.4-6.3-2.1-8.4-4.5v-0.1l3.4-1.9l-1.7-2.9l-3.5,2.1
			c-0.6-1.5-1.1-3.4-1.1-5.1c0-1.5,0.3-3.1,0.8-4.4l3.5,1.9l1.7-2.9l-3.5-2.1c1.9-2.6,4.8-4.4,8.1-5h0.1v4h3.4v-4.1
			c3.4,0.3,6.3,1.9,8.3,4.4l0.1,0.2l-3.4,1.9l1.7,2.9l3.5-2.1C132.6,219.1,132.9,220.9,132.9,222.8z"/>
		<path fill="#D0D2D3" stroke="#231F20" stroke-width="0.5084" d="M210.9,208.1c-8.1,0-14.6,6.6-14.6,14.6c0,8.1,6.6,14.6,14.6,14.6
			c8.1,0,14.6-6.6,14.6-14.6C225.5,214.6,218.9,208.1,210.9,208.1z M222.6,227.1l-3.4-1.9l-1.8,2.9l3.5,2.1
			c-1.9,2.7-4.8,4.5-8.2,5.1v-4.1h-3.4v4.1c-3.3-0.4-6.3-2.1-8.4-4.5v-0.1l3.4-1.9l-1.7-2.9l-3.5,2.1c-0.6-1.5-1.1-3.4-1.1-5.1
			c0-1.5,0.3-3.1,0.8-4.4l3.5,1.9l1.7-2.9l-3.5-2.1c1.9-2.6,4.7-4.4,8.1-5h0.1v4h3.4v-4.1c3.4,0.3,6.3,1.9,8.3,4.4l0.1,0.2l-3.4,1.9
			l1.7,2.9l3.5-2.1c0.7,1.5,1.1,3.3,1.1,5.1c0,1.5-0.3,2.9-0.7,4.3L222.6,227.1z"/>
	</g>
	<g>
		<g>
			<g>
				<g>
					<defs>
						<polygon id="SVGID_5_" points="239.7,296.1 232.2,263.9 168.1,263.9 163.6,263.9 99.4,263.9 91.9,296.1 						"/>
					</defs>
					<clipPath id="SVGID_6_">
						<use xlink:href="#SVGID_5_"  overflow="visible"/>
					</clipPath>
					<g clip-path="url(#SVGID_6_)">
						<line fill="none" stroke="#231F20" stroke-width="0.5084" x1="91.1" y1="266.1" x2="241.8" y2="266.1"/>
						<line fill="none" stroke="#231F20" stroke-width="0.5084" x1="91.1" y1="267.6" x2="241.8" y2="267.6"/>
						<line fill="none" stroke="#231F20" stroke-width="0.5084" x1="91.1" y1="269.1" x2="241.8" y2="269.1"/>
						<line fill="none" stroke="#231F20" stroke-width="0.5084" x1="91.1" y1="270.5" x2="241.8" y2="270.5"/>
						<line fill="none" stroke="#231F20" stroke-width="0.5084" x1="91.1" y1="272.1" x2="241.8" y2="272.1"/>
						<line fill="none" stroke="#231F20" stroke-width="0.5084" x1="91.1" y1="273.5" x2="241.8" y2="273.5"/>
						<line fill="none" stroke="#231F20" stroke-width="0.5084" x1="91.1" y1="275.1" x2="241.8" y2="275.1"/>
						<line fill="none" stroke="#231F20" stroke-width="0.5084" x1="91.1" y1="276.5" x2="241.8" y2="276.5"/>
						<line fill="none" stroke="#231F20" stroke-width="0.5084" x1="91.1" y1="278" x2="241.8" y2="278"/>
						<line fill="none" stroke="#231F20" stroke-width="0.5084" x1="91.1" y1="279.4" x2="241.8" y2="279.4"/>
						<line fill="none" stroke="#231F20" stroke-width="0.5084" x1="91.1" y1="281" x2="241.8" y2="281"/>
						<line fill="none" stroke="#231F20" stroke-width="0.5084" x1="91.1" y1="282.4" x2="241.8" y2="282.4"/>
						<line fill="none" stroke="#231F20" stroke-width="0.5084" x1="91.1" y1="283.9" x2="241.8" y2="283.9"/>
						<line fill="none" stroke="#231F20" stroke-width="0.5084" x1="91.1" y1="285.4" x2="241.8" y2="285.4"/>
						<line fill="none" stroke="#231F20" stroke-width="0.5084" x1="91.1" y1="286.9" x2="241.8" y2="286.9"/>
						<line fill="none" stroke="#231F20" stroke-width="0.5084" x1="91.1" y1="288.3" x2="241.8" y2="288.3"/>
						<line fill="none" stroke="#231F20" stroke-width="0.5084" x1="91.1" y1="289.9" x2="241.8" y2="289.9"/>
						<line fill="none" stroke="#231F20" stroke-width="0.5084" x1="91.1" y1="291.3" x2="241.8" y2="291.3"/>
						<line fill="none" stroke="#231F20" stroke-width="0.5084" x1="91.1" y1="292.9" x2="241.8" y2="292.9"/>
					</g>
				</g>
			</g>
		</g>
	</g>
	<rect x="141.1" y="209.2" fill="#D0D2D3" stroke="#231F20" stroke-width="0.5084" width="48.5" height="25.7"/>
	<rect x="142.6" y="210.9" fill="none" stroke="#231F20" stroke-width="0.5084" width="45.6" height="22.3"/>
	<path fill="none" stroke="#231F20" stroke-width="0.5084" d="M177.3,222.6c0,3.9,0.8,7.4,2.2,10.6h8.6v-22.3h-8.2
		C178.3,214.3,177.3,218.3,177.3,222.6z"/>
	<path fill="none" stroke="#231F20" stroke-width="0.5084" d="M142.6,233.1h25c1.4-3.2,2.2-6.8,2.2-10.6c0-4.3-1-8.3-2.8-11.7h-24.5
		L142.6,233.1L142.6,233.1z"/>
	<line fill="none" stroke="#231F20" stroke-width="0.5084" x1="81.9" y1="194.9" x2="249.5" y2="194.9"/>
	<line fill="none" stroke="#231F20" stroke-width="0.5084" x1="91.1" y1="294.3" x2="241.8" y2="294.3"/>
	<circle fill="#D0D2D3" stroke="#231F20" stroke-width="0.5084" cx="114.5" cy="288.3" r="4.4"/>
	<circle fill="#D0D2D3" stroke="#231F20" stroke-width="0.5084" cx="136" cy="285.1" r="4.4"/>
	<circle fill="#D0D2D3" stroke="#231F20" stroke-width="0.5084" cx="217.1" cy="288.3" r="4.5"/>
	<circle fill="#D0D2D3" stroke="#231F20" stroke-width="0.5084" cx="195.6" cy="285.1" r="4.4"/>
	<text id="yourNameCassette" transform="matrix(1 0 0 1 86.5007 192.3126)" font-family="'Notethis'" font-size="16.3834">YORAN BROODCOORE</text>
</g>
</svg>
