<?xml version="1.0" encoding="utf-8"?>
<!-- Generator: Adobe Illustrator 17.1.0, SVG Export Plug-In . SVG Version: 6.00 Build 0)  -->
<!DOCTYPE svg PUBLIC "-//W3C//DTD SVG 1.1//EN" "http://www.w3.org/Graphics/SVG/1.1/DTD/svg11.dtd">
<svg version="1.1" id="Recorder" xmlns="http://www.w3.org/2000/svg" xmlns:xlink="http://www.w3.org/1999/xlink" x="0px" y="0px"
	 viewBox="600.4 0 719.3 1080" enable-background="new 600.4 0 719.3 1080" xml:space="preserve">
<path fill="#323232" d="M1319.6,1025.1c0,19-15.5,34.5-34.5,34.5H634.9c-19,0-34.5-15.5-34.5-34.5V34.5c0-19,15.5-34.5,34.5-34.5
	h649.8c19,0,34.5,15.5,34.5,34.5C1319.6,34.5,1319.6,1025.1,1319.6,1025.1z"/>
<linearGradient id="SVGID_1_" gradientUnits="userSpaceOnUse" x1="-682.9625" y1="660.9417" x2="1027.3289" y2="660.9417" gradientTransform="matrix(0.3718 0 0 -0.3718 895.8724 398.6783)">
	<stop  offset="0" style="stop-color:#000000"/>
	<stop  offset="0.1224" style="stop-color:#FFFFFF"/>
	<stop  offset="0.2152" style="stop-color:#CCCCCC"/>
	<stop  offset="0.2966" style="stop-color:#A6A6A6"/>
	<stop  offset="0.3619" style="stop-color:#8F8F8F"/>
	<stop  offset="0.4031" style="stop-color:#878787"/>
	<stop  offset="0.4449" style="stop-color:#A7A7A7"/>
	<stop  offset="0.4909" style="stop-color:#C3C3C3"/>
	<stop  offset="0.5313" style="stop-color:#D4D4D4"/>
	<stop  offset="0.5612" style="stop-color:#DADADA"/>
	<stop  offset="0.5935" style="stop-color:#D6D6D6;stop-opacity:0.892"/>
	<stop  offset="0.6259" style="stop-color:#CACACA;stop-opacity:0.7834"/>
	<stop  offset="0.6585" style="stop-color:#B6B6B6;stop-opacity:0.6746"/>
	<stop  offset="0.6911" style="stop-color:#999999;stop-opacity:0.5655"/>
	<stop  offset="0.7237" style="stop-color:#757575;stop-opacity:0.4563"/>
	<stop  offset="0.756" style="stop-color:#494949;stop-opacity:0.3483"/>
	<stop  offset="0.7704" style="stop-color:#333333;stop-opacity:0.3"/>
	<stop  offset="0.7716" style="stop-color:#363636;stop-opacity:0.3049"/>
	<stop  offset="0.7884" style="stop-color:#5C5C5C;stop-opacity:0.3726"/>
	<stop  offset="0.8064" style="stop-color:#7D7D7D;stop-opacity:0.4452"/>
	<stop  offset="0.8257" style="stop-color:#989898;stop-opacity:0.5231"/>
	<stop  offset="0.8467" style="stop-color:#ACACAC;stop-opacity:0.608"/>
	<stop  offset="0.8703" style="stop-color:#BBBBBB;stop-opacity:0.7032"/>
	<stop  offset="0.8986" style="stop-color:#C3C3C3;stop-opacity:0.8172"/>
	<stop  offset="0.9439" style="stop-color:#C6C6C6"/>
</linearGradient>
<path fill="url(#SVGID_1_)" d="M1277.8,275.1V65.7c0-19.5-15.5-34.9-34.9-34.9h-566c-19.5,0-34.9,15.5-34.9,34.9v209.5L1277.8,275.1
	L1277.8,275.1z"/>
<g id="recorderPlaceholder">
	<path d="M676.5,678.1c-16.4,0-29.9-13.5-29.9-29.9V340.4c0-16.4,13.5-29.9,29.9-29.9h566.9c16.4,0,29.9,13.5,29.9,29.9v308.5
		c0,16.4-13.5,29.9-29.9,29.9H676.5V678.1z"/>
	<path fill="#C8C8C8" d="M1243.1,315.4c13.9,0,25,11.3,25,25v308.5c0,13.9-11.3,25-25,25H676.5c-13.9,0-25-11.3-25-25v-309
		c0-13.9,11.3-25,25-25h566.9 M1243.1,305.9H676.5c-19,0-34.5,15.5-34.5,34.5v308.5c0,19,15.5,34.5,34.5,34.5h566.9
		c19,0,34.5-15.5,34.5-34.5v-309C1277.8,320.9,1262.1,305.9,1243.1,305.9L1243.1,305.9z"/>
</g>
<linearGradient id="SVGID_2_" gradientUnits="userSpaceOnUse" x1="-682.9625" y1="-1503.5437" x2="1028.5187" y2="-1503.5437" gradientTransform="matrix(0.3718 0 0 -0.3718 895.8724 398.6783)">
	<stop  offset="0" style="stop-color:#000000"/>
	<stop  offset="0.1224" style="stop-color:#FFFFFF"/>
	<stop  offset="0.2152" style="stop-color:#CCCCCC"/>
	<stop  offset="0.2966" style="stop-color:#A6A6A6"/>
	<stop  offset="0.3619" style="stop-color:#8F8F8F"/>
	<stop  offset="0.4031" style="stop-color:#878787"/>
	<stop  offset="0.4449" style="stop-color:#A7A7A7"/>
	<stop  offset="0.4909" style="stop-color:#C3C3C3"/>
	<stop  offset="0.5313" style="stop-color:#D4D4D4"/>
	<stop  offset="0.5612" style="stop-color:#DADADA"/>
	<stop  offset="0.5935" style="stop-color:#D6D6D6;stop-opacity:0.892"/>
	<stop  offset="0.6259" style="stop-color:#CACACA;stop-opacity:0.7834"/>
	<stop  offset="0.6585" style="stop-color:#B6B6B6;stop-opacity:0.6746"/>
	<stop  offset="0.6911" style="stop-color:#999999;stop-opacity:0.5655"/>
	<stop  offset="0.7237" style="stop-color:#757575;stop-opacity:0.4563"/>
	<stop  offset="0.756" style="stop-color:#494949;stop-opacity:0.3483"/>
	<stop  offset="0.7704" style="stop-color:#333333;stop-opacity:0.3"/>
	<stop  offset="0.7716" style="stop-color:#363636;stop-opacity:0.3049"/>
	<stop  offset="0.7884" style="stop-color:#5C5C5C;stop-opacity:0.3726"/>
	<stop  offset="0.8064" style="stop-color:#7D7D7D;stop-opacity:0.4452"/>
	<stop  offset="0.8257" style="stop-color:#989898;stop-opacity:0.5231"/>
	<stop  offset="0.8467" style="stop-color:#ACACAC;stop-opacity:0.608"/>
	<stop  offset="0.8703" style="stop-color:#BBBBBB;stop-opacity:0.7032"/>
	<stop  offset="0.8986" style="stop-color:#C3C3C3;stop-opacity:0.8172"/>
	<stop  offset="0.9439" style="stop-color:#C6C6C6"/>
</linearGradient>
<path fill="url(#SVGID_2_)" d="M641.9,881.2v123.2c0,16.4,15.5,29.9,34.9,29.9h566.4c19.5,0,34.9-13.5,34.9-29.9V881.2
	C1277.8,881.2,641.9,881.2,641.9,881.2z"/>
<g id="groupRec">
	<rect x="665.6" y="925.8" fill="#8A0602" stroke="#0C0C0C" stroke-miterlimit="10" width="96.4" height="154.2"/>
	<circle fill="#FFFFFF" cx="714.1" cy="1003" r="23.2"/>
</g>
<g id="groupStop">
	<rect x="954.7" y="925.8" fill="#2D2D2D" stroke="#0C0C0C" stroke-miterlimit="10" width="96.4" height="154.2"/>
	<rect x="979.7" y="979.8" fill="#FFFFFF" width="46.2" height="46.2"/>
</g>
<g id="groupPlay">
	<rect x="858.3" y="925.8" fill="#2D2D2D" stroke="#0C0C0C" stroke-miterlimit="10" width="96.4" height="154.2"/>
	<polygon fill="#FFFFFF" points="886.8,979.8 886.8,1003 886.8,1026 926.6,1003 	"/>
</g>
<g id="groupForward">
	<rect x="1050.9" y="925.8" fill="#2D2D2D" stroke="#0C0C0C" stroke-miterlimit="10" width="96.4" height="154.2"/>
	<g>
		<polygon fill="#FFFFFF" points="1069.9,979.8 1069.9,1003 1069.9,1026 1109.7,1003 		"/>
		<polygon fill="#FFFFFF" points="1088.9,979.8 1088.9,1003 1088.9,1026 1128.8,1003 		"/>
	</g>
</g>
<g id="groupBack">
	<rect x="761.8" y="925.8" fill="#2D2D2D" stroke="#0C0C0C" stroke-miterlimit="10" width="96.4" height="154.2"/>
	<g>
		<polygon fill="#FFFFFF" points="839.7,1026 839.7,1003 839.7,979.8 799.9,1003 		"/>
		<polygon fill="#FFFFFF" points="820.7,1026 820.7,1003 820.7,979.8 780.8,1003 		"/>
	</g>
</g>
<g id="groupEject">
	<rect x="1147.3" y="925.8" fill="#2D2D2D" stroke="#0C0C0C" stroke-miterlimit="10" width="96.4" height="154.2"/>
	<g>
		<polygon fill="#FFFFFF" points="1172.3,1007.5 1195.6,1007.5 1218.6,1007.5 1195.6,978.5 		"/>
		<rect x="1172.3" y="1013" fill="#FFFFFF" width="46.2" height="7.7"/>
	</g>
</g>
<circle id="RecordingLight" fill="#CC0000" cx="1089.8" cy="738.7" r="19.5"/>
<g>
	<g>
		<circle fill="#040404" cx="682.9" cy="56.6" r="7.7"/>
		<circle fill="#040404" cx="712.3" cy="56.6" r="7.7"/>
		<circle fill="#040404" cx="741.3" cy="56.6" r="7.7"/>
		<circle fill="#040404" cx="770.7" cy="56.6" r="7.7"/>
		<circle fill="#040404" cx="799.4" cy="56.6" r="7.7"/>
		<circle fill="#040404" cx="828.8" cy="56.6" r="7.7"/>
		<circle fill="#040404" cx="857.8" cy="56.6" r="7.7"/>
		<circle fill="#040404" cx="886.8" cy="56.6" r="7.7"/>
		<circle fill="#040404" cx="916.2" cy="56.6" r="7.7"/>
		<circle fill="#040404" cx="945.6" cy="56.6" r="7.7"/>
		<circle fill="#040404" cx="974.4" cy="56.6" r="7.7"/>
		<circle fill="#040404" cx="1003.4" cy="56.6" r="7.7"/>
		<circle fill="#040404" cx="1032.8" cy="56.6" r="7.7"/>
		<circle fill="#040404" cx="1061.7" cy="56.6" r="7.7"/>
		<circle fill="#040404" cx="1091.2" cy="56.6" r="7.7"/>
		<circle fill="#040404" cx="1120.1" cy="56.6" r="7.7"/>
		<circle fill="#040404" cx="1149.3" cy="56.6" r="7.7"/>
		<circle fill="#040404" cx="1178.3" cy="56.6" r="7.7"/>
		<circle fill="#040404" cx="1207.7" cy="56.6" r="7.7"/>
		<circle fill="#040404" cx="696.8" cy="76.1" r="7.7"/>
		<circle fill="#040404" cx="725.6" cy="76.1" r="7.7"/>
		<circle fill="#040404" cx="754.5" cy="76.1" r="7.7"/>
		<circle fill="#040404" cx="783.9" cy="76.1" r="7.7"/>
		<circle fill="#040404" cx="813.4" cy="76.1" r="7.7"/>
		<circle fill="#040404" cx="842.3" cy="76.1" r="7.7"/>
		<circle fill="#040404" cx="871.3" cy="76.1" r="7.7"/>
		<circle fill="#040404" cx="900.5" cy="76.1" r="7.7"/>
		<circle fill="#040404" cx="929.5" cy="76.1" r="7.7"/>
		<circle fill="#040404" cx="958.9" cy="76.1" r="7.7"/>
		<circle fill="#040404" cx="987.9" cy="76.1" r="7.7"/>
		<circle fill="#040404" cx="1016.8" cy="76.1" r="7.7"/>
		<circle fill="#040404" cx="1046.3" cy="76.1" r="7.7"/>
		<circle fill="#040404" cx="1075.5" cy="76.1" r="7.7"/>
		<circle fill="#040404" cx="1104.4" cy="76.1" r="7.7"/>
		<circle fill="#040404" cx="1133.4" cy="76.1" r="7.7"/>
		<circle fill="#040404" cx="1162.8" cy="76.1" r="7.7"/>
		<circle fill="#040404" cx="1191.8" cy="76.1" r="7.7"/>
		<circle fill="#040404" cx="1221.2" cy="76.1" r="7.7"/>
		<circle fill="#040404" cx="1236.7" cy="56.6" r="7.7"/>
	</g>
	<g>
		<circle fill="#040404" cx="682.9" cy="95.1" r="7.7"/>
		<circle fill="#040404" cx="712.3" cy="95.1" r="7.7"/>
		<circle fill="#040404" cx="741.3" cy="95.1" r="7.7"/>
		<circle fill="#040404" cx="770.7" cy="95.1" r="7.7"/>
		<circle fill="#040404" cx="799.4" cy="95.1" r="7.7"/>
		<circle fill="#040404" cx="828.8" cy="95.1" r="7.7"/>
		<circle fill="#040404" cx="857.8" cy="95.1" r="7.7"/>
		<circle fill="#040404" cx="886.8" cy="95.1" r="7.7"/>
		<circle fill="#040404" cx="916.2" cy="95.1" r="7.7"/>
		<circle fill="#040404" cx="945.6" cy="95.1" r="7.7"/>
		<circle fill="#040404" cx="974.4" cy="95.1" r="7.7"/>
		<circle fill="#040404" cx="1003.4" cy="95.1" r="7.7"/>
		<circle fill="#040404" cx="1032.8" cy="95.1" r="7.7"/>
		<circle fill="#040404" cx="1061.7" cy="95.1" r="7.7"/>
		<circle fill="#040404" cx="1091.2" cy="95.1" r="7.7"/>
		<circle fill="#040404" cx="1120.1" cy="95.1" r="7.7"/>
		<circle fill="#040404" cx="1149.3" cy="95.1" r="7.7"/>
		<circle fill="#040404" cx="1178.3" cy="95.1" r="7.7"/>
		<circle fill="#040404" cx="1207.7" cy="95.1" r="7.7"/>
		<circle fill="#040404" cx="696.8" cy="114.6" r="7.7"/>
		<circle fill="#040404" cx="725.6" cy="114.6" r="7.7"/>
		<circle fill="#040404" cx="754.5" cy="114.6" r="7.7"/>
		<circle fill="#040404" cx="783.9" cy="114.6" r="7.7"/>
		<circle fill="#040404" cx="813.4" cy="114.6" r="7.7"/>
		<circle fill="#040404" cx="842.3" cy="114.6" r="7.7"/>
		<circle fill="#040404" cx="871.3" cy="114.6" r="7.7"/>
		<circle fill="#040404" cx="900.5" cy="114.6" r="7.7"/>
		<circle fill="#040404" cx="929.5" cy="114.6" r="7.7"/>
		<circle fill="#040404" cx="958.9" cy="114.6" r="7.7"/>
		<circle fill="#040404" cx="987.9" cy="114.6" r="7.7"/>
		<circle fill="#040404" cx="1016.8" cy="114.6" r="7.7"/>
		<circle fill="#040404" cx="1046.3" cy="114.6" r="7.7"/>
		<circle fill="#040404" cx="1075.5" cy="114.6" r="7.7"/>
		<circle fill="#040404" cx="1104.4" cy="114.6" r="7.7"/>
		<circle fill="#040404" cx="1133.4" cy="114.6" r="7.7"/>
		<circle fill="#040404" cx="1162.8" cy="114.6" r="7.7"/>
		<circle fill="#040404" cx="1191.8" cy="114.6" r="7.7"/>
		<circle fill="#040404" cx="1221.2" cy="114.6" r="7.7"/>
		<circle fill="#040404" cx="1236.7" cy="95.1" r="7.7"/>
	</g>
	<g>
		<circle fill="#040404" cx="682.9" cy="133.8" r="7.7"/>
		<circle fill="#040404" cx="712.3" cy="133.8" r="7.7"/>
		<circle fill="#040404" cx="741.3" cy="133.8" r="7.7"/>
		<circle fill="#040404" cx="770.7" cy="133.8" r="7.7"/>
		<circle fill="#040404" cx="799.4" cy="133.8" r="7.7"/>
		<circle fill="#040404" cx="828.8" cy="133.8" r="7.7"/>
		<circle fill="#040404" cx="857.8" cy="133.8" r="7.7"/>
		<circle fill="#040404" cx="886.8" cy="133.8" r="7.7"/>
		<circle fill="#040404" cx="916.2" cy="133.8" r="7.7"/>
		<circle fill="#040404" cx="945.6" cy="133.8" r="7.7"/>
		<circle fill="#040404" cx="974.4" cy="133.8" r="7.7"/>
		<circle fill="#040404" cx="1003.4" cy="133.8" r="7.7"/>
		<circle fill="#040404" cx="1032.8" cy="133.8" r="7.7"/>
		<circle fill="#040404" cx="1061.7" cy="133.8" r="7.7"/>
		<circle fill="#040404" cx="1091.2" cy="133.8" r="7.7"/>
		<circle fill="#040404" cx="1120.1" cy="133.8" r="7.7"/>
		<circle fill="#040404" cx="1149.3" cy="133.8" r="7.7"/>
		<circle fill="#040404" cx="1178.3" cy="133.8" r="7.7"/>
		<circle fill="#040404" cx="1207.7" cy="133.8" r="7.7"/>
		<circle fill="#040404" cx="696.8" cy="152.8" r="7.7"/>
		<circle fill="#040404" cx="725.6" cy="152.8" r="7.7"/>
		<circle fill="#040404" cx="754.5" cy="152.8" r="7.7"/>
		<circle fill="#040404" cx="783.9" cy="152.8" r="7.7"/>
		<circle fill="#040404" cx="813.4" cy="152.8" r="7.7"/>
		<circle fill="#040404" cx="842.3" cy="152.8" r="7.7"/>
		<circle fill="#040404" cx="871.3" cy="152.8" r="7.7"/>
		<circle fill="#040404" cx="900.5" cy="152.8" r="7.7"/>
		<circle fill="#040404" cx="929.5" cy="152.8" r="7.7"/>
		<circle fill="#040404" cx="958.9" cy="152.8" r="7.7"/>
		<circle fill="#040404" cx="987.9" cy="152.8" r="7.7"/>
		<circle fill="#040404" cx="1016.8" cy="152.8" r="7.7"/>
		<circle fill="#040404" cx="1046.3" cy="152.8" r="7.7"/>
		<circle fill="#040404" cx="1075.5" cy="152.8" r="7.7"/>
		<circle fill="#040404" cx="1104.4" cy="152.8" r="7.7"/>
		<circle fill="#040404" cx="1133.4" cy="152.8" r="7.7"/>
		<circle fill="#040404" cx="1162.8" cy="152.8" r="7.7"/>
		<circle fill="#040404" cx="1191.8" cy="152.8" r="7.7"/>
		<circle fill="#040404" cx="1221.2" cy="152.8" r="7.7"/>
		<circle fill="#040404" cx="1236.7" cy="133.8" r="7.7"/>
	</g>
	<g>
		<circle fill="#040404" cx="682.9" cy="172.3" r="7.7"/>
		<circle fill="#040404" cx="712.3" cy="172.3" r="7.7"/>
		<circle fill="#040404" cx="741.3" cy="172.3" r="7.7"/>
		<circle fill="#040404" cx="770.7" cy="172.3" r="7.7"/>
		<circle fill="#040404" cx="799.4" cy="172.3" r="7.7"/>
		<circle fill="#040404" cx="828.8" cy="172.3" r="7.7"/>
		<circle fill="#040404" cx="857.8" cy="172.3" r="7.7"/>
		<circle fill="#040404" cx="886.8" cy="172.3" r="7.7"/>
		<circle fill="#040404" cx="916.2" cy="172.3" r="7.7"/>
		<circle fill="#040404" cx="945.6" cy="172.3" r="7.7"/>
		<circle fill="#040404" cx="974.4" cy="172.3" r="7.7"/>
		<circle fill="#040404" cx="1003.4" cy="172.3" r="7.7"/>
		<circle fill="#040404" cx="1032.8" cy="172.3" r="7.7"/>
		<circle fill="#040404" cx="1061.7" cy="172.3" r="7.7"/>
		<circle fill="#040404" cx="1091.2" cy="172.3" r="7.7"/>
		<circle fill="#040404" cx="1120.1" cy="172.3" r="7.7"/>
		<circle fill="#040404" cx="1149.3" cy="172.3" r="7.7"/>
		<circle fill="#040404" cx="1178.3" cy="172.3" r="7.7"/>
		<circle fill="#040404" cx="1207.7" cy="172.3" r="7.7"/>
		<circle fill="#040404" cx="696.8" cy="191.3" r="7.7"/>
		<circle fill="#040404" cx="725.6" cy="191.3" r="7.7"/>
		<circle fill="#040404" cx="754.5" cy="191.3" r="7.7"/>
		<circle fill="#040404" cx="783.9" cy="191.3" r="7.7"/>
		<circle fill="#040404" cx="813.4" cy="191.3" r="7.7"/>
		<circle fill="#040404" cx="842.3" cy="191.3" r="7.7"/>
		<circle fill="#040404" cx="871.3" cy="191.3" r="7.7"/>
		<circle fill="#040404" cx="900.5" cy="191.3" r="7.7"/>
		<circle fill="#040404" cx="929.5" cy="191.3" r="7.7"/>
		<circle fill="#040404" cx="958.9" cy="191.3" r="7.7"/>
		<circle fill="#040404" cx="987.9" cy="191.3" r="7.7"/>
		<circle fill="#040404" cx="1016.8" cy="191.3" r="7.7"/>
		<circle fill="#040404" cx="1046.3" cy="191.3" r="7.7"/>
		<circle fill="#040404" cx="1075.5" cy="191.3" r="7.7"/>
		<circle fill="#040404" cx="1104.4" cy="191.3" r="7.7"/>
		<circle fill="#040404" cx="1133.4" cy="191.3" r="7.7"/>
		<circle fill="#040404" cx="1162.8" cy="191.3" r="7.7"/>
		<circle fill="#040404" cx="1191.8" cy="191.3" r="7.7"/>
		<circle fill="#040404" cx="1221.2" cy="191.3" r="7.7"/>
		<circle fill="#040404" cx="1236.7" cy="172.3" r="7.7"/>
	</g>
	<g>
		<circle fill="#040404" cx="682.9" cy="210.8" r="7.7"/>
		<circle fill="#040404" cx="712.3" cy="210.8" r="7.7"/>
		<circle fill="#040404" cx="741.3" cy="210.8" r="7.7"/>
		<circle fill="#040404" cx="770.7" cy="210.8" r="7.7"/>
		<circle fill="#040404" cx="799.4" cy="210.8" r="7.7"/>
		<circle fill="#040404" cx="828.8" cy="210.8" r="7.7"/>
		<circle fill="#040404" cx="857.8" cy="210.8" r="7.7"/>
		<circle fill="#040404" cx="886.8" cy="210.8" r="7.7"/>
		<circle fill="#040404" cx="916.2" cy="210.8" r="7.7"/>
		<circle fill="#040404" cx="945.6" cy="210.8" r="7.7"/>
		<circle fill="#040404" cx="974.4" cy="210.8" r="7.7"/>
		<circle fill="#040404" cx="1003.4" cy="210.8" r="7.7"/>
		<circle fill="#040404" cx="1032.8" cy="210.8" r="7.7"/>
		<circle fill="#040404" cx="1061.7" cy="210.8" r="7.7"/>
		<circle fill="#040404" cx="1091.2" cy="210.8" r="7.7"/>
		<circle fill="#040404" cx="1120.1" cy="210.8" r="7.7"/>
		<circle fill="#040404" cx="1149.3" cy="210.8" r="7.7"/>
		<circle fill="#040404" cx="1178.3" cy="210.8" r="7.7"/>
		<circle fill="#040404" cx="1207.7" cy="210.8" r="7.7"/>
		<circle fill="#040404" cx="696.8" cy="230.2" r="7.7"/>
		<circle fill="#040404" cx="725.6" cy="230.2" r="7.7"/>
		<circle fill="#040404" cx="754.5" cy="230.2" r="7.7"/>
		<circle fill="#040404" cx="783.9" cy="230.2" r="7.7"/>
		<circle fill="#040404" cx="813.4" cy="230.2" r="7.7"/>
		<circle fill="#040404" cx="842.3" cy="230.2" r="7.7"/>
		<circle fill="#040404" cx="871.3" cy="230.2" r="7.7"/>
		<circle fill="#040404" cx="900.5" cy="230.2" r="7.7"/>
		<circle fill="#040404" cx="929.5" cy="230.2" r="7.7"/>
		<circle fill="#040404" cx="958.9" cy="230.2" r="7.7"/>
		<circle fill="#040404" cx="987.9" cy="230.2" r="7.7"/>
		<circle fill="#040404" cx="1016.8" cy="230.2" r="7.7"/>
		<circle fill="#040404" cx="1046.3" cy="230.2" r="7.7"/>
		<circle fill="#040404" cx="1075.5" cy="230.2" r="7.7"/>
		<circle fill="#040404" cx="1104.4" cy="230.2" r="7.7"/>
		<circle fill="#040404" cx="1133.4" cy="230.2" r="7.7"/>
		<circle fill="#040404" cx="1162.8" cy="230.2" r="7.7"/>
		<circle fill="#040404" cx="1191.8" cy="230.2" r="7.7"/>
		<circle fill="#040404" cx="1221.2" cy="230.2" r="7.7"/>
		<circle fill="#040404" cx="1236.7" cy="210.8" r="7.7"/>
	</g>
	<g>
		<circle fill="#040404" cx="682.9" cy="249.3" r="7.7"/>
		<circle fill="#040404" cx="712.3" cy="249.3" r="7.7"/>
		<circle fill="#040404" cx="741.3" cy="249.3" r="7.7"/>
		<circle fill="#040404" cx="770.7" cy="249.3" r="7.7"/>
		<circle fill="#040404" cx="799.4" cy="249.3" r="7.7"/>
		<circle fill="#040404" cx="828.8" cy="249.3" r="7.7"/>
		<circle fill="#040404" cx="857.8" cy="249.3" r="7.7"/>
		<circle fill="#040404" cx="886.8" cy="249.3" r="7.7"/>
		<circle fill="#040404" cx="916.2" cy="249.3" r="7.7"/>
		<circle fill="#040404" cx="945.6" cy="249.3" r="7.7"/>
		<circle fill="#040404" cx="974.4" cy="249.3" r="7.7"/>
		<circle fill="#040404" cx="1003.4" cy="249.3" r="7.7"/>
		<circle fill="#040404" cx="1032.8" cy="249.3" r="7.7"/>
		<circle fill="#040404" cx="1061.7" cy="249.3" r="7.7"/>
		<circle fill="#040404" cx="1091.2" cy="249.3" r="7.7"/>
		<circle fill="#040404" cx="1120.1" cy="249.3" r="7.7"/>
		<circle fill="#040404" cx="1149.3" cy="249.3" r="7.7"/>
		<circle fill="#040404" cx="1178.3" cy="249.3" r="7.7"/>
		<circle fill="#040404" cx="1207.7" cy="249.3" r="7.7"/>
		<circle fill="#040404" cx="1236.7" cy="249.3" r="7.7"/>
	</g>
</g>
<g>
	
		<linearGradient id="SVGID_3_" gradientUnits="userSpaceOnUse" x1="1001.749" y1="-914.311" x2="641.8441" y2="-914.311" gradientTransform="matrix(0.3718 0 0 -0.3718 895.8724 398.6783)">
		<stop  offset="0" style="stop-color:#000000"/>
		<stop  offset="0.1224" style="stop-color:#FFFFFF"/>
		<stop  offset="0.2152" style="stop-color:#CCCCCC"/>
		<stop  offset="0.2966" style="stop-color:#A6A6A6"/>
		<stop  offset="0.3619" style="stop-color:#8F8F8F"/>
		<stop  offset="0.4031" style="stop-color:#878787"/>
		<stop  offset="0.4449" style="stop-color:#A7A7A7"/>
		<stop  offset="0.4909" style="stop-color:#C3C3C3"/>
		<stop  offset="0.5313" style="stop-color:#D4D4D4"/>
		<stop  offset="0.5612" style="stop-color:#DADADA"/>
		<stop  offset="0.5935" style="stop-color:#D6D6D6;stop-opacity:0.892"/>
		<stop  offset="0.6259" style="stop-color:#CACACA;stop-opacity:0.7834"/>
		<stop  offset="0.6585" style="stop-color:#B6B6B6;stop-opacity:0.6746"/>
		<stop  offset="0.6911" style="stop-color:#999999;stop-opacity:0.5655"/>
		<stop  offset="0.7237" style="stop-color:#757575;stop-opacity:0.4563"/>
		<stop  offset="0.756" style="stop-color:#494949;stop-opacity:0.3483"/>
		<stop  offset="0.7704" style="stop-color:#333333;stop-opacity:0.3"/>
		<stop  offset="0.7716" style="stop-color:#363636;stop-opacity:0.3049"/>
		<stop  offset="0.7884" style="stop-color:#5C5C5C;stop-opacity:0.3726"/>
		<stop  offset="0.8064" style="stop-color:#7D7D7D;stop-opacity:0.4452"/>
		<stop  offset="0.8257" style="stop-color:#989898;stop-opacity:0.5231"/>
		<stop  offset="0.8467" style="stop-color:#ACACAC;stop-opacity:0.608"/>
		<stop  offset="0.8703" style="stop-color:#BBBBBB;stop-opacity:0.7032"/>
		<stop  offset="0.8986" style="stop-color:#C3C3C3;stop-opacity:0.8172"/>
		<stop  offset="0.9439" style="stop-color:#C6C6C6"/>
	</linearGradient>
	<path fill="url(#SVGID_3_)" d="M1268.3,761.5c0,3.5-2.7,5.5-5.5,5.5H1140c-3.5,0-5.5-2.7-5.5-5.5v-45.8c0-3.5,2.7-5.5,5.5-5.5
		h122.3c3.5,0,5.5,2.7,5.5,5.5v45.8H1268.3z"/>
	<rect x="1143.8" y="718.4" fill="#020202" width="4.6" height="41.8"/>
	<rect x="1151.5" y="718.4" fill="#020202" width="4.6" height="41.8"/>
	<rect x="1159.7" y="718.4" fill="#020202" width="4.6" height="41.8"/>
	<rect x="1167.5" y="718.4" fill="#020202" width="4.6" height="41.8"/>
	<rect x="1175.4" y="718.4" fill="#020202" width="4.6" height="41.8"/>
	<rect x="1183.2" y="718.4" fill="#020202" width="4.6" height="41.8"/>
	<rect x="1190.9" y="718.4" fill="#020202" width="4.6" height="41.8"/>
	<rect x="1199.1" y="718.4" fill="#020202" width="4.6" height="41.8"/>
	<rect x="1206.8" y="718.4" fill="#020202" width="4.6" height="41.8"/>
	<rect x="1214.6" y="718.4" fill="#020202" width="4.6" height="41.8"/>
	<rect x="1222.5" y="718.4" fill="#020202" width="4.6" height="41.8"/>
	<rect x="1230.7" y="718.4" fill="#020202" width="4.6" height="41.8"/>
	<rect x="1238.5" y="718.4" fill="#020202" width="4.6" height="41.8"/>
	<rect x="1246.2" y="718.4" fill="#020202" width="4.6" height="41.8"/>
	<rect x="1253.9" y="718.4" fill="#020202" width="4.6" height="41.8"/>
</g>
<g id="groupCounter">
	
		<linearGradient id="SVGID_4_" gradientUnits="userSpaceOnUse" x1="-698.8217" y1="-914.906" x2="-331.8744" y2="-914.906" gradientTransform="matrix(0.3718 0 0 -0.3718 895.8724 398.6783)">
		<stop  offset="0" style="stop-color:#000000"/>
		<stop  offset="0.1224" style="stop-color:#FFFFFF"/>
		<stop  offset="0.2152" style="stop-color:#CCCCCC"/>
		<stop  offset="0.2966" style="stop-color:#A6A6A6"/>
		<stop  offset="0.3619" style="stop-color:#8F8F8F"/>
		<stop  offset="0.4031" style="stop-color:#878787"/>
		<stop  offset="0.4449" style="stop-color:#A7A7A7"/>
		<stop  offset="0.4909" style="stop-color:#C3C3C3"/>
		<stop  offset="0.5313" style="stop-color:#D4D4D4"/>
		<stop  offset="0.5612" style="stop-color:#DADADA"/>
		<stop  offset="0.5935" style="stop-color:#D6D6D6;stop-opacity:0.892"/>
		<stop  offset="0.6259" style="stop-color:#CACACA;stop-opacity:0.7834"/>
		<stop  offset="0.6585" style="stop-color:#B6B6B6;stop-opacity:0.6746"/>
		<stop  offset="0.6911" style="stop-color:#999999;stop-opacity:0.5655"/>
		<stop  offset="0.7237" style="stop-color:#757575;stop-opacity:0.4563"/>
		<stop  offset="0.756" style="stop-color:#494949;stop-opacity:0.3483"/>
		<stop  offset="0.7704" style="stop-color:#333333;stop-opacity:0.3"/>
		<stop  offset="0.7716" style="stop-color:#363636;stop-opacity:0.3049"/>
		<stop  offset="0.7884" style="stop-color:#5C5C5C;stop-opacity:0.3726"/>
		<stop  offset="0.8064" style="stop-color:#7D7D7D;stop-opacity:0.4452"/>
		<stop  offset="0.8257" style="stop-color:#989898;stop-opacity:0.5231"/>
		<stop  offset="0.8467" style="stop-color:#ACACAC;stop-opacity:0.608"/>
		<stop  offset="0.8703" style="stop-color:#BBBBBB;stop-opacity:0.7032"/>
		<stop  offset="0.8986" style="stop-color:#C3C3C3;stop-opacity:0.8172"/>
		<stop  offset="0.9439" style="stop-color:#C6C6C6"/>
	</linearGradient>
	<path fill="url(#SVGID_4_)" d="M772.2,760c0,3.5-2.7,5.5-5.5,5.5H641.9c-3.5,0-5.5-2.7-5.5-5.5v-42.2c0-3.5,2.7-5.5,5.5-5.5h124.7
		c3.5,0,5.5,2.7,5.5,5.5V760z"/>
	<rect x="645.3" y="717.9" width="117.9" height="41.4"/>
	<rect x="650.6" y="719.3" fill="#222222" width="30.7" height="38.5"/>
	<rect x="688.8" y="719.3" fill="#222222" width="30.7" height="38.5"/>
	<rect x="727.3" y="719.3" fill="#222222" width="30.7" height="38.5"/>
	<g>
		
			<text id="txtCounter1" transform="matrix(1 0 0 1 655.4337 749.8605)" fill="#FFFFFF" font-family="'MyriadPro-Regular'" font-size="38.5354">0</text>
		
			<text id="txtCounter2" transform="matrix(1 0 0 1 693.9689 749.8605)" fill="#FFFFFF" font-family="'MyriadPro-Regular'" font-size="38.5354">0</text>
		
			<text id="txtCounter3" transform="matrix(1 0 0 1 732.5023 749.8605)" fill="#FFFFFF" font-family="'MyriadPro-Regular'" font-size="38.5354">0</text>
	</g>
</g>
<text id="txtRec" transform="matrix(1 0 0 1 986.0097 749.8605)" fill="#FFFFFF" font-family="'MyriadPro-Regular'" font-size="38.5354">Rec.</text>
<g id="groupLCD">
	<rect id="rectLCD" x="880.4" y="788.7" width="159.5" height="73"/>
	<text id="txtLCD" transform="matrix(1 0 0 1 897.437 842.0936)" fill="#FF0000" font-family="'LCDReg'" font-size="57.8033">00:00</text>
</g>
<text id="lblDrag" transform="matrix(1 0 0 1 856.735 504.6379)" fill="#EDEDED" font-family="'MyriadPro-Regular'" font-size="34">Drag and drop</text>
<g id="Cassette">
	<path fill="none" stroke="#231F20" stroke-width="0.5084" d="M1081.4,490.3l-0.2,0.2l-7.3-4.2l-3.8,6.4l7.5,4.4
		c-4.2,5.8-10.4,9.7-17.7,11.1v-8.8h-7.3v8.8c-7.1-0.9-13.7-4.4-18.1-9.7v-0.2l7.3-4.2l-3.8-6.4l-7.5,4.4c-1.3-3.3-2.4-7.3-2.4-11.1
		c0-3.3,0.7-6.6,1.8-9.5l7.5,4.2l3.8-6.4l-7.5-4.4c4-5.5,10.2-9.5,17.5-10.8h0.2v8.6h7.3v-8.8c7.3,0.7,13.5,4.2,17.9,9.5l0.2,0.4
		l-7.3,4.2l3.8,6.4l7.5-4.4c1.5,3.3,2.4,7.1,2.4,11.1C1083,484.4,1082.3,487.5,1081.4,490.3z"/>
	<path fill="#484849" d="M1192,560h-5.3V360.1c0-6.2-5.1-11.3-11.3-11.3H739.5c-6.2,0-11.3,5.1-11.3,11.3V560h-4.4
		c-1.8,0-3.3,1.3-3.3,3.1v53.7c0,1.8,1.3,3.1,3.3,3.1h4.4v10.2c0,6.2,7.5,10.2,13.7,10.2h433.7c6.2,0,11.3-5.1,11.3-11.3l-0.2-9.3
		h5.3c1.8,0,3.1-1.3,3.1-3.1v-53.7C1195.1,561.3,1193.8,560,1192,560z M885.7,490.3l-0.2,0.2l-7.3-4.2l-3.8,6.4l7.5,4.4
		c-4.2,5.8-10.4,9.7-17.7,11.1v-8.8h-7.3v8.8c-7.1-0.9-13.7-4.4-18.1-9.7v-0.2l7.3-4.2l-3.8-6.4l-7.5,4.4c-1.3-3.3-2.4-7.3-2.4-11.1
		c0-3.3,0.7-6.6,1.8-9.5l7.5,4.2l3.8-6.4l-7.5-4.4c4-5.5,10.2-9.5,17.5-10.8h0.2v8.6h7.3v-8.8c7.3,0.7,13.5,4.2,17.9,9.5l0.2,0.4
		l-7.3,4.2l3.8,6.4l7.5-4.4c1.5,3.3,2.4,7.1,2.4,11.1C887.5,484.4,886.8,487.5,885.7,490.3z M1081.4,490.3l-0.2,0.2l-7.3-4.2
		l-3.8,6.4l7.5,4.4c-4.2,5.8-10.4,9.7-17.7,11.1v-8.8h-7.3v8.8c-7.1-0.9-13.7-4.4-18.1-9.7v-0.2l7.3-4.2l-3.8-6.4l-7.5,4.4
		c-1.3-3.3-2.4-7.3-2.4-11.1c0-3.3,0.7-6.6,1.8-9.5l7.5,4.2l3.8-6.4l-7.5-4.4c4-5.5,10.2-9.5,17.5-10.8h0.2v8.6h7.3v-8.8
		c7.3,0.7,13.5,4.2,17.9,9.5l0.2,0.4l-7.3,4.2l3.8,6.4l7.5-4.4c1.5,3.3,2.4,7.1,2.4,11.1C1083,484.4,1082.3,487.5,1081.4,490.3z"/>
	<path fill="#F9F9F9" stroke="#231F20" stroke-width="0.5084" d="M1147.6,368.3H966.4h-15.7H769.3l-18.6,18.8v174.3h205.5h4.2h205.5
		V387.1L1147.6,368.3z M885.7,490.3l-0.2,0.2l-7.3-4.2l-3.8,6.4l7.5,4.4c-4.2,5.8-10.4,9.7-17.7,11.1v-8.8h-7.3v8.8
		c-7.1-0.9-13.7-4.4-18.1-9.7v-0.2l7.3-4.2l-3.8-6.4l-7.5,4.4c-1.3-3.3-2.4-7.3-2.4-11.1c0-3.3,0.7-6.6,1.8-9.5l7.5,4.2l3.8-6.4
		l-7.5-4.4c4-5.5,10.2-9.5,17.5-10.8h0.2v8.6h7.3v-8.8c7.3,0.7,13.5,4.2,17.9,9.5l0.2,0.4l-7.3,4.2l3.8,6.4l7.5-4.4
		c1.5,3.3,2.4,7.1,2.4,11.1C887.5,484.4,886.8,487.5,885.7,490.3z M1081.4,490.3l-0.2,0.2l-7.3-4.2l-3.8,6.4l7.5,4.4
		c-4.2,5.8-10.4,9.7-17.7,11.1v-8.8h-7.3v8.8c-7.1-0.9-13.7-4.4-18.1-9.7v-0.2l7.3-4.2l-3.8-6.4l-7.5,4.4c-1.3-3.3-2.4-7.3-2.4-11.1
		c0-3.3,0.7-6.6,1.8-9.5l7.5,4.2l3.8-6.4l-7.5-4.4c4-5.5,10.2-9.5,17.5-10.8h0.2v8.6h7.3v-8.8c7.3,0.7,13.5,4.2,17.9,9.5l0.2,0.4
		l-7.3,4.2l3.8,6.4l7.5-4.4c1.5,3.3,2.4,7.1,2.4,11.1C1083,484.4,1082.3,487.5,1081.4,490.3z"/>
	<path fill="#4FB3DB" stroke="#231F20" stroke-width="0.5084" d="M764.7,432.8v115.9h388.4V432.8L764.7,432.8L764.7,432.8z
		 M885.7,490.3l-0.2,0.2l-7.3-4.2l-3.8,6.4l7.5,4.4c-4.2,5.8-10.4,9.7-17.7,11.1v-8.8h-7.3v8.8c-7.1-0.9-13.7-4.4-18.1-9.7v-0.2
		l7.3-4.2l-3.8-6.4l-7.5,4.4c-1.3-3.3-2.4-7.3-2.4-11.1c0-3.3,0.7-6.6,1.8-9.5l7.5,4.2l3.8-6.4l-7.5-4.4c4-5.5,10.2-9.5,17.5-10.8
		h0.2v8.6h7.3v-8.8c7.3,0.7,13.5,4.2,17.9,9.5l0.2,0.4l-7.3,4.2l3.8,6.4l7.5-4.4c1.5,3.3,2.4,7.1,2.4,11.1
		C887.5,484.4,886.8,487.5,885.7,490.3z M1081.4,490.3l-0.2,0.2l-7.3-4.2l-3.8,6.4l7.5,4.4c-4.2,5.8-10.4,9.7-17.7,11.1v-8.8h-7.3
		v8.8c-7.1-0.9-13.7-4.4-18.1-9.7v-0.2l7.3-4.2l-3.8-6.4l-7.5,4.4c-1.3-3.3-2.4-7.3-2.4-11.1c0-3.3,0.7-6.6,1.8-9.5l7.5,4.2l3.8-6.4
		l-7.5-4.4c4-5.5,10.2-9.5,17.5-10.8h0.2v8.6h7.3v-8.8c7.3,0.7,13.5,4.2,17.9,9.5l0.2,0.4l-7.3,4.2l3.8,6.4l7.5-4.4
		c1.5,3.3,2.4,7.1,2.4,11.1C1083,484.4,1082.3,487.5,1081.4,490.3z"/>
	<path fill="#F1F1F2" stroke="#231F20" stroke-width="0.5084" d="M1058.4,442.6H855.2c-21.5,0-38.9,17.5-38.9,38.9
		s17.5,38.9,38.9,38.9h203.3c21.5,0,38.9-17.5,38.9-38.9C1097.3,459.8,1080.1,442.6,1058.4,442.6z M885.7,490.3l-0.2,0.2l-7.3-4.2
		l-3.8,6.4l7.5,4.4c-4.2,5.8-10.4,9.7-17.7,11.1v-8.8h-7.3v8.8c-7.1-0.9-13.7-4.4-18.1-9.7v-0.2l7.3-4.2l-3.8-6.4l-7.5,4.4
		c-1.3-3.3-2.4-7.3-2.4-11.1c0-3.3,0.7-6.6,1.8-9.5l7.5,4.2l3.8-6.4l-7.5-4.4c4-5.5,10.2-9.5,17.5-10.8h0.2v8.6h7.3v-8.8
		c7.3,0.7,13.5,4.2,17.9,9.5l0.2,0.4l-7.3,4.2l3.8,6.4l7.5-4.4c1.5,3.3,2.4,7.1,2.4,11.1C887.5,484.4,886.8,487.5,885.7,490.3z
		 M1081.4,490.3l-0.2,0.2l-7.3-4.2l-3.8,6.4l7.5,4.4c-4.2,5.8-10.4,9.7-17.7,11.1v-8.8h-7.3v8.8c-7.1-0.9-13.7-4.4-18.1-9.7v-0.2
		l7.3-4.2l-3.8-6.4l-7.5,4.4c-1.3-3.3-2.4-7.3-2.4-11.1c0-3.3,0.7-6.6,1.8-9.5l7.5,4.2l3.8-6.4l-7.5-4.4c4-5.5,10.2-9.5,17.5-10.8
		h0.2v8.6h7.3v-8.8c7.3,0.7,13.5,4.2,17.9,9.5l0.2,0.4l-7.3,4.2l3.8,6.4l7.5-4.4c1.5,3.3,2.4,7.1,2.4,11.1
		C1083,484.4,1082.3,487.5,1081.4,490.3z"/>
	<path fill="none" stroke="#231F20" stroke-width="3.0507" d="M1192,560h-5.3V360.1c0-6.2-5.1-11.3-11.3-11.3H739.5
		c-6.2,0-11.3,5.1-11.3,11.3V560h-4.4c-1.8,0-3.3,1.3-3.3,3.1v53.7c0,1.8,1.3,3.1,3.3,3.1h4.4v10.2c0,6.2,7.5,10.2,13.7,10.2h433.7
		c6.2,0,11.3-5.1,11.3-11.3l-0.2-9.3h5.3c1.8,0,3.1-1.3,3.1-3.1v-53.7C1195.1,561.3,1193.8,560,1192,560z"/>
	<polyline fill="none" stroke="#231F20" stroke-width="1.5253" points="1118.1,639.6 1101.8,570 963.5,570 953.6,570 815.1,570 
		798.8,639.6 	"/>
	<polygon fill="none" stroke="#231F20" stroke-width="0.5084" points="960.4,558.2 1163.3,558.2 1163.3,389.7 1144.9,371.6 
		966.2,371.6 950.7,371.6 772,371.6 753.6,389.7 753.6,558.2 956.2,558.2 	"/>
	<line fill="none" stroke="#231F20" stroke-width="0.5084" x1="727.8" y1="559.1" x2="727.8" y2="619.3"/>
	<line fill="none" stroke="#231F20" stroke-width="0.5084" x1="732.2" y1="559.1" x2="732.2" y2="619.3"/>
	<line fill="none" stroke="#231F20" stroke-width="0.5084" x1="1182.7" y1="559.1" x2="1182.7" y2="619.3"/>
	<line fill="none" stroke="#231F20" stroke-width="0.5084" x1="1187.1" y1="559.1" x2="1187.1" y2="619.3"/>
	<g>
		<path fill="#D0D2D3" stroke="#231F20" stroke-width="0.5084" d="M860,449.4c-17.5,0-31.6,14.2-31.6,31.6
			c0,17.5,14.2,31.6,31.6,31.6c17.5,0,31.6-14.2,31.6-31.6C891.9,463.6,877.5,449.4,860,449.4z M887.5,481.1c0,3.3-0.7,6.4-1.5,9.3
			l-0.2,0.2l-7.3-4.2l-3.8,6.4l7.5,4.4c-4.2,5.8-10.4,9.7-17.7,11.1v-8.8h-7.3v8.8c-7.1-0.9-13.7-4.4-18.1-9.7v-0.2l7.3-4.2
			l-3.8-6.4l-7.5,4.4c-1.3-3.3-2.4-7.3-2.4-11.1c0-3.3,0.7-6.6,1.8-9.5l7.5,4.2l3.8-6.4l-7.5-4.4c4-5.5,10.2-9.5,17.5-10.8h0.2v8.6
			h7.3v-8.8c7.3,0.7,13.5,4.2,17.9,9.5l0.2,0.4L874,468l3.8,6.4l7.5-4.4C886.6,473.3,887.5,477.1,887.5,481.1z"/>
		<path fill="#D0D2D3" stroke="#231F20" stroke-width="0.5084" d="M1055.8,449.4c-17.5,0-31.6,14.2-31.6,31.6
			c0,17.5,14.2,31.6,31.6,31.6c17.5,0,31.6-14.2,31.6-31.6S1073.2,449.4,1055.8,449.4z M1081.2,490.6l-7.3-4.2l-3.8,6.4l7.5,4.4
			c-4.2,5.8-10.4,9.7-17.7,11.1v-8.8h-7.3v8.8c-7.1-0.9-13.7-4.4-18.1-9.7v-0.2l7.3-4.2l-3.8-6.4l-7.5,4.4
			c-1.3-3.3-2.4-7.3-2.4-11.1c0-3.3,0.7-6.6,1.8-9.5l7.5,4.2l3.8-6.4l-7.5-4.4c4-5.5,10.2-9.5,17.5-10.8h0.2v8.6h7.3v-8.8
			c7.3,0.7,13.5,4.2,17.9,9.5l0.2,0.4l-7.3,4.2l3.8,6.4l7.5-4.4c1.5,3.3,2.4,7.1,2.4,11.1c0,3.3-0.7,6.4-1.5,9.3L1081.2,490.6z"/>
	</g>
	<g>
		<g>
			<defs>
				<polygon id="SVGID_5_" points="1118.1,639.6 1101.8,570 963.5,570 953.6,570 815.1,570 798.8,639.6 				"/>
			</defs>
			<clipPath id="SVGID_6_">
				<use xlink:href="#SVGID_5_"  overflow="visible"/>
			</clipPath>
			<g clip-path="url(#SVGID_6_)">
				<line fill="none" stroke="#231F20" stroke-width="0.5084" x1="797.2" y1="574.8" x2="1122.6" y2="574.8"/>
				<line fill="none" stroke="#231F20" stroke-width="0.5084" x1="797.2" y1="577.9" x2="1122.6" y2="577.9"/>
				<line fill="none" stroke="#231F20" stroke-width="0.5084" x1="797.2" y1="581.2" x2="1122.6" y2="581.2"/>
				<line fill="none" stroke="#231F20" stroke-width="0.5084" x1="797.2" y1="584.3" x2="1122.6" y2="584.3"/>
				<line fill="none" stroke="#231F20" stroke-width="0.5084" x1="797.2" y1="587.7" x2="1122.6" y2="587.7"/>
				<line fill="none" stroke="#231F20" stroke-width="0.5084" x1="797.2" y1="590.8" x2="1122.6" y2="590.8"/>
				<line fill="none" stroke="#231F20" stroke-width="0.5084" x1="797.2" y1="594.1" x2="1122.6" y2="594.1"/>
				<line fill="none" stroke="#231F20" stroke-width="0.5084" x1="797.2" y1="597.2" x2="1122.6" y2="597.2"/>
				<line fill="none" stroke="#231F20" stroke-width="0.5084" x1="797.2" y1="600.5" x2="1122.6" y2="600.5"/>
				<line fill="none" stroke="#231F20" stroke-width="0.5084" x1="797.2" y1="603.6" x2="1122.6" y2="603.6"/>
				<line fill="none" stroke="#231F20" stroke-width="0.5084" x1="797.2" y1="606.9" x2="1122.6" y2="606.9"/>
				<line fill="none" stroke="#231F20" stroke-width="0.5084" x1="797.2" y1="610" x2="1122.6" y2="610"/>
				<line fill="none" stroke="#231F20" stroke-width="0.5084" x1="797.2" y1="613.3" x2="1122.6" y2="613.3"/>
				<line fill="none" stroke="#231F20" stroke-width="0.5084" x1="797.2" y1="616.4" x2="1122.6" y2="616.4"/>
				<line fill="none" stroke="#231F20" stroke-width="0.5084" x1="797.2" y1="619.7" x2="1122.6" y2="619.7"/>
				<line fill="none" stroke="#231F20" stroke-width="0.5084" x1="797.2" y1="622.8" x2="1122.6" y2="622.8"/>
				<line fill="none" stroke="#231F20" stroke-width="0.5084" x1="797.2" y1="626.1" x2="1122.6" y2="626.1"/>
				<line fill="none" stroke="#231F20" stroke-width="0.5084" x1="797.2" y1="629.2" x2="1122.6" y2="629.2"/>
				<line fill="none" stroke="#231F20" stroke-width="0.5084" x1="797.2" y1="632.6" x2="1122.6" y2="632.6"/>
			</g>
		</g>
	</g>
	<rect x="905.1" y="451.9" fill="#D0D2D3" stroke="#231F20" stroke-width="0.5084" width="104.8" height="55.5"/>
	<rect x="908.2" y="455.6" fill="none" stroke="#231F20" stroke-width="0.5084" width="98.4" height="48"/>
	<path fill="none" stroke="#231F20" stroke-width="0.5084" d="M983.2,480.8c0,8.4,1.8,16.1,4.9,23h18.6v-48.2H989
		C985.4,462.9,983.2,471.5,983.2,480.8z"/>
	<path fill="none" stroke="#231F20" stroke-width="0.5084" d="M908.2,503.6h54c3.1-6.9,4.9-14.6,4.9-23c0-9.3-2.2-17.9-6-25.2h-52.9
		V503.6z"/>
	<line fill="none" stroke="#231F20" stroke-width="0.5084" x1="777.3" y1="420.9" x2="1139.2" y2="420.9"/>
	<line fill="none" stroke="#231F20" stroke-width="0.5084" x1="797.2" y1="635.7" x2="1122.6" y2="635.7"/>
	<circle fill="#D0D2D3" stroke="#231F20" stroke-width="0.5084" cx="847.6" cy="622.8" r="9.5"/>
	<circle fill="#D0D2D3" stroke="#231F20" stroke-width="0.5084" cx="894.1" cy="615.8" r="9.5"/>
	<circle fill="#D0D2D3" stroke="#231F20" stroke-width="0.5084" cx="1069.3" cy="622.8" r="9.7"/>
	<circle fill="#D0D2D3" stroke="#231F20" stroke-width="0.5084" cx="1022.8" cy="615.8" r="9.5"/>
	<text id="yourNameCassette" transform="matrix(1 0 0 1 787.1617 415.3951)" font-family="'Notethis'" font-size="35.3881">YORAN BROODCOORE</text>
</g>
</svg>
