<?xml version="1.0" encoding="utf-8"?>
<!-- Generator: Adobe Illustrator 17.1.0, SVG Export Plug-In . SVG Version: 6.00 Build 0)  -->
<!DOCTYPE svg PUBLIC "-//W3C//DTD SVG 1.1//EN" "http://www.w3.org/Graphics/SVG/1.1/DTD/svg11.dtd">
<svg version="1.1" id="Recorder" xmlns="http://www.w3.org/2000/svg" xmlns:xlink="http://www.w3.org/1999/xlink" x="0px" y="0px"
	 viewBox="-128 -78 256 256" enable-background="new -128 -78 256 256" xml:space="preserve">
<path fill="#323232" d="M93.8,163.1c0,4.4-3.6,8-8,8H-64.7c-4.4,0-8-3.6-8-8V-66.2c0-4.4,3.6-8,8-8H85.7c4.4,0,8,3.6,8,8
	C93.8-66.2,93.8,163.1,93.8,163.1z"/>
<linearGradient id="SVGID_1_" gradientUnits="userSpaceOnUse" x1="-802.2154" y1="500.7746" x2="908.1324" y2="500.7746" gradientTransform="matrix(8.605852e-002 0 0 -8.605852e-002 5.9423 4.3029)">
	<stop  offset="0" style="stop-color:#000000"/>
	<stop  offset="0.1224" style="stop-color:#FFFFFF"/>
	<stop  offset="0.2152" style="stop-color:#CCCCCC"/>
	<stop  offset="0.2966" style="stop-color:#A6A6A6"/>
	<stop  offset="0.3619" style="stop-color:#8F8F8F"/>
	<stop  offset="0.4031" style="stop-color:#878787"/>
	<stop  offset="0.4449" style="stop-color:#A7A7A7"/>
	<stop  offset="0.4909" style="stop-color:#C3C3C3"/>
	<stop  offset="0.5313" style="stop-color:#D4D4D4"/>
	<stop  offset="0.5612" style="stop-color:#DADADA"/>
	<stop  offset="0.5935" style="stop-color:#D6D6D6;stop-opacity:0.892"/>
	<stop  offset="0.6259" style="stop-color:#CACACA;stop-opacity:0.7834"/>
	<stop  offset="0.6585" style="stop-color:#B6B6B6;stop-opacity:0.6746"/>
	<stop  offset="0.6911" style="stop-color:#999999;stop-opacity:0.5655"/>
	<stop  offset="0.7237" style="stop-color:#757575;stop-opacity:0.4563"/>
	<stop  offset="0.756" style="stop-color:#494949;stop-opacity:0.3483"/>
	<stop  offset="0.7704" style="stop-color:#333333;stop-opacity:0.3"/>
	<stop  offset="0.7716" style="stop-color:#363636;stop-opacity:0.3049"/>
	<stop  offset="0.7884" style="stop-color:#5C5C5C;stop-opacity:0.3726"/>
	<stop  offset="0.8064" style="stop-color:#7D7D7D;stop-opacity:0.4452"/>
	<stop  offset="0.8257" style="stop-color:#989898;stop-opacity:0.5231"/>
	<stop  offset="0.8467" style="stop-color:#ACACAC;stop-opacity:0.608"/>
	<stop  offset="0.8703" style="stop-color:#BBBBBB;stop-opacity:0.7032"/>
	<stop  offset="0.8986" style="stop-color:#C3C3C3;stop-opacity:0.8172"/>
	<stop  offset="0.9439" style="stop-color:#C6C6C6"/>
</linearGradient>
<path fill="url(#SVGID_1_)" d="M84.1-10.5V-59c0-4.5-3.6-8.1-8.1-8.1H-55c-4.5,0-8.1,3.6-8.1,8.1v48.5H84.1z"/>
<g id="recorderPlaceholder">
	<path d="M-55.1,82.8c-3.8,0-6.9-3.1-6.9-6.9V4.6c0-3.8,3.1-6.9,6.9-6.9H76.1c3.8,0,6.9,3.1,6.9,6.9v71.4c0,3.8-3.1,6.9-6.9,6.9
		H-55.1z"/>
	<path fill="#C8C8C8" d="M76.1-1.2c3.2,0,5.8,2.6,5.8,5.8v71.4c0,3.2-2.6,5.8-5.8,5.8H-55.1c-3.2,0-5.8-2.6-5.8-5.8V4.5
		c0-3.2,2.6-5.8,5.8-5.8H76.1 M76.1-3.4H-55.1c-4.4,0-8,3.6-8,8v71.4c0,4.4,3.6,8,8,8H76.1c4.4,0,8-3.6,8-8V4.5
		C84.1,0.1,80.5-3.4,76.1-3.4L76.1-3.4z"/>
</g>
<linearGradient id="SVGID_2_" gradientUnits="userSpaceOnUse" x1="-802.2154" y1="-1663.593" x2="908.6508" y2="-1663.593" gradientTransform="matrix(8.605852e-002 0 0 -8.605852e-002 5.9423 4.3029)">
	<stop  offset="0" style="stop-color:#000000"/>
	<stop  offset="0.1224" style="stop-color:#FFFFFF"/>
	<stop  offset="0.2152" style="stop-color:#CCCCCC"/>
	<stop  offset="0.2966" style="stop-color:#A6A6A6"/>
	<stop  offset="0.3619" style="stop-color:#8F8F8F"/>
	<stop  offset="0.4031" style="stop-color:#878787"/>
	<stop  offset="0.4449" style="stop-color:#A7A7A7"/>
	<stop  offset="0.4909" style="stop-color:#C3C3C3"/>
	<stop  offset="0.5313" style="stop-color:#D4D4D4"/>
	<stop  offset="0.5612" style="stop-color:#DADADA"/>
	<stop  offset="0.5935" style="stop-color:#D6D6D6;stop-opacity:0.892"/>
	<stop  offset="0.6259" style="stop-color:#CACACA;stop-opacity:0.7834"/>
	<stop  offset="0.6585" style="stop-color:#B6B6B6;stop-opacity:0.6746"/>
	<stop  offset="0.6911" style="stop-color:#999999;stop-opacity:0.5655"/>
	<stop  offset="0.7237" style="stop-color:#757575;stop-opacity:0.4563"/>
	<stop  offset="0.756" style="stop-color:#494949;stop-opacity:0.3483"/>
	<stop  offset="0.7704" style="stop-color:#333333;stop-opacity:0.3"/>
	<stop  offset="0.7716" style="stop-color:#363636;stop-opacity:0.3049"/>
	<stop  offset="0.7884" style="stop-color:#5C5C5C;stop-opacity:0.3726"/>
	<stop  offset="0.8064" style="stop-color:#7D7D7D;stop-opacity:0.4452"/>
	<stop  offset="0.8257" style="stop-color:#989898;stop-opacity:0.5231"/>
	<stop  offset="0.8467" style="stop-color:#ACACAC;stop-opacity:0.608"/>
	<stop  offset="0.8703" style="stop-color:#BBBBBB;stop-opacity:0.7032"/>
	<stop  offset="0.8986" style="stop-color:#C3C3C3;stop-opacity:0.8172"/>
	<stop  offset="0.9439" style="stop-color:#C6C6C6"/>
</linearGradient>
<path fill="url(#SVGID_2_)" d="M-63.1,129.8v28.5c0,3.8,3.6,6.9,8.1,6.9H76.1c4.5,0,8.1-3.1,8.1-6.9v-28.5
	C84.1,129.8-63.1,129.8-63.1,129.8z"/>
<g id="groupRec">
	<rect x="-57.6" y="140.1" fill="#8A0602" stroke="#0C0C0C" stroke-miterlimit="10" width="22.3" height="35.7"/>
	<circle fill="#FFFFFF" cx="-46.4" cy="158" r="5.4"/>
</g>
<g id="groupStop">
	<rect x="9.3" y="140.1" fill="#2D2D2D" stroke="#0C0C0C" stroke-miterlimit="10" width="22.3" height="35.7"/>
	<rect x="15.1" y="152.6" fill="#FFFFFF" width="10.7" height="10.7"/>
</g>
<g id="groupPlay">
	<rect x="-13" y="140.1" fill="#2D2D2D" stroke="#0C0C0C" stroke-miterlimit="10" width="22.3" height="35.7"/>
	<polygon fill="#FFFFFF" points="-6.4,152.6 -6.4,158 -6.4,163.3 2.8,158 	"/>
</g>
<g id="groupForward">
	<rect x="31.6" y="140.1" fill="#2D2D2D" stroke="#0C0C0C" stroke-miterlimit="10" width="22.3" height="35.7"/>
	<g>
		<polygon fill="#FFFFFF" points="36,152.6 36,158 36,163.3 45.2,158 		"/>
		<polygon fill="#FFFFFF" points="40.4,152.6 40.4,158 40.4,163.3 49.6,158 		"/>
	</g>
</g>
<g id="groupBack">
	<rect x="-35.3" y="140.1" fill="#2D2D2D" stroke="#0C0C0C" stroke-miterlimit="10" width="22.3" height="35.7"/>
	<g>
		<polygon fill="#FFFFFF" points="-17.3,163.3 -17.3,158 -17.3,152.6 -26.5,158 		"/>
		<polygon fill="#FFFFFF" points="-21.7,163.3 -21.7,158 -21.7,152.6 -30.9,158 		"/>
	</g>
</g>
<g id="groupEject">
	<rect x="53.9" y="140.1" fill="#2D2D2D" stroke="#0C0C0C" stroke-miterlimit="10" width="22.3" height="35.7"/>
	<g>
		<polygon fill="#FFFFFF" points="59.7,159 65.1,159 70.4,159 65.1,152.3 		"/>
		<rect x="59.7" y="160.3" fill="#FFFFFF" width="10.7" height="1.8"/>
	</g>
</g>
<circle id="RecordingLight" fill="#CC0000" cx="40.6" cy="96.8" r="4.5"/>
<g>
	<g>
		<circle fill="#040404" cx="-53.6" cy="-61.1" r="1.8"/>
		<circle fill="#040404" cx="-46.8" cy="-61.1" r="1.8"/>
		<circle fill="#040404" cx="-40.1" cy="-61.1" r="1.8"/>
		<circle fill="#040404" cx="-33.3" cy="-61.1" r="1.8"/>
		<circle fill="#040404" cx="-26.6" cy="-61.1" r="1.8"/>
		<circle fill="#040404" cx="-19.8" cy="-61.1" r="1.8"/>
		<circle fill="#040404" cx="-13.1" cy="-61.1" r="1.8"/>
		<circle fill="#040404" cx="-6.4" cy="-61.1" r="1.8"/>
		<circle fill="#040404" cx="0.4" cy="-61.1" r="1.8"/>
		<circle fill="#040404" cx="7.2" cy="-61.1" r="1.8"/>
		<circle fill="#040404" cx="13.9" cy="-61.1" r="1.8"/>
		<circle fill="#040404" cx="20.6" cy="-61.1" r="1.8"/>
		<circle fill="#040404" cx="27.4" cy="-61.1" r="1.8"/>
		<circle fill="#040404" cx="34.1" cy="-61.1" r="1.8"/>
		<circle fill="#040404" cx="40.9" cy="-61.1" r="1.8"/>
		<circle fill="#040404" cx="47.6" cy="-61.1" r="1.8"/>
		<circle fill="#040404" cx="54.4" cy="-61.1" r="1.8"/>
		<circle fill="#040404" cx="61.1" cy="-61.1" r="1.8"/>
		<circle fill="#040404" cx="67.9" cy="-61.1" r="1.8"/>
		<circle fill="#040404" cx="-50.4" cy="-56.6" r="1.8"/>
		<circle fill="#040404" cx="-43.7" cy="-56.6" r="1.8"/>
		<circle fill="#040404" cx="-37" cy="-56.6" r="1.8"/>
		<circle fill="#040404" cx="-30.2" cy="-56.6" r="1.8"/>
		<circle fill="#040404" cx="-23.4" cy="-56.6" r="1.8"/>
		<circle fill="#040404" cx="-16.7" cy="-56.6" r="1.8"/>
		<circle fill="#040404" cx="-10" cy="-56.6" r="1.8"/>
		<circle fill="#040404" cx="-3.2" cy="-56.6" r="1.8"/>
		<circle fill="#040404" cx="3.5" cy="-56.6" r="1.8"/>
		<circle fill="#040404" cx="10.3" cy="-56.6" r="1.8"/>
		<circle fill="#040404" cx="17" cy="-56.6" r="1.8"/>
		<circle fill="#040404" cx="23.7" cy="-56.6" r="1.8"/>
		<circle fill="#040404" cx="30.5" cy="-56.6" r="1.8"/>
		<circle fill="#040404" cx="37.3" cy="-56.6" r="1.8"/>
		<circle fill="#040404" cx="44" cy="-56.6" r="1.8"/>
		<circle fill="#040404" cx="50.7" cy="-56.6" r="1.8"/>
		<circle fill="#040404" cx="57.5" cy="-56.6" r="1.8"/>
		<circle fill="#040404" cx="64.2" cy="-56.6" r="1.8"/>
		<circle fill="#040404" cx="71" cy="-56.6" r="1.8"/>
		<circle fill="#040404" cx="74.6" cy="-61.1" r="1.8"/>
	</g>
	<g>
		<circle fill="#040404" cx="-53.6" cy="-52.2" r="1.8"/>
		<circle fill="#040404" cx="-46.8" cy="-52.2" r="1.8"/>
		<circle fill="#040404" cx="-40.1" cy="-52.2" r="1.8"/>
		<circle fill="#040404" cx="-33.3" cy="-52.2" r="1.8"/>
		<circle fill="#040404" cx="-26.6" cy="-52.2" r="1.8"/>
		<circle fill="#040404" cx="-19.8" cy="-52.2" r="1.8"/>
		<circle fill="#040404" cx="-13.1" cy="-52.2" r="1.8"/>
		<circle fill="#040404" cx="-6.4" cy="-52.2" r="1.8"/>
		<circle fill="#040404" cx="0.4" cy="-52.2" r="1.8"/>
		<circle fill="#040404" cx="7.2" cy="-52.2" r="1.8"/>
		<circle fill="#040404" cx="13.9" cy="-52.2" r="1.8"/>
		<circle fill="#040404" cx="20.6" cy="-52.2" r="1.8"/>
		<circle fill="#040404" cx="27.4" cy="-52.2" r="1.8"/>
		<circle fill="#040404" cx="34.1" cy="-52.2" r="1.8"/>
		<circle fill="#040404" cx="40.9" cy="-52.2" r="1.8"/>
		<circle fill="#040404" cx="47.6" cy="-52.2" r="1.8"/>
		<circle fill="#040404" cx="54.4" cy="-52.2" r="1.8"/>
		<circle fill="#040404" cx="61.1" cy="-52.2" r="1.8"/>
		<circle fill="#040404" cx="67.9" cy="-52.2" r="1.8"/>
		<circle fill="#040404" cx="-50.4" cy="-47.7" r="1.8"/>
		<circle fill="#040404" cx="-43.7" cy="-47.7" r="1.8"/>
		<circle fill="#040404" cx="-37" cy="-47.7" r="1.8"/>
		<circle fill="#040404" cx="-30.2" cy="-47.7" r="1.8"/>
		<circle fill="#040404" cx="-23.4" cy="-47.7" r="1.8"/>
		<circle fill="#040404" cx="-16.7" cy="-47.7" r="1.8"/>
		<circle fill="#040404" cx="-10" cy="-47.7" r="1.8"/>
		<circle fill="#040404" cx="-3.2" cy="-47.7" r="1.8"/>
		<circle fill="#040404" cx="3.5" cy="-47.7" r="1.8"/>
		<circle fill="#040404" cx="10.3" cy="-47.7" r="1.8"/>
		<circle fill="#040404" cx="17" cy="-47.7" r="1.8"/>
		<circle fill="#040404" cx="23.7" cy="-47.7" r="1.8"/>
		<circle fill="#040404" cx="30.5" cy="-47.7" r="1.8"/>
		<circle fill="#040404" cx="37.3" cy="-47.7" r="1.8"/>
		<circle fill="#040404" cx="44" cy="-47.7" r="1.8"/>
		<circle fill="#040404" cx="50.7" cy="-47.7" r="1.8"/>
		<circle fill="#040404" cx="57.5" cy="-47.7" r="1.8"/>
		<circle fill="#040404" cx="64.2" cy="-47.7" r="1.8"/>
		<circle fill="#040404" cx="71" cy="-47.7" r="1.8"/>
		<circle fill="#040404" cx="74.6" cy="-52.2" r="1.8"/>
	</g>
	<g>
		<circle fill="#040404" cx="-53.6" cy="-43.2" r="1.8"/>
		<circle fill="#040404" cx="-46.8" cy="-43.2" r="1.8"/>
		<circle fill="#040404" cx="-40.1" cy="-43.2" r="1.8"/>
		<circle fill="#040404" cx="-33.3" cy="-43.2" r="1.8"/>
		<circle fill="#040404" cx="-26.6" cy="-43.2" r="1.8"/>
		<circle fill="#040404" cx="-19.8" cy="-43.2" r="1.8"/>
		<circle fill="#040404" cx="-13.1" cy="-43.2" r="1.8"/>
		<circle fill="#040404" cx="-6.4" cy="-43.2" r="1.8"/>
		<circle fill="#040404" cx="0.4" cy="-43.2" r="1.8"/>
		<circle fill="#040404" cx="7.2" cy="-43.2" r="1.8"/>
		<circle fill="#040404" cx="13.9" cy="-43.2" r="1.8"/>
		<circle fill="#040404" cx="20.6" cy="-43.2" r="1.8"/>
		<circle fill="#040404" cx="27.4" cy="-43.2" r="1.8"/>
		<circle fill="#040404" cx="34.1" cy="-43.2" r="1.8"/>
		<circle fill="#040404" cx="40.9" cy="-43.2" r="1.8"/>
		<circle fill="#040404" cx="47.6" cy="-43.2" r="1.8"/>
		<circle fill="#040404" cx="54.4" cy="-43.2" r="1.8"/>
		<circle fill="#040404" cx="61.1" cy="-43.2" r="1.8"/>
		<circle fill="#040404" cx="67.9" cy="-43.2" r="1.8"/>
		<circle fill="#040404" cx="-50.4" cy="-38.8" r="1.8"/>
		<circle fill="#040404" cx="-43.7" cy="-38.8" r="1.8"/>
		<circle fill="#040404" cx="-37" cy="-38.8" r="1.8"/>
		<circle fill="#040404" cx="-30.2" cy="-38.8" r="1.8"/>
		<circle fill="#040404" cx="-23.4" cy="-38.8" r="1.8"/>
		<circle fill="#040404" cx="-16.7" cy="-38.8" r="1.8"/>
		<circle fill="#040404" cx="-10" cy="-38.8" r="1.8"/>
		<circle fill="#040404" cx="-3.2" cy="-38.8" r="1.8"/>
		<circle fill="#040404" cx="3.5" cy="-38.8" r="1.8"/>
		<circle fill="#040404" cx="10.3" cy="-38.8" r="1.8"/>
		<circle fill="#040404" cx="17" cy="-38.8" r="1.8"/>
		<circle fill="#040404" cx="23.7" cy="-38.8" r="1.8"/>
		<circle fill="#040404" cx="30.5" cy="-38.8" r="1.8"/>
		<circle fill="#040404" cx="37.3" cy="-38.8" r="1.8"/>
		<circle fill="#040404" cx="44" cy="-38.8" r="1.8"/>
		<circle fill="#040404" cx="50.7" cy="-38.8" r="1.8"/>
		<circle fill="#040404" cx="57.5" cy="-38.8" r="1.8"/>
		<circle fill="#040404" cx="64.2" cy="-38.8" r="1.8"/>
		<circle fill="#040404" cx="71" cy="-38.8" r="1.8"/>
		<circle fill="#040404" cx="74.6" cy="-43.2" r="1.8"/>
	</g>
	<g>
		<circle fill="#040404" cx="-53.6" cy="-34.3" r="1.8"/>
		<circle fill="#040404" cx="-46.8" cy="-34.3" r="1.8"/>
		<circle fill="#040404" cx="-40.1" cy="-34.3" r="1.8"/>
		<circle fill="#040404" cx="-33.3" cy="-34.3" r="1.8"/>
		<circle fill="#040404" cx="-26.6" cy="-34.3" r="1.8"/>
		<circle fill="#040404" cx="-19.8" cy="-34.3" r="1.8"/>
		<circle fill="#040404" cx="-13.1" cy="-34.3" r="1.8"/>
		<circle fill="#040404" cx="-6.4" cy="-34.3" r="1.8"/>
		<circle fill="#040404" cx="0.4" cy="-34.3" r="1.8"/>
		<circle fill="#040404" cx="7.2" cy="-34.3" r="1.8"/>
		<circle fill="#040404" cx="13.9" cy="-34.3" r="1.8"/>
		<circle fill="#040404" cx="20.6" cy="-34.3" r="1.8"/>
		<circle fill="#040404" cx="27.4" cy="-34.3" r="1.8"/>
		<circle fill="#040404" cx="34.1" cy="-34.3" r="1.8"/>
		<circle fill="#040404" cx="40.9" cy="-34.3" r="1.8"/>
		<circle fill="#040404" cx="47.6" cy="-34.3" r="1.8"/>
		<circle fill="#040404" cx="54.4" cy="-34.3" r="1.8"/>
		<circle fill="#040404" cx="61.1" cy="-34.3" r="1.8"/>
		<circle fill="#040404" cx="67.9" cy="-34.3" r="1.8"/>
		<circle fill="#040404" cx="-50.4" cy="-29.9" r="1.8"/>
		<circle fill="#040404" cx="-43.7" cy="-29.9" r="1.8"/>
		<circle fill="#040404" cx="-37" cy="-29.9" r="1.8"/>
		<circle fill="#040404" cx="-30.2" cy="-29.9" r="1.8"/>
		<circle fill="#040404" cx="-23.4" cy="-29.9" r="1.8"/>
		<circle fill="#040404" cx="-16.7" cy="-29.9" r="1.8"/>
		<circle fill="#040404" cx="-10" cy="-29.9" r="1.8"/>
		<circle fill="#040404" cx="-3.2" cy="-29.9" r="1.8"/>
		<circle fill="#040404" cx="3.5" cy="-29.9" r="1.8"/>
		<circle fill="#040404" cx="10.3" cy="-29.9" r="1.8"/>
		<circle fill="#040404" cx="17" cy="-29.9" r="1.8"/>
		<circle fill="#040404" cx="23.7" cy="-29.9" r="1.8"/>
		<circle fill="#040404" cx="30.5" cy="-29.9" r="1.8"/>
		<circle fill="#040404" cx="37.3" cy="-29.9" r="1.8"/>
		<circle fill="#040404" cx="44" cy="-29.9" r="1.8"/>
		<circle fill="#040404" cx="50.7" cy="-29.9" r="1.8"/>
		<circle fill="#040404" cx="57.5" cy="-29.9" r="1.8"/>
		<circle fill="#040404" cx="64.2" cy="-29.9" r="1.8"/>
		<circle fill="#040404" cx="71" cy="-29.9" r="1.8"/>
		<circle fill="#040404" cx="74.6" cy="-34.3" r="1.8"/>
	</g>
	<g>
		<circle fill="#040404" cx="-53.6" cy="-25.4" r="1.8"/>
		<circle fill="#040404" cx="-46.8" cy="-25.4" r="1.8"/>
		<circle fill="#040404" cx="-40.1" cy="-25.4" r="1.8"/>
		<circle fill="#040404" cx="-33.3" cy="-25.4" r="1.8"/>
		<circle fill="#040404" cx="-26.6" cy="-25.4" r="1.8"/>
		<circle fill="#040404" cx="-19.8" cy="-25.4" r="1.8"/>
		<circle fill="#040404" cx="-13.1" cy="-25.4" r="1.8"/>
		<circle fill="#040404" cx="-6.4" cy="-25.4" r="1.8"/>
		<circle fill="#040404" cx="0.4" cy="-25.4" r="1.8"/>
		<circle fill="#040404" cx="7.2" cy="-25.4" r="1.8"/>
		<circle fill="#040404" cx="13.9" cy="-25.4" r="1.8"/>
		<circle fill="#040404" cx="20.6" cy="-25.4" r="1.8"/>
		<circle fill="#040404" cx="27.4" cy="-25.4" r="1.8"/>
		<circle fill="#040404" cx="34.1" cy="-25.4" r="1.8"/>
		<circle fill="#040404" cx="40.9" cy="-25.4" r="1.8"/>
		<circle fill="#040404" cx="47.6" cy="-25.4" r="1.8"/>
		<circle fill="#040404" cx="54.4" cy="-25.4" r="1.8"/>
		<circle fill="#040404" cx="61.1" cy="-25.4" r="1.8"/>
		<circle fill="#040404" cx="67.9" cy="-25.4" r="1.8"/>
		<circle fill="#040404" cx="-50.4" cy="-20.9" r="1.8"/>
		<circle fill="#040404" cx="-43.7" cy="-20.9" r="1.8"/>
		<circle fill="#040404" cx="-37" cy="-20.9" r="1.8"/>
		<circle fill="#040404" cx="-30.2" cy="-20.9" r="1.8"/>
		<circle fill="#040404" cx="-23.4" cy="-20.9" r="1.8"/>
		<circle fill="#040404" cx="-16.7" cy="-20.9" r="1.8"/>
		<circle fill="#040404" cx="-10" cy="-20.9" r="1.8"/>
		<circle fill="#040404" cx="-3.2" cy="-20.9" r="1.8"/>
		<circle fill="#040404" cx="3.5" cy="-20.9" r="1.8"/>
		<circle fill="#040404" cx="10.3" cy="-20.9" r="1.8"/>
		<circle fill="#040404" cx="17" cy="-20.9" r="1.8"/>
		<circle fill="#040404" cx="23.7" cy="-20.9" r="1.8"/>
		<circle fill="#040404" cx="30.5" cy="-20.9" r="1.8"/>
		<circle fill="#040404" cx="37.3" cy="-20.9" r="1.8"/>
		<circle fill="#040404" cx="44" cy="-20.9" r="1.8"/>
		<circle fill="#040404" cx="50.7" cy="-20.9" r="1.8"/>
		<circle fill="#040404" cx="57.5" cy="-20.9" r="1.8"/>
		<circle fill="#040404" cx="64.2" cy="-20.9" r="1.8"/>
		<circle fill="#040404" cx="71" cy="-20.9" r="1.8"/>
		<circle fill="#040404" cx="74.6" cy="-25.4" r="1.8"/>
	</g>
	<g>
		<circle fill="#040404" cx="-53.6" cy="-16.5" r="1.8"/>
		<circle fill="#040404" cx="-46.8" cy="-16.5" r="1.8"/>
		<circle fill="#040404" cx="-40.1" cy="-16.5" r="1.8"/>
		<circle fill="#040404" cx="-33.3" cy="-16.5" r="1.8"/>
		<circle fill="#040404" cx="-26.6" cy="-16.5" r="1.8"/>
		<circle fill="#040404" cx="-19.8" cy="-16.5" r="1.8"/>
		<circle fill="#040404" cx="-13.1" cy="-16.5" r="1.8"/>
		<circle fill="#040404" cx="-6.4" cy="-16.5" r="1.8"/>
		<circle fill="#040404" cx="0.4" cy="-16.5" r="1.8"/>
		<circle fill="#040404" cx="7.2" cy="-16.5" r="1.8"/>
		<circle fill="#040404" cx="13.9" cy="-16.5" r="1.8"/>
		<circle fill="#040404" cx="20.6" cy="-16.5" r="1.8"/>
		<circle fill="#040404" cx="27.4" cy="-16.5" r="1.8"/>
		<circle fill="#040404" cx="34.1" cy="-16.5" r="1.8"/>
		<circle fill="#040404" cx="40.9" cy="-16.5" r="1.8"/>
		<circle fill="#040404" cx="47.6" cy="-16.5" r="1.8"/>
		<circle fill="#040404" cx="54.4" cy="-16.5" r="1.8"/>
		<circle fill="#040404" cx="61.1" cy="-16.5" r="1.8"/>
		<circle fill="#040404" cx="67.9" cy="-16.5" r="1.8"/>
		<circle fill="#040404" cx="74.6" cy="-16.5" r="1.8"/>
	</g>
</g>
<g>
	
		<linearGradient id="SVGID_3_" gradientUnits="userSpaceOnUse" x1="882.7364" y1="-1074.5596" x2="522.5268" y2="-1074.5596" gradientTransform="matrix(8.605852e-002 0 0 -8.605852e-002 5.9423 4.3029)">
		<stop  offset="0" style="stop-color:#000000"/>
		<stop  offset="0.1224" style="stop-color:#FFFFFF"/>
		<stop  offset="0.2152" style="stop-color:#CCCCCC"/>
		<stop  offset="0.2966" style="stop-color:#A6A6A6"/>
		<stop  offset="0.3619" style="stop-color:#8F8F8F"/>
		<stop  offset="0.4031" style="stop-color:#878787"/>
		<stop  offset="0.4449" style="stop-color:#A7A7A7"/>
		<stop  offset="0.4909" style="stop-color:#C3C3C3"/>
		<stop  offset="0.5313" style="stop-color:#D4D4D4"/>
		<stop  offset="0.5612" style="stop-color:#DADADA"/>
		<stop  offset="0.5935" style="stop-color:#D6D6D6;stop-opacity:0.892"/>
		<stop  offset="0.6259" style="stop-color:#CACACA;stop-opacity:0.7834"/>
		<stop  offset="0.6585" style="stop-color:#B6B6B6;stop-opacity:0.6746"/>
		<stop  offset="0.6911" style="stop-color:#999999;stop-opacity:0.5655"/>
		<stop  offset="0.7237" style="stop-color:#757575;stop-opacity:0.4563"/>
		<stop  offset="0.756" style="stop-color:#494949;stop-opacity:0.3483"/>
		<stop  offset="0.7704" style="stop-color:#333333;stop-opacity:0.3"/>
		<stop  offset="0.7716" style="stop-color:#363636;stop-opacity:0.3049"/>
		<stop  offset="0.7884" style="stop-color:#5C5C5C;stop-opacity:0.3726"/>
		<stop  offset="0.8064" style="stop-color:#7D7D7D;stop-opacity:0.4452"/>
		<stop  offset="0.8257" style="stop-color:#989898;stop-opacity:0.5231"/>
		<stop  offset="0.8467" style="stop-color:#ACACAC;stop-opacity:0.608"/>
		<stop  offset="0.8703" style="stop-color:#BBBBBB;stop-opacity:0.7032"/>
		<stop  offset="0.8986" style="stop-color:#C3C3C3;stop-opacity:0.8172"/>
		<stop  offset="0.9439" style="stop-color:#C6C6C6"/>
	</linearGradient>
	<path fill="url(#SVGID_3_)" d="M81.9,102.1c0,0.8-0.6,1.3-1.3,1.3H52.2c-0.8,0-1.3-0.6-1.3-1.3V91.5c0-0.8,0.6-1.3,1.3-1.3h28.3
		c0.8,0,1.3,0.6,1.3,1.3V102.1z"/>
	<rect x="53.1" y="92.1" fill="#020202" width="1.1" height="9.7"/>
	<rect x="54.9" y="92.1" fill="#020202" width="1.1" height="9.7"/>
	<rect x="56.8" y="92.1" fill="#020202" width="1.1" height="9.7"/>
	<rect x="58.6" y="92.1" fill="#020202" width="1.1" height="9.7"/>
	<rect x="60.4" y="92.1" fill="#020202" width="1.1" height="9.7"/>
	<rect x="62.2" y="92.1" fill="#020202" width="1.1" height="9.7"/>
	<rect x="64" y="92.1" fill="#020202" width="1.1" height="9.7"/>
	<rect x="65.9" y="92.1" fill="#020202" width="1.1" height="9.7"/>
	<rect x="67.7" y="92.1" fill="#020202" width="1.1" height="9.7"/>
	<rect x="69.5" y="92.1" fill="#020202" width="1.1" height="9.7"/>
	<rect x="71.3" y="92.1" fill="#020202" width="1.1" height="9.7"/>
	<rect x="73.2" y="92.1" fill="#020202" width="1.1" height="9.7"/>
	<rect x="75" y="92.1" fill="#020202" width="1.1" height="9.7"/>
	<rect x="76.8" y="92.1" fill="#020202" width="1.1" height="9.7"/>
	<rect x="78.6" y="92.1" fill="#020202" width="1.1" height="9.7"/>
</g>
<g id="groupCounter">
	
		<linearGradient id="SVGID_4_" gradientUnits="userSpaceOnUse" x1="-817.764" y1="-1074.5596" x2="-450.8167" y2="-1074.5596" gradientTransform="matrix(8.605852e-002 0 0 -8.605852e-002 5.9423 4.3029)">
		<stop  offset="0" style="stop-color:#000000"/>
		<stop  offset="0.1224" style="stop-color:#FFFFFF"/>
		<stop  offset="0.2152" style="stop-color:#CCCCCC"/>
		<stop  offset="0.2966" style="stop-color:#A6A6A6"/>
		<stop  offset="0.3619" style="stop-color:#8F8F8F"/>
		<stop  offset="0.4031" style="stop-color:#878787"/>
		<stop  offset="0.4449" style="stop-color:#A7A7A7"/>
		<stop  offset="0.4909" style="stop-color:#C3C3C3"/>
		<stop  offset="0.5313" style="stop-color:#D4D4D4"/>
		<stop  offset="0.5612" style="stop-color:#DADADA"/>
		<stop  offset="0.5935" style="stop-color:#D6D6D6;stop-opacity:0.892"/>
		<stop  offset="0.6259" style="stop-color:#CACACA;stop-opacity:0.7834"/>
		<stop  offset="0.6585" style="stop-color:#B6B6B6;stop-opacity:0.6746"/>
		<stop  offset="0.6911" style="stop-color:#999999;stop-opacity:0.5655"/>
		<stop  offset="0.7237" style="stop-color:#757575;stop-opacity:0.4563"/>
		<stop  offset="0.756" style="stop-color:#494949;stop-opacity:0.3483"/>
		<stop  offset="0.7704" style="stop-color:#333333;stop-opacity:0.3"/>
		<stop  offset="0.7716" style="stop-color:#363636;stop-opacity:0.3049"/>
		<stop  offset="0.7884" style="stop-color:#5C5C5C;stop-opacity:0.3726"/>
		<stop  offset="0.8064" style="stop-color:#7D7D7D;stop-opacity:0.4452"/>
		<stop  offset="0.8257" style="stop-color:#989898;stop-opacity:0.5231"/>
		<stop  offset="0.8467" style="stop-color:#ACACAC;stop-opacity:0.608"/>
		<stop  offset="0.8703" style="stop-color:#BBBBBB;stop-opacity:0.7032"/>
		<stop  offset="0.8986" style="stop-color:#C3C3C3;stop-opacity:0.8172"/>
		<stop  offset="0.9439" style="stop-color:#C6C6C6"/>
	</linearGradient>
	<path fill="url(#SVGID_4_)" d="M-32.9,101.7c0,0.8-0.6,1.3-1.3,1.3h-28.9c-0.8,0-1.3-0.6-1.3-1.3v-9.8c0-0.8,0.6-1.3,1.3-1.3h28.9
		c0.8,0,1.3,0.6,1.3,1.3C-32.9,91.9-32.9,101.7-32.9,101.7z"/>
	<rect x="-62.3" y="92" width="27.3" height="9.6"/>
	<rect x="-61.1" y="92.3" fill="#222222" width="7.1" height="8.9"/>
	<rect x="-52.2" y="92.3" fill="#222222" width="7.1" height="8.9"/>
	<rect x="-43.3" y="92.3" fill="#222222" width="7.1" height="8.9"/>
	<g>
		
			<text id="txtCounter1" transform="matrix(1 0 0 1 -59.9531 99.3857)" fill="#FFFFFF" font-family="'MyriadPro-Regular'" font-size="8.9206">0</text>
		
			<text id="txtCounter2" transform="matrix(1 0 0 1 -51.0322 99.3857)" fill="#FFFFFF" font-family="'MyriadPro-Regular'" font-size="8.9206">0</text>
		
			<text id="txtCounter3" transform="matrix(1 0 0 1 -42.1123 99.3857)" fill="#FFFFFF" font-family="'MyriadPro-Regular'" font-size="8.9206">0</text>
	</g>
</g>
<text id="txtRec" transform="matrix(1 0 0 1 16.5723 99.3857)" fill="#FFFFFF" font-family="'MyriadPro-Regular'" font-size="8.9206">Rec.</text>
<g id="groupLCD">
	<rect id="rectLCD" x="-7.9" y="108.4" width="36.9" height="16.9"/>
	<text id="txtLCD" transform="matrix(1 0 0 1 -3.9316 120.7363)" fill="#FF0000" font-family="'LCDReg'" font-size="13.3809">00:00</text>
</g>
</svg>
